<?xml version="1.0" encoding="utf-8"?>
  
<!DOCTYPE svg PUBLIC "-//W3C//DTD SVG 1.1//EN" "http://www.w3.org/Graphics/SVG/1.1/DTD/svg11.dtd">
<svg version="1.1" id="Layer_1" xmlns="http://www.w3.org/2000/svg" xmlns:xlink="http://www.w3.org/1999/xlink" x="0px" y="0px"
	 viewBox="0 0 438 467.2" enable-background="new 0 0 438 467.2" xml:space="preserve">
<path fill="#F9D1D2" d="M11,86.7c0.2,0,0.5,0,0.7,0c0.4,0.8,0.7,1.7,0,2.5c-0.5-0.3-0.1-1.1-0.7-1.4C11,87.4,11,87.1,11,86.7z"/>
<path fill="#B52E31" d="M218,13.7c3.4,0.9,6.6,2.1,9.9,3.3c66.2,22.6,132.5,45.1,198.7,67.7c0.1,0,0.2,0.1,0.3,0.1
	c2.4,0.8,2.4,0.8,2,3.4c-1.3,10.2-2.5,20.3-3.8,30.5c-1.5,11.5-2.9,23.1-4.4,34.6c-1,7.9-1.9,15.8-2.9,23.7
	c-1.2,9.7-2.5,19.4-3.7,29.1c-0.9,7-1.7,14-2.6,21c-1.1,8.8-2.2,17.5-3.3,26.3c-0.9,7-1.7,14-2.6,21c-0.9,6.9-1.8,13.8-2.7,20.8
	c-0.9,6.9-1.7,13.9-2.6,20.8c-0.9,7-1.8,14-2.7,20.9c-0.8,6.7-1.7,13.4-2.5,20.1c-0.1,1.3-0.7,1.9-1.7,2.5
	c-23.8,13.1-47.7,26.3-71.5,39.5c-34.1,18.9-68.2,37.7-102.3,56.6c-0.6,0.3-1.1,0.7-1.7,0.8c-0.9-0.2-0.8-0.9-0.9-1.5
	c-0.1-0.8-0.1-1.6-0.1-2.4c0-54.2,0-108.3,0-162.5c0-4.3,0-4.3,4.3-4.3c18.8,0,37.6-0.1,56.4,0c1.1,0.1,1.5,0.9,1.9,1.8
	c4.4,10,8.7,20.1,13,30.1c4.5,10.5,9,21,13.6,31.4c0.5,1.2,1.3,1.6,2.5,1.6c9.1-0.1,18.2,0.4,27.2,0.4c4.6,0,9.3,0.3,14,0.3
	c1.6,0,1.6,0,1-1.5c-2.1-4.9-4.5-9.7-6.8-14.6c-6.1-13.1-12.3-26.1-18.4-39.2c-4-8.5-8-17.1-12-25.6c-6-12.7-12-25.5-18-38.3
	c-3.9-8.3-7.8-16.5-11.7-24.8c-6-12.8-12.1-25.6-18-38.4c-3-6.5-6.1-13-9.2-19.4c-5.1-10.9-10.2-21.7-15.3-32.6
	c-3-6.5-6.2-13.1-9.2-19.6c-4.3-9.1-8.6-18.2-12.8-27.4c-0.8-1.7-1.8-3.3-2.5-5c-0.1-0.6-0.1-1.3-0.1-1.9c0-15.5,0-31.1,0-46.6
	C217,15.4,216.6,14.2,218,13.7z"/>
<path fill="#E23237" d="M218,13.7c-0.7,0.5-0.4,1.3-0.4,2c0,14.1,0,28.3,0,42.4c0,2.5,0,5,0,7.5c0.4,0.9-0.1,1.6-0.4,2.3
	c-7.2,16-14.4,32.1-21.6,48.1c-7.8,17.3-15.5,34.6-23.3,51.9c-9.1,20.2-18.2,40.4-27.2,60.5c-8.5,19-17,37.9-25.5,56.9
	c-8,17.8-16,35.6-24,53.4c-1.5,3.3-3,6.7-4.5,10c-0.7,1.5-0.6,1.8,1,1.7c9.1-0.6,18.2-0.1,27.2-0.6c5.1-0.3,10.1-0.1,15.2-0.1
	c2.6,0,2.7-0.1,3.7-2.5c7.9-19.8,15.8-39.6,23.8-59.4c1.1-2.7,1.1-2.7,4.1-2.7c36.6,0,73.2,0,109.7,0c0.9,0,2.1-0.5,2.8,0.8
	c-19.4,0-38.9,0-58.3,0c-2.8,0-2.5-0.3-2.5,2.5c0,55.1,0,110.3,0,165.4c0,0.8-0.3,1.6,0.3,2.3c-0.7,0.6-1.1-0.1-1.5-0.4
	c-5.2-2.9-10.4-5.7-15.6-8.6c-52.1-28.9-104.2-57.9-156.4-86.8c-1.1-0.6-1.6-1.3-1.8-2.6c-1.2-10.6-2.4-21.2-3.7-31.7
	c-1.1-9.6-2.2-19.2-3.3-28.8c-1.2-10.6-2.5-21.1-3.7-31.7c-1.2-10.6-2.4-21.3-3.6-31.9c-1.3-11.1-2.6-22.2-3.8-33.3
	c-1.3-11.1-2.6-22.2-3.8-33.3c-1.2-10.1-2.3-20.1-3.5-30.2c-1.2-10.6-2.5-21.1-3.7-31.7c-0.6-5.3-1.2-10.6-1.9-16
	c0.2-0.8-0.3-1.6,0-2.5c9.2-3.3,18.4-6.5,27.6-9.8c49-17.5,98.1-34.9,147.1-52.4c10-3.5,19.9-7.1,29.9-10.6
	C216.9,13.7,217.4,13.2,218,13.7z"/>
<path fill="#FFFFFF" d="M278.4,285.9c-0.4-0.6-1.1-0.3-1.6-0.3c-19.7,0-39.4,0-59,0c-17.4,0-34.8,0-52.2,0c-0.3,0-0.7,0-1,0
	c-1-0.2-1.4,0.3-1.8,1.2c-2.4,6.2-4.9,12.3-7.4,18.5c-5.7,14.4-11.5,28.7-17.2,43.1c-0.5,1.4-1.3,1.8-2.7,1.8
	c-10.2,0.1-20.4,0.3-30.6,0.4c-4.5,0.1-9,0.2-13.4,0.3c-0.6,0-1.1,0-1.7,0c-0.2-0.7,0.2-1.2,0.5-1.7c17.2-38.2,34.3-76.4,51.5-114.6
	c24.8-55.2,49.6-110.5,74.5-165.7c0.5-1.1,1.1-2.2,1.4-3.4c0.8,0.1,0.8,0.9,1.1,1.4c3.9,8.2,7.7,16.3,11.5,24.5
	C268.5,173,306.8,254.5,345.1,336c2.2,4.6,4.4,9.3,6.5,13.9c0.2,0.5,0.6,1,0.6,1.6c-0.5,0.3-1,0.1-1.5,0.1
	c-14.3-0.2-28.5-0.5-42.8-0.7c-1.3,0-1.5-0.7-1.9-1.6c-7.2-16.7-14.4-33.3-21.6-50c-1.8-4.1-3.5-8.2-5.3-12.3
	C278.9,286.7,278.8,286.2,278.4,285.9z"/>
<path fill="#B52E31" d="M217.5,158.6c0-0.6,0.4-1,0.5-1.5c0.2,0.2,0,0,0.2,0c0.1,0,0.1,0,0.2,0.1c14.3,29.8,28.6,59.6,42.8,89.4
	c0.1,0.2,0.1,0.4,0.2,0.6c-0.3,0.3-0.6,0.2-0.9,0.2c-14,0-28,0-41.9,0c-0.3,0-0.7,0-1-0.1c-0.6-0.7-0.6-1.5-0.6-2.3
	c0-27.7,0-55.5,0-83.2C217,160.8,217.3,159.7,217.5,158.6z"/>
<path fill="#E23237" d="M217.5,158.6c0,0.5,0,0.9,0,1.4c0,29.1,0,58.3,0,87.4c-0.4,0-0.8,0.1-1.2,0.1c-11.6,0-23.3,0-34.9,0
	c-0.3,0-0.7,0-1.1,0c-0.2-0.7,0.2-1.3,0.4-1.8c4.9-11.7,9.8-23.4,14.7-35c7.1-16.8,14.1-33.5,21.2-50.3
	C216.9,159.8,217.1,159.1,217.5,158.6z"/>
</svg>
