<?xml version="1.0" encoding="utf-8"?>
<!DOCTYPE svg PUBLIC "-//W3C//DTD SVG 1.1//EN" "http://www.w3.org/Graphics/SVG/1.1/DTD/svg11.dtd">
<svg version="1.1" id="Layer_1" xmlns="http://www.w3.org/2000/svg" xmlns:xlink="http://www.w3.org/1999/xlink" x="0px" y="0px"
	 viewBox="7.1 23.7 22.9 16.8" enable-background="new 7.1 23.7 22.9 16.8" xml:space="preserve">
<path fill="#2496ED" d="M29.4,30.1c-0.5-0.4-1.7-0.5-2.6-0.3c-0.1-0.9-0.6-1.7-1.4-2.3l-0.5-0.4l-0.3,0.5c-0.4,0.7-0.6,1.6-0.6,2.5
	c0,0.5,0.2,0.9,0.4,1.3c-0.5,0.3-1.1,0.4-1.7,0.4H7.4l0,0.2c-0.1,0.9-0.1,3.6,1.6,5.7c1.3,1.6,3.3,2.4,5.8,2.4
	c5.5,0,9.6-2.7,11.6-7.5c0.8,0,2.4,0,3.2-1.7c0,0,0.1-0.1,0.2-0.5l0.1-0.2L29.4,30.1L29.4,30.1z M19.7,23.9h-2.3v2.2h2.3V23.9z
	 M19.7,26.5h-2.3v2.2h2.3V26.5z M16.9,26.5h-2.3v2.2h2.3C16.9,28.7,16.9,26.5,16.9,26.5z M14.2,26.5h-2.3v2.2h2.3L14.2,26.5
	L14.2,26.5z M11.4,29.1H9.1v2.2h2.3L11.4,29.1L11.4,29.1z M14.2,29.1h-2.3v2.2h2.3L14.2,29.1L14.2,29.1z M16.9,29.1h-2.3v2.2h2.3
	C16.9,31.4,16.9,29.1,16.9,29.1z M19.7,29.1h-2.3v2.2h2.3C19.7,31.4,19.7,29.1,19.7,29.1z M22.4,29.1h-2.3v2.2h2.3
	C22.4,31.4,22.4,29.1,22.4,29.1z"/>
</svg>
