<?xml version="1.0" encoding="utf-8"?>
  
<!DOCTYPE svg PUBLIC "-//W3C//DTD SVG 1.1//EN" "http://www.w3.org/Graphics/SVG/1.1/DTD/svg11.dtd">
<svg version="1.1" id="Layer_1" xmlns="http://www.w3.org/2000/svg" xmlns:xlink="http://www.w3.org/1999/xlink" x="0px" y="0px"
	 viewBox="0 0 383 528" enable-background="new 0 0 383 528" xml:space="preserve">
<path fill="#FEC928" d="M244,180.1c7.9-5.9,14.2-13.5,21.2-20.3c13.3-12.9,26.2-26.1,39.3-39.2c4-3.9,8.1-8.1,14.3-6.2
	c6.1,1.9,7.5,7.4,8.5,13c8.6,50,17.2,100,25.8,150c7.5,43.4,14.9,86.9,22.7,130.2c1,5.7-0.1,8.6-5.3,11.7
	c-51.9,30.9-103.7,62-155.4,93.3c-5.7,3.4-12.1,4-18.1,6.3c-4.3,0-8.7,0-13,0c-11.5-0.7-20.3-7.7-29.7-13.1
	c-33.7-19.8-67.4-39.6-101-59.5c-14.3-8.5-28.7-16.9-43-25.3c-2.3-1.4-5.5-2.6-3.1-6.4c0.7-0.6,1.6-1,2.4-1.6c1.1-0.8,2-1.8,2.9-2.7
	C72.8,350,133.1,289.8,193.4,229.4c15.3-15.1,30.3-30.4,45.6-45.5C240.4,182.4,241.7,180.5,244,180.1z"/>
<path fill="#FE9F00" d="M8,415c1.4-14.4,4.3-28.6,6.5-42.9c6.4-40.6,13-81.2,19.5-121.8c7.2-45,14.4-90,21.7-135.1
	c5.1-31.9,10.3-63.7,15.2-95.6C71.6,14.9,73,10.7,76,7c1.7,0,3.3,0,5,0c4.4,4.2,7.1,9.4,9.7,14.7c19.3,39,38.6,78,58,116.9
	c0.8,1.5,0.8,3.7,3.2,4.1c0.4,0.4,0.6,0.8,0.5,1.3c-12.6,24.8-25.7,49.3-38.6,74c-13.4,25.5-26.7,51.1-40.2,76.5
	c-14.2,26.8-28.1,53.7-42.4,80.4c-5.3,9.8-10.5,19.7-15.6,29.6c-1.7,3.3-3.4,6.5-5.6,9.4C9.6,414.8,8.8,414.9,8,415z"/>
<path fill="#FE9F00" d="M152,144c0-0.4-0.1-0.9-0.1-1.3c8-18.1,15.9-36.2,24-54.2c2.1-4.5,5.6-8.2,11-8.3c6.1,0,9.5,4.4,11.9,9.3
	c12.4,24.8,24.8,49.6,37.2,74.5c2.7,5.4,5.3,10.7,8,16.1c-8,8.2-15.9,16.4-24,24.5c-8.6,8.6-17.2,17-25.9,25.5
	c-2.2-0.7-2.8-2.7-3.7-4.5c-12.5-25-25-50-37.5-75.1C151.9,148.5,150.3,146.5,152,144z"/>
<path fill="#F47F17" d="M152,144c-0.2,1.7,0.6,3.2,1.4,4.7c13.6,27.1,27.2,54.2,40.7,81.3c-1,1.1-1.9,2.3-2.9,3.4
	c-59,59-118,118-177,177c-1.3,1.3-2.7,2.4-4.1,3.6c3.8-10.7,10.3-20.1,15.2-30.2c5.3-10.8,11.3-21.3,16.9-32
	c15.9-30.4,31.8-60.9,47.7-91.3c9.2-17.6,18.6-35.2,27.8-52.7c10.7-20.2,21.3-40.5,31.9-60.8C150.1,145.8,150.6,144.5,152,144z"/>
</svg>
