<?xml version="1.0" encoding="utf-8"?>
  
<!DOCTYPE svg PUBLIC "-//W3C//DTD SVG 1.1//EN" "http://www.w3.org/Graphics/SVG/1.1/DTD/svg11.dtd">
<svg version="1.1" id="Layer_1" xmlns="http://www.w3.org/2000/svg" xmlns:xlink="http://www.w3.org/1999/xlink" x="0px" y="0px"
	 viewBox="0 0 645.1 576.1" enable-background="new 0 0 645.1 576.1" xml:space="preserve">
<path d="M624.2,527.4c-0.2,0.9-0.4,1.8-0.6,2.7c-0.2,1.4-0.9,2.4-2.3,3.1c-4.3,2.3-8.9,3.5-13.7,4.4c-5.1,0.9-10.2,1.6-15.2,2.5
	c-6.7,1.2-13.1,3.5-18.4,7.9c-0.2,0.2-0.4,0.2-0.5,0.3c-3.1-0.9-5.9-2-8.9-2.6c-6.1-1.3-12.1-0.5-18,1.3c-6.1,1.9-12.2,4.1-18.3,6.1
	c-5.6,1.8-11.2,3.6-17.1,3.4c-8-0.3-15.7,1.7-23.6,2.6c-9.3,1-18.6,2.1-28,3c-13.7,1.3-27.5,1.7-41.3,1.7c-5.1,0-10.3-0.5-15.4-0.9
	c-8.3-0.6-16.5-1.2-24.8-1.9c-24.2-1.9-48.3-4.4-72.1-9.6c-10.9-2.4-21.6-5.5-32.2-9.1c-9.8-3.3-19.5-6.6-28.9-11
	c-16.4-7.6-32.1-16.7-47.1-26.9c-9.1-6.2-17.6-13.5-26.2-20.4c-10-8-19.5-16.5-28-26.1c-1.8-2-3.6-4.1-5.2-6.2
	c-12.3-16-24.9-31.9-35.8-48.9c-21.2-33-38.4-68-51.4-104.9c-4.1-11.5-6.8-23.3-9.7-35.2c-3.8-15.9-7.2-31.8-12.2-47.4
	c-2-6.2-4.3-12.3-6.6-18.4c-0.8-2-1.8-4-2.8-5.9c-1.7-3.3-3.1-6.7-3.8-10.4c-0.2-0.8-0.6-1.5-0.9-2.3c0-2.4,0-4.7,0-7.1
	c0.3-0.8,0.8-1.5,0.9-2.3c1.1-5.9,3.5-11.1,7.2-15.8c7.3-9.5,17-15.4,28.4-18.3c5.1-1.3,10-3.1,14.7-5.5c0.9-0.5,1.8-1.1,2.7-1.7
	c-0.4-0.3-0.6-0.5-0.7-0.5c-4.3,0.6-8.5,1.4-12.3,3.7c-2.5,1.5-4.9,3-7.8,3.5c-5.5,1-8.9-2.1-8.5-7.6c0.4-4.6,2.9-8,6.7-10.6
	c2.9-2,6.1-2.8,9.5-3.2c2.9-0.3,5.6-1.2,8.2-2.5c8.3-4.2,11.8-13.3,8.2-22.4c-0.3-0.7-0.7-1.4-1.3-1.8c-3-2.2-3.1-5.2-0.3-8
	c1.8-1.8,3.8-3.4,5.8-4.9c3.2-2.5,6.5-4.8,9.7-7.4c1.7-1.4,3.2-3.1,4.4-4.9c1.9-2.9,1.7-5.8-0.6-8.4c-1.3-1.4-2.8-2.7-4.4-3.8
	c-4.6-3.1-7.4-7.4-8.9-12.5c-1.5-5.1,0.3-9.7,4.9-12.4c2.1-1.3,4.7-1.9,7-2.8c0.5-0.2,1.1-0.3,1.7-0.5c2,0,4.1,0,6.1,0
	c1.4,0.4,2.8,0.7,4.1,1.1c4.9,1.7,8.7,4.6,9.9,9.9c0.7,3,0.4,6.1-0.5,9c-0.4,1.4-1.1,2.8-1.6,4.3c-2.3,5.9,0.7,11.5,6.9,12.8
	c4.5,0.9,9.1,0.4,13.6,0.2c3-0.1,6.1-0.3,9.1-0.3c1.3,0,2.5,0.2,3.8,0.5c4.4,1,6.4,3.8,5.7,8.4c-0.4,2.2-1,4.4-1.6,6.9
	c1.5,2,3.6,3.5,5.9,4.7c4.8,2.5,10,3.5,15.3,4.4c4.7,0.8,9.5,1.6,14.2,2.6c1.9,0.4,3.7,1.2,5.4,2c4,2,6,5.3,6.3,9.7
	c0,0.6,0.1,1.2,0.2,1.9c1.6,0.3,3.1,0.5,4.5,0.8c4.6,1,8.8,3,12.7,5.5c2.9,1.9,5.7,3.9,8.6,5.8c4.9,3.3,10.1,5.7,16.1,6.2
	c0.4,0,0.8,0.2,1.2,0.3c9.2,3.5,18.5,7,27.7,10.6c5.7,2.2,11.1,4.9,16.2,8.3c4.1,2.8,7.8,6,10.4,10.3c1.1,1.8,1.9,3.7,2.8,5.7
	c-3.4,2.8-7.2,3.4-11.2,3.1c-4.7-0.3-9.1-1.6-13.5-3.1c-5.4-1.8-10.8-3.8-16.4-5.4c-2.9-0.8-6-1.3-9-1.3c-4.7-0.1-8.1,2.2-9.9,6.5
	c-2,4.4-2.3,9.1-1.9,13.9c0.9,11.4,1.7,22.8,2.6,34.1c1.3,16.6,2.4,33.2,3.9,49.8c1.7,19,4.6,37.9,9.2,56.5
	c2.4,9.9,5.5,19.5,8.9,29.1c2.5,7.1,4.9,14.2,8.2,21c6.8,14,15.6,26.7,25.4,38.7c9.1,11.2,18.4,22.3,27.9,33.2
	c10.9,12.6,23.7,23.1,37.5,32.4c14,9.4,28.4,18.1,43.7,25c20,9,40.9,15.4,62.4,20c3.8,0.8,7.6,1.5,11.4,2.3c1.5,0.3,2.6,0,3.6-1
	c2.2-2.2,4.4-4.4,6.6-6.7c4.5-4.6,9-9.2,13.6-13.7c3-2.9,6.5-5.4,10.4-7.2c3.8-1.7,7.7-2.5,11.8-1.2c1.3,0.4,2.5,1.1,3.7,1.7
	c1.3,0.6,1.7,1.7,1.3,2.9c-0.7,2.1-1.2,4.3-2.3,6.1c-1.8,2.9-3.9,5.5-6,8.1c-1.9,2.4-4,4.6-5.8,7c-2.9,4-2.1,6.2,2.8,6.9
	c3.8,0.5,7.7,0.7,11.6-0.2c5.1-1.1,10.1-0.6,15,0.8c3.9,1.1,7.8,2.3,11.7,3.3c7.7,1.9,14.2-0.1,19.5-5.9c0.4-0.4,0.7-0.9,1-1.4
	c0.5,0.2,0.8,0.3,0.9,0.5c3.3,3.3,7.3,4.8,11.8,5.2c3.5,0.3,7.1,0.4,10.6,0.4c3.5-0.1,7.1-0.5,10.6-0.6c3.5-0.1,7.1-0.1,10.6,0.3
	c1.8,0.2,3.7,1.1,5.4,2c1.7,0.9,2.3,2.8,3,4.5C624.2,522.3,624.2,524.8,624.2,527.4z M459.7,521.3c-1.2-0.8-2-1.5-2.9-1.9
	c-1.7-0.7-3.5-1.2-5.3-1.7c-5.9-1.5-11.8-2.9-17.6-4.6c-2.7-0.8-5.3-1.9-7.7-3.1c-2.6-1.3-3.6-3.5-0.9-5.8c0.1-0.1,0-0.3,0.1-0.5
	c-0.9,0.2-1.8,0.4-2.7,0.5c-3,0.2-6.1,0.6-9.1,0.4c-7.2-0.4-13.6-3.3-19.4-7.4c-5.4-3.8-9.9-8.5-13.9-13.6c-0.9-1.1-1.9-1.7-3.3-2.1
	c-3.6-0.9-7.2-1.9-10.7-3c-12.6-4.1-24.6-9.5-35.1-17.7c-6.5-5-12-10.9-16-18.1c-0.5-0.9-0.9-1.9-1.3-2.9c0.9-0.6,1.5-1.1,2.3-1.7
	c-1.6-3.1-3.6-5.7-6-7.9c-6.1-5.6-11.4-11.8-15.9-18.7c-4.4-6.7-8.5-13.6-12.7-20.5c-1.2-1.9-2.5-3.5-4.3-4.8c-1.9-1.4-3.4-3.2-5-5
	c-1.2-1.3-2.1-2.9-3.2-4.3c-0.5-0.6-1.1-1.1-1.9-1.9c-1.5,2.9-1.2,5.8-1.8,8.5c-0.3-0.8-0.5-1.6-0.8-2.4c-1.6-5.6-4.5-10.4-9.3-13.8
	c-2.2-1.6-4.5-2.7-7.4-1.6c0-3.9,1.2-6.8,4.3-8.9c0.9-0.5,1.8-1,2.6-1.6c1.3-0.9,1.6-1.6,0.8-3c-0.6-1.1-1.6-2-2.3-3
	c-0.5-0.7-1-1.5-1.3-2.4c-1.6-6-2.8-12-4.7-17.9c-3.8-11.8-6.5-23.8-8.9-35.9c-0.4-2-0.6-4-1.2-5.9c-0.7-2.2-1.9-2.5-3.5-0.9
	c-2.6,2.6-5,5.5-6,9.2c-0.2,0.9-0.5,1.7-0.8,2.6c-0.5-0.6-0.7-1.1-0.6-1.6c0.2-4,0.6-7.9,1.8-11.7c0.3-1,0.7-1.9,1.2-2.8
	c0.8-1.4,1.8-1.4,2.8-0.3c0.4,0.5,0.8,1.1,1.3,1.7c1.6-2.4,2.7-4.8,3-7.5c0.3-3-1.4-4.7-4.4-4.3c-0.5,0.1-0.9,0.2-1.6,0.3
	c0.1-0.6,0.1-0.9,0.2-1.2c0.8-3.3,1.7-6.5,2.2-9.9c0.6-3.4,0.5-6.9-0.5-10.3c-0.7-2.3-1.3-2.6-3.7-1.9c0-0.3-0.1-0.5,0-0.8
	c1.7-9.4,2.3-18.8,1.9-28.3c-0.2-3.1-0.7-6.2-1.5-9.2c-0.7-3-1.7-3.5-4.7-3.6c0.2-0.7,0.4-1.3,0.5-1.9c2.9-10.8,4.4-21.7,3.2-32.9
	c-0.3-3.3-1-6.5-2.8-9.4c-1.8-2.9-4.4-4-7.6-3c-2,0.6-3.9,1.7-5.7,2.7c-1.1,0.7-2.2,1.1-3.5,1.2c-3.6,0.3-7.2,0.6-10.8,1.2
	c-6.6,1.1-13.1,2.6-19.3,5c-0.7,0.3-1.4,0.7-2.3,1.2c2.1,1.2,3.8,2.1,5.4,3.2c1.6,1.1,3.6,1.8,4.7,4.3c-1.6-0.1-2.8,0-4-0.3
	c-3.8-0.8-7.6-1.7-11.4-2.6c-2.4-0.6-4.9-1.2-7.3-1.8c-0.2,0.4-0.3,0.6-0.4,0.8c-1.8,6.5-3.5,7.7-10.3,7.4c-0.3,0-0.5,0-0.8,0
	c-3.4-0.3-6.9-0.6-10.9-1c1.4,0.7,2.3,1,3.2,1.6c1.7,1,2.1,2.5,1,4.1c-0.8,1.2-1.9,2.4-3.1,3.3c-4,3.1-8.6,4.9-13.6,5.8
	c-3.4,0.6-6.7,0.6-10-0.7c-0.5-0.2-1.4-0.2-1.8,0.1c-2.3,1.3-3.8,3.2-3.5,5.9c0.3,1.8,0.8,3.6,1.5,5.3c1.3,2.7,2.9,5.2,4.2,7.8
	c0.8,1.6,1.5,3.2,2.1,4.9c0.7,2.2,0.1,4-1.8,5.4c-0.5,0.4-1.2,0.9-1.3,1.4c-0.3,2.1-1.8,2.5-3.4,2.7c-2.1,0.3-4.2,0.3-6.3,0.6
	c-1.8,0.2-3.7,0.5-5.5,1c-3.6,1.1-5.5,3.7-5.9,7.5c-0.1,1.1-0.1,2.3-0.2,3.6c-0.6-0.2-1-0.3-1.4-0.4c-3.9-0.8-5.5,0.6-5,4.5
	c0.3,3.1,1.7,5.8,3.7,8.2c2.8,3.4,4.9,3.6,8.5,0.9c3.9,1.1,7.8,2.5,11.2,5c3.9,2.8,6.3,6.6,6.8,11.4c0.3,2.8,0.3,5.7,0.2,8.6
	c0,3.1-0.3,6.2-0.4,9.4c0,1.3,0.2,2.6-1.3,3.3c-1.5,0.7-2.6-0.3-3.6-1.2c-0.3-0.2-0.5-0.4-0.7-0.7c-2.8-3.2-4.6-6.9-5.1-11.1
	c-0.1-0.7,0-1.5,0.1-2.3c0.4-2.6,1.6-3.9,4.2-4.5c0.8-0.2,1.6-0.3,2.7-0.4c-2-3.3-4-6.4-6.8-8.9c-3-2.7-5.4-2.7-8.2,0.3
	c-3.4,3.6-6.5,7.5-9.9,11.4c0.8,0.6,1.5,1.1,2.3,1.7c2.1,1.5,4.4,2.9,6.4,4.5c1.6,1.3,3.2,2.7,4.6,4.4c2.7,3.3,2.1,6-1.6,8.1
	c-0.7,0.4-1.4,0.8-2.4,1.3c0.7,0.2,1.2,0.4,1.7,0.5c6.7,1.6,11.1,5.8,13.7,12.1c1,2.5,1.7,5.1,2.6,7.7c0.5,1.7,0.9,3.4,1.6,5.1
	c1.5,3.9,5.7,4.6,8.4,1.6c0.6-0.7,1.2-1.4,1.9-2.1c1.9-1.9,3.4-2.1,5.7-0.9c0.6,0.3,1.1,0.6,1.7,0.9c-0.4-1-1.1-1.8-1.8-2.4
	c-3.5-3.2-7-6.4-10.4-9.6c-2.2-2.1-4.5-4.1-6.6-6.3c-0.8-0.8-1.6-1.8-2.2-2.8c-0.8-1.4-0.3-2.3,1.3-2.4c1.3-0.1,2.5,0.1,3.8,0.3
	c1.4,0.2,2.8,0.5,4.5,0.8c-0.4-3.3-0.7-6.3-1-9.3c-0.2-2.3-0.4-4.5-0.4-6.8c0-1.9,1.1-3.2,3-3.5c1.1-0.2,1.9-0.5,2.4-1.5
	c0.2-0.4,0.6-0.6,1.2-1.2c0.1,1,0.2,1.5,0.1,2.1c-0.2,2.4-0.6,4.7-0.8,7.1c-0.3,3.5-0.7,7.1-0.6,10.6c0.2,4.3,2.4,5.1,5.8,2.4
	c2.5-2,5.1-3.9,7-6.6c0.3-0.4,0.6-0.8,1-1.1c1.7-1.6,3.1-1.7,4.9-0.2c1.1,0.9,1.9,2.1,2.8,3.2c1.6,2,3.1,4,4.6,6.1
	c1.1,1.6,2.3,3.2,3,5c2.1,4.9-0.5,8.3-5.8,7.8c-0.3,0-0.5-0.1-0.8-0.1c-3.5-0.4-6.6-1.9-9.7-3.6c-0.7-0.4-1.4-0.7-2.5-1.3
	c0.7,2.4,1.9,3.9,3.2,5.2c1.8,1.8,3.8,3.4,5.7,5.1c2.4,2.2,5,4.3,7.3,6.7c3.3,3.5,4.9,7.7,4.2,12.5c-0.6,4,1.2,7.2,3.3,10.3
	c1.4,2.1,3.6,2.8,6.1,2.1c1.1-0.3,2.3-0.7,3.4-1c0.6-0.2,1.3-0.3,1.9-0.4c1.3,2.5,1.3,5.5,3.9,7.4c2.7-3.1,2-7,3-10.7
	c1.9,0.6,3.6,1.1,5.3,1.7c4.8,1.8,8.1,5.1,9.7,10c0.5,1.5,0.9,3.1,1.5,4.6c0.6,1.6,1.2,3.1,2,4.6c0.8,1.5,2.3,2.2,3.3,1.6
	c1.2-0.7,0.8-2,0.5-3c-0.6-2-1.3-4-2.1-6c-1.4-3.3-2.9-6.5-4.4-9.7c-0.3-0.8-0.9-1.6-0.5-2.8c0.7,0.6,1.4,1,1.9,1.5
	c4,4.2,7.9,8.3,11.8,12.5c1,1,1.8,2.2,2.6,3.4c0.9,1.5,1.8,3.1,2.4,4.7c1.6,4.6,0,8.3-4.4,10.2c-2.1,0.9-4.5,1.3-6.8,1.7
	c-1.7,0.3-3.4,0.2-5.2,0.3c4.2,2.6,7.4,6.3,11,9.4c1.1,0.9,2.2,1.9,3.4,2.7c3.3,2.4,6.9,3.8,11,3.9c1,0,2,0.3,2.8,0.8
	c5.9,3.6,10.1,8.6,12.6,15.1c0.5,1.3,0.7,2.8,0.8,4.2c0.1,3.3-1.5,5.1-4.8,5.3c-4.1,0.2-8-0.9-11.3-3.2c-5.7-4-12-6.9-18.6-9.1
	c-1.1-0.4-2.3-0.6-3.5-0.8c-0.5-0.1-1.1,0.1-2.1,0.3c1,1,1.5,1.7,2.2,2.2c1.3,1,2.7,2,4.1,2.9c5.5,3.6,11.6,5.8,17.5,8.5
	c12.9,5.7,25.9,11.2,38.4,17.7c8.3,4.4,16.5,9,23.1,15.8c3.2,3.3,6.4,6.7,9.6,10.1c2.9,3.1,5.5,6.4,9.2,8.8
	c-0.4,0.3-0.6,0.5-0.9,0.6c-0.7,0.3-1.4,0.5-2.2,0.6c-7,1.4-13.8,0.7-20.3-2.1c-0.6-0.3-1.2-0.6-1.8-1c-1.1-0.8-2.4-1.5-2.3-3.1
	c0.1-1.6,1.6-2.1,2.8-2.6c1-0.4,2.1-0.7,3.1-1.1c-4.7-1.4-9.4-2.4-14.1-3.3c-0.6-0.1-1.2-0.1-1.8,0c-2,0.2-2.7,1.1-2.2,3.1
	c0.1,0.5,0.3,1,0.6,1.4c2.1,4.2,5,7.7,9.6,9.2c2.2,0.7,4.5,1.5,6.8,2.1c6.3,1.5,12.7,2.1,19.1,2.5c3.2,0.2,6.3,0.4,9.7,0.7
	c-1,3.8-4,5.9-5.8,9.2c1,0.3,1.8,0.5,2.6,0.7c0.8,0.2,1.8-0.1,2.6,0.8c-0.3,0.2-0.5,0.4-0.7,0.5c-4.1,3-3.9,4.3,0.7,6.6
	c2.2,1.1,4.3,2.2,6.6,3.5c0.7-0.3,1.6-0.8,2.5-1.1c4-1.5,7-0.8,9.8,2.5c1.2,1.4,2.1,3,3.2,4.6c0.9,1.2,1.7,2.6,2.7,3.7
	c2,2.3,4.2,2.6,6.8,1.1c1.1-0.6,2.1-1.4,3.1-2.2c1.4-1.3,2.6-2.6,3.9-4c1.9-1.9,4-3.4,6.6-4.3c-1.1,1.7-2.4,3.2-3.6,4.8
	c-1.2,1.6-2.9,3-3.5,5.6c1.2-0.4,2.1-0.7,2.8-1.1c2.1-1.1,4.1-2.3,6.1-3.5c3.8-2.4,8-3.6,12.5-3.8c6.5-0.3,12.8,1.1,18.8,3.4
	c7.3,2.8,14.5,6,21.8,9c3.4,1.4,6.7,3.2,10.6,2.9c0.4,0,0.8,0.1,1.2,0.2c4.5,1.3,9,2.4,13.4,3.9c7.2,2.5,14,1.5,20.6-1.7
	C458.1,522.5,458.6,522,459.7,521.3z M86.3,159.4c-1.3,0.5-1.9,0.8-2.5,1.1c-1.2,0.6-2.8,0.9-2.9,2.4c-0.1,1.4,1.4,2,2.5,2.7
	c1.5,1,3.1,1.8,4.5,2.8c1.6,1.2,1.5,2.4-0.2,3.4c-2.2,1.3-4.5,2.3-7.2,1.5c-2-0.6-4.1-0.9-6.1-1.7c-2.4-0.9-4.7-1.9-6.9-3.2
	c-4.1-2.6-5.4-6.2-4.3-10.9c0.1-0.6,0.3-1.3,0.4-2c-0.5,0-0.9,0-1.2,0c-7.6,1-15.1,2.7-22.2,6c-3.3,1.6-6.4,3.5-8.9,6.2
	c-2.7,3-4.2,6.5-4,10.6c0.3,6.8,3.7,12.2,7.6,17.3c0.3,0.4,0.9,0.4,1.8,0.8c-0.1-1.3-0.2-2.2-0.3-3.1c-0.2-3.9-0.4-7.8-0.4-11.6
	c0.1-3.4,0.9-6.7,2.4-9.8c1.9-3.7,4.9-6,9.1-6.5c3.1-0.4,6,0.2,9.3,1.5c-1.5,0.5-2.5,0.8-3.5,1.2c-6,2.3-7.1,6.5-3.2,11.5
	c2.6,3.3,5.9,5.8,9.8,7.5c1.8,0.8,3.6,1.4,5.5,1.8c4.9,0.9,7.7-1.8,7.1-6.8c-0.1-0.7-0.2-1.5-0.3-2.3c3.3-0.4,6.5-0.7,9.7-1.1
	c2.4-0.3,4.8-0.9,7.2-1.2c2.6-0.3,3.4,0.9,2.7,3.4c-0.3,1.1-0.8,2.1-1.4,3.6c3.1-0.7,5.8-1.2,8.3-1.9c7-1.9,13.4-5.2,19.8-8.4
	c5.1-2.6,10.2-5.2,15.5-7.5c7.1-3.1,14.4-4.7,22.2-3.8c0.6,0.1,1.2,0,1.8-0.1c7.8-1,15.6-2,23.4-3.1c11.4-1.7,22.6-4.1,33.4-8
	c0.9-0.3,1.9-0.5,2.9-0.7c7.6-1.2,14.1-4.6,19.3-10.2c2.5-2.7,4.5-5.7,5.3-9.4c0.7-2.8,0.4-5.5-0.9-8.1c-0.7-1.4-1.6-2-3.3-2.2
	c-10.7-0.7-21.3-0.5-31.9,0.5c-13.3,1.2-26.5,3.3-39.6,6c-12.3,2.6-24.3,6.3-36.4,10c-15.4,4.7-30.9,9.3-46.9,11.7
	c-1.9,0.3-3.8,0.8-5.6,1.5c-2.3,0.9-2.4,2.3-0.5,3.7c1.6,1.1,3.4,1.9,5.1,2.8C83.5,157.7,84.7,158.4,86.3,159.4z M449.7,555.3
	c0-0.2,0-0.4,0-0.7c-0.4-0.2-0.9-0.4-1.3-0.6c-6-2.2-12.2-2.8-18.5-2.5c-5.4,0.2-10.8,0.6-16.2,1c-7.8,0.5-15.4-0.2-22.6-3.4
	c-0.9-0.4-2.1-0.3-3.2-0.2c-3.4,0.4-6.7,1-10.1,1.2c-10.8,0.7-21.5-0.2-32.1-1.7c-8.7-1.3-17.4-2.6-26.1-3.9
	c-1.7-0.3-3.4-0.5-4.9-1.1c-13-5.2-26-10.4-39-15.6c-13.9-5.5-27.7-11.3-40.5-19.1c-3.7-2.2-7.7-3.4-11.8-4.4c-0.5-0.1-1.1,0-1.6,0
	c-0.1,0.2-0.1,0.3-0.2,0.5c0.7,0.6,1.4,1.4,2.2,1.9c2.8,1.8,5.5,3.6,8.4,5.2c7.8,4.4,15.7,8.6,24,12c2.1,0.8,4,2.1,6,3.2
	c0.3,0.2,0.5,0.6,1.1,1.3c-1-0.2-1.5-0.3-1.9-0.5c-3.4-1.2-6.9-2.3-10.2-3.8c-6.8-3.1-13.6-6.3-20.4-9.6c-3.7-1.8-7.3-3.9-11-5.8
	c-1.1-0.6-2.3-0.9-3.5-1.3c-0.1,0.2-0.2,0.4-0.3,0.5c0.7,0.6,1.3,1.4,2.1,1.9c6.9,4.1,13.6,8.7,20.8,12
	c11.9,5.5,24.2,10.4,36.4,15.3c12.4,4.9,25.1,8.4,38.3,10.4c16,2.3,31.9,4.7,47.9,6.8c10.3,1.4,20.6,2.5,31,3.3
	c14,1.1,28,1.1,42-0.4C439.7,556.7,444.7,556,449.7,555.3z M69.5,322.9c0,1.1-0.1,1.5,0,1.9c0.4,1.4,0.8,2.8,1.3,4.1
	c4.9,12.8,10.7,25.2,18.1,36.8c7,10.9,14.3,21.6,21.5,32.3c4.1,6,8.1,12.1,11.6,18.5c4.6,8.4,9.7,16.5,15.4,24.2
	c7.3,9.8,15.5,18.5,25.6,25.5c2.1,1.4,3.9,3.2,5.7,4.9c2.7,2.7,5.3,5.5,7.8,8.3c5.4,5.8,12.3,8.7,19.9,10.2c0.9,0.2,1.9,0.2,2.8,0.1
	c1.3-0.2,1.9-1.1,1.5-2.4c-0.5-1.3-1.2-2.7-2.1-3.7c-5.3-6-11.3-10.9-19.3-11.7c-2.3-2.4-4.3-4.7-6.5-6.8c-1.5-1.5-3.1-2.9-4.5-4.4
	c-2.4-2.6-2.4-3.8-0.3-6.6c-0.3,0-0.5-0.1-0.8-0.1c-4.5,0.8-8-0.9-10.8-4.2c-1.3-1.5-2.4-3.2-3.5-5c-1.3-2.2-2.4-4.5-3.7-6.6
	c-0.7-1.2-1.5-2.3-2.4-3.3c-0.9-1-2-1.4-3.4-1.3c-0.9,0.1-1.8-0.1-2.6-0.4c-4.9-1.9-7.9-5.6-9.7-10.4c-1.1-3-2-6.1-2.9-9.2
	c-2.4-8.1-6.9-14.6-14.2-19.1c-0.6-0.4-1.2-1-1.3-1.7c-1.2-4.5-3.6-8.4-6.5-12c-3.3-4.2-6.8-8.2-10.2-12.3
	c-5.6-6.8-9.9-14.2-12.8-22.6c-2.6-7.6-6.8-14.3-11.5-20.7C71.2,324.5,70.5,323.9,69.5,322.9z M155.2,394.9c-0.7,1.5,0,2.3,0.7,3
	c0.8,0.8,1.7,1.6,2.8,2.2c2.7,1.6,5.4,3.1,8.3,4.4c5.2,2.5,10.3,5.1,15.1,8.2c4,2.6,8.3,4.5,12.5,6.7c1,0.5,2,1.1,3.6,0.5
	c-2.1-3.1-5.2-5-7.7-7.4c1.5-3.5,1.4-4.7-0.4-6.9c-0.8-0.9-1.7-1.7-2.5-2.5c-1.1-1-2.2-1.8-3.3-2.8c-2.2-2.1-2.3-2.8-1-5.6
	c-0.8-0.5-1.7-1-2.5-1.6c-2.3-1.5-4.5-3-6.7-4.5c-0.8-0.5-1.7-1.1-1.7-2.3c2.7-1.2,5.5-0.1,8.6-0.7c-1.8-1-3.2-1.8-4.6-2.7
	c-1.1-0.7-2.5-1.5-2.4-3c0.1-1.6,1.7-1.9,2.9-2.5c1.7-0.7,3.5-1.3,5.2-2.1c0.9-0.4,1.8-0.9,1.7-2.3c-6.4-1.8-12.8-3.7-19.3-5.5
	c-1.5-0.4-3-0.5-4.5-0.6c-0.7,0-1.4,0.3-2.1,0.4c0.5,2.7,2.7,3.7,4,5.7c-0.6-0.2-0.9-0.3-1.2-0.4c-1.7-0.6-3.3-1.4-5-1.9
	c-1.8-0.5-2.3,0.1-1.8,2c0.3,1,0.7,2,1.1,3.1c-2.5,0.8-4.8-1.4-7.2,0c2.3,4,6.9,5.8,9.2,10.2c-1.9,0-3.4,0-5.6,0
	c1.2,1,2,1.7,2.7,2.3c3.7,3,7.5,6,11.2,9.1c0.7,0.6,1.6,1.1,1.7,2.6C162.7,399,159.1,396.7,155.2,394.9z M164.4,108.5
	c0.4-0.5,0.8-1,1.1-1.6c0.4-0.6,0.8-1.3,1.2-2c1.1-2.3,0.3-3.6-2.2-3.8c-1.5-0.1-3.1,0-4.5,0.3c-4.1,0.9-8.2,1.9-12.3,3
	c-7.1,1.9-14.1,4-21.2,5.9c-2.8,0.8-5.8,1.2-8.6,2c-8.3,2.1-16.7,4.3-25,6.5c-3.3,0.9-6.4,2-9.6,3.1c-0.8,0.3-1.6,1-2.4,1.5
	c1.5,1.2,2.6,0.8,3.9,0.4c4.8-1.5,9.7-3,14.6-4.4c7.4-2,14.9-3.3,22.5-2.8c5.1,0.3,9.8,1.6,14,4.6c0.5,0.4,1,0.7,1.7,1.2
	c-0.5-1.9-1-3.6-1.3-5.4c-0.2-1.5-0.3-3.2,1.3-4c1.6-0.8,3,0.3,4,1.5c1.6,1.9,2.9,4,4.4,5.9c1.5,1.8,2.9,3.8,4.7,5.3
	c3.9,3.2,7.7,2.2,9.7-2.5c1.3-2.9,1.5-6,1-9.2c-0.1-0.6-0.1-1.2-0.2-2.2c1.8,1.6,3.1,3,4.6,4.2c1.5,1.2,2.9,2.8,5.1,3
	c0.1-0.4,0.2-0.7,0.1-0.8C168.7,115.2,166.6,111.9,164.4,108.5z M144.1,319.6c0.7,1.3,1.5,2.6,2.1,4c0.9,2.1,1.9,4.2,2.4,6.4
	c0.7,3-0.8,4.6-3.9,4.2c-1.5-0.2-3-0.5-4.4-1.1c-2.7-1.1-5.4-2.4-8.1-3.5c-2.5-1-5-2.1-7.6-2.7c-4-0.9-5.6,1-3.9,4.8
	c1.1,2.5,2.8,4.8,4.3,7.1c0.1,0.2,0.2,0.4,0.3,0.6c-0.3,0.4-0.6,0.8-1.2,1.5c1.4,0.8,2.7,1.5,4.1,2.1c5.3,2.4,10.7,4.7,15.9,7.1
	c2.8,1.3,5.4,2.8,8.1,4.2c3.1,1.6,6.2,3.1,9.3,4.5c1.2,0.6,2.5,1,3.8,1.3c2.3,0.5,3-0.4,2.3-2.6c-0.1-0.2-0.1-0.5-0.3-0.7
	c-2.1-3.2-4.1-6.4-6.2-9.5c-0.2-0.3-0.6-0.6-1-0.7c-2.9-1.2-4.5-3.6-5.3-6.4c-0.9-2.8-1.4-5.7-2.1-8.6c-0.8-3.3-1.3-6.6-2.5-9.8
	C149.3,318.9,147.3,318.3,144.1,319.6z M71.8,297.4c0.1-0.5,0.2-0.9,0.2-1.2c0-0.6,0-1.2-0.1-1.8c-1.9-10.3-6.3-19.6-11.8-28.4
	c-0.1-0.2-0.3-0.4-0.5-0.6c-0.4-0.3-0.9-0.6-1.6-1.1c0.1,1.2,0,1.9,0.2,2.7c0.8,2.9,1.6,5.9,2.5,8.8c1,3.3,2.2,6.6,3.3,9.8
	c0.1,0.4,0,0.8,0,1.7c-1.3-2.5-2.3-4.7-3.5-6.7c-1.8-2.9-3.8-5.8-5.8-8.6c-0.6-0.8-1.2-1.8-2.7-1.7c0,0.9-0.1,1.7,0.2,2.3
	c1.2,3.5,2.1,7.2,3.9,10.4c3.8,6.6,6.7,13.6,9.7,20.6c2.6,6,5.2,11.9,8.1,17.7c2.3,4.6,5.5,8.7,9.5,12.1c0.8,0.7,1.6,1.3,2.9,2.2
	c-0.3-0.9-0.3-1.1-0.5-1.3c-4.6-6.7-7.5-14.1-9.8-21.9c-2-6.8-4.9-13.1-9.4-18.6c-0.5-0.6-0.6-1.4-1-2
	C68.8,296.3,69,296.4,71.8,297.4z M204.2,447.3c1.4-0.1,3.8-0.2,6.1-0.7c1.7-0.3,3.5-0.9,5-1.7c2-1,2-2.5,0.1-3.6
	c-1.6-1-3.3-1.7-5.1-2.2c-3.3-0.9-6.5-2-9.5-3.4c-0.8-0.4-1.6-0.6-2.4-0.9c-5.5-1.9-11.2-3.4-17-3.7c-1.5-0.1-3,0.2-4.5,0.6
	c-1.6,0.5-2.2,1.8-1.3,3.2c2.1,3.5,4.6,6.7,8.9,7.7c1.1,0.3,2.2,0.3,3.1,0.9C192.5,446.4,197.8,447.1,204.2,447.3z M121.1,79.8
	c-1.2,2.2-1.1,4.3-0.5,6.3c2.2,7.2,6.7,12.5,13.2,16.2c1.6,0.9,3.3,1.1,5.1,0.9c2.9-0.3,4.1-1.6,3.6-4.6c-0.2-1.5-0.8-2.9-1.1-4.4
	c-0.2-0.8-0.2-1.7-0.3-2.6c2.6-0.9,4.3,1.1,6.5,1.2c-0.8-2.2-2.2-3.7-4-4.7c-2.2-1.3-4.4-2.5-6.8-3.3
	C131.8,83,126.5,81.5,121.1,79.8z M473.4,523.4c1.2,0.2,2.2,0.4,3.2,0.5c3.1,0.4,6.2,0,9.3,0.1c6.7,0.1,13.5,0.7,20.2,1.2
	c4.9,0.3,9.8,1,14.7,0.2c2.1-0.3,4.2-1.1,6.2-1.9c1-0.4,2-1.2,2.1-2.4c-9.2-1.2-18.2-2.5-27.2-3.6c-6-0.8-12.1-1.4-18.2-0.7
	c-2.2,0.3-4.5,0.8-6.6,1.6C475.1,519.1,473.7,520.7,473.4,523.4z M86.7,42.6c-0.5-0.9-1.1-1.7-1.5-2.6c-1.8-3.4-0.9-5.2,3-5.3
	c1.6,0,3.2,0.2,4.8,0.2c2.9,0.1,5.7,0.4,8.6,0.2c2.4-0.1,3.3-1.6,2.5-3.9c-0.5-1.5-1.4-2.9-2.3-4.2c-2-3-6.3-4.6-9.8-3.8
	c-5.6,1.2-10.1,7.4-9.5,13C82.7,39.1,83.8,41.4,86.7,42.6z M387.2,520c-0.1-1.2-0.2-2.4-0.3-3.5c-0.6-4.8-2.7-6-6.8-3.5
	c-3.4,2-6.5,4.6-9.6,7.1c-1.5,1.2-2.2,3-2.2,4.9c0,1.6,0.8,2.2,2.3,1.6c1.1-0.5,2-1.2,3-1.8c0.6-0.4,1.2-1,1.8-1.3
	c1.1-0.6,1.7-0.4,2.2,0.7c0.3,0.7,0.5,1.4,0.7,2.2c0.8,2.3,1.7,2.6,3.8,1.3c1-0.7,2-1.6,2.9-2.4C386.6,523.7,387.7,522.2,387.2,520z
	 M290.8,528.9c-0.1,0.2-0.1,0.4-0.2,0.7c0.4,0.3,0.8,0.6,1.2,0.8c5.6,2.6,11,5.5,17,7.1c3.4,0.9,6.7,1.8,10.1,2.4
	c4.7,0.8,9.3,1.5,14,2.1c1.3,0.2,2.6,0.3,4.1-0.9c-1.1-0.8-2-1.4-2.9-1.9c-3.6-1.9-7.5-2.8-11.5-3.5c-8.4-1.5-16.7-3.6-25-5.5
	C295.4,529.7,293.1,529.3,290.8,528.9z M102.2,209.7c0,0.2-0.1,0.4-0.1,0.6c-0.8,0-1.6,0.1-2.4,0c-1.9-0.2-3.9-0.3-5.8-0.5
	c-0.8-0.1-1.7,0.1-1.8,0.9c-0.1,0.5,0.3,1.2,0.6,1.8c0.3,0.4,0.8,0.6,1.2,0.9c4.4,2.7,11.8,1.3,14.9-2.8c1.8-2.3,1.4-4.6-1.2-5.9
	c-1.6-0.8-3.5-1.3-5.3-1.5c-3.9-0.4-7.9-0.5-11.9-0.6c-0.9,0-1.7,0.1-2.6,0.1c0,0.2-0.1,0.4-0.1,0.7
	C92.3,206.2,97.7,207.1,102.2,209.7z M245.3,447.5c-0.4-1.8-1.4-2.4-2.4-2.7c-1.9-0.7-3.8-1.3-5.8-1.7c-1.4-0.3-2.7-0.8-3.9-1.7
	c-4.4-3.2-9.2-5.6-14.5-7c-0.8-0.2-1.7-0.7-2.8,0.3c0.7,0.8,1.3,1.6,2,2.2c1.7,1.3,3.4,2.5,5.1,3.7c0.7,0.5,1.5,1.1,2,1.8
	c1,1.3,2.2,2.1,3.6,2.6c1.2,0.4,2.4,0.8,3.6,1.3c3.3,1.3,6.6,1.9,10.1,1.8C243.3,448.2,244.2,447.8,245.3,447.5z M123,98.8
	c-1-2.3-3-3.4-4.5-4.8c-1.2-1.1-2.4-1.3-3.9-1c-7.6,1.5-15,3.8-22.2,6.9c-0.7,0.3-1.3,0.8-2.2,1.4c2.5,0.7,4.3,0.8,5.5,0
	c3.6-2.2,7.6-2.8,11.7-2.7c4,0.1,7.9,0.5,11.9,0.8C120.4,99.4,121.7,99.8,123,98.8z M231.8,435c0,0.3,0,0.6,0,0.8
	c1.5,0.6,3.1,1.1,4.6,1.7c0.9,0.3,1.8,0.6,2.5,1.1c6.7,4.1,14,5,21.6,4.6c0.5,0,1-0.3,1.5-0.5c-0.8-0.9-1.7-1.4-2.6-1.6
	c-2.4-0.6-4.9-1.1-7.4-1.6c-1.6-0.3-3.1-0.5-4.3-1.9c-0.6-0.7-1.7-1.1-2.6-1.5c-3.7-1.5-7.7-1.9-11.7-1.6
	C233,434.6,232.4,434.9,231.8,435z M580.7,522.3c2.4,1.4,4.6,2.2,7,2.1c4.1-0.2,8.3-0.4,12.4-0.8c3.1-0.3,6.2-0.8,9.3-1.4
	c0.9-0.2,2-0.1,2.5-1.2C606.4,519.4,585.3,520.2,580.7,522.3z M272.2,139.2c1,1.1,1.5,2,2.2,2.6c1.4,1.1,2.9,2.1,4.4,2.9
	c2.1,1.1,4,2.1,4.8,4.6c0.1,0.2,0.2,0.4,0.4,0.6c1,1,2,0.8,2.5-0.5c0.8-2.4,0.4-4.5-1.4-6.3c-2.8-2.8-6.2-4.2-10.2-4.5
	C274.3,138.6,273.5,139,272.2,139.2z M233.8,466.1c1,2.2,2.4,3.7,4.3,4.7c4,2.1,8.2,3.5,12.7,4.2c0.8,0.1,1.6,0.4,2.3-0.3
	C250.5,470.9,237.8,465.2,233.8,466.1z M392.3,527.6c3-2.4,5.9-4.7,8.8-7.1c0.8-0.7,1.8-1.6,1-3.2c-4.1-0.3-7.5,1.2-10.5,3.8
	C389.1,523.2,389.3,525,392.3,527.6z M79.7,212.3c-0.5-0.5-0.9-1.2-1.6-1.5c-2.6-1.1-5.3-1-7.8,0.2c-1.5,0.7-1.7,1.9-0.7,3.1
	c1.3,1.6,3,3.3,4.9,3.1c1.6-0.2,2.9-2,4.3-3.2C79.3,213.7,79.4,213,79.7,212.3z M128.4,65.9c-0.3-0.3-0.5-0.7-0.8-0.8
	c-3.4-1.5-6.9-1.6-10.2,0c-1.3,0.6-2,1.8-1.8,3.3C120.4,69.5,126.3,68.4,128.4,65.9z M78.7,251.9c0-2.2-0.8-3.9-2.2-5.3
	c-1.3-1.4-3-1.8-4.9-1.4c-1.2,0.3-2.3,0.8-2.5,2.2c-0.2,1.3,0.7,2,1.7,2.6C73.2,251.2,75.8,251.9,78.7,251.9z M235,452
	c2.6,4.5,11.2,7.6,15.2,5.8C248.2,455.2,239,451.7,235,452z M219.8,430c-1.9-2.3-6.7-4.9-12.3-6.7c-1.2-0.4-2.5-1-4.1-0.2
	c1.4,1.9,2.8,3.6,5,4.2c2.7,0.8,5.5,1.6,8.2,2.3C217.6,429.9,218.5,429.9,219.8,430z M68.5,236.1c1.3,2.2,7.5,5.8,9.5,5.6
	c1-0.1,2.6-1.3,2.7-2c0.1-1.2-0.9-1.7-1.8-2.2c-2.8-1.3-5.7-2-8.8-1.9C69.6,235.7,69.1,235.9,68.5,236.1z M438.2,530.3
	c-1.2,0-1.8-0.2-2.3,0c-2,0.8-4,1.7-5.9,2.7c-1,0.6-1.8,1.5-2.5,2.4c-0.9,1.3-0.7,1.8,0.8,3.2C431.7,536.3,435.4,534.3,438.2,530.3z
	 M56.8,253.7c-0.2-2.6-0.9-4.9-2-7c-0.9-1.7-2-2.4-3.1-2.1c-1.2,0.4-1.8,2.2-1.2,3.9c0.3,0.9,0.8,1.8,1.5,2.6
	C53.2,252.6,54.8,253.4,56.8,253.7z M401.8,525.7c-2.5-0.1-4,0.7-5.3,1.7c-1.2,0.9-2.4,1.9-3.3,3c-0.8,0.9-0.4,1.7,0.8,2.1
	c1.6,0.5,3.1,0.6,4.3-1c0.7-1,1.6-1.9,2.3-3C401,527.8,401.2,526.9,401.8,525.7z M260.9,489.4c2.6,2.7,5.7,3,8.5,3.8
	c0.9-2.4,0.8-3.3-0.7-4.1C266.4,488,263.9,487.9,260.9,489.4z M305.9,493c-2.4-1.7-8-1.1-10,1.1C298.8,497,303,496.4,305.9,493z
	 M415.2,524.7c-2.6-1.1-4.3,0-5.9,1.2c-1.5,1.2-2.7,2.7-2.1,5.1C410.6,529.8,413.3,528,415.2,524.7z M198,369.4
	c-0.2-4.1-2.7-6.3-5.7-5.8c-0.7,0.1-1.4,0.8-2.1,1.2c0.4,0.7,0.7,1.7,1.3,1.9C193.4,367.7,195.6,368.4,198,369.4z M96.9,302.9
	c2.3,3.1,7.3,2.9,9-0.6C103.4,300.9,98.9,301.2,96.9,302.9z M143.2,380.7c-2.5-4.3-7-7-10.5-6.2C135.6,377.9,139.5,379,143.2,380.7z
	 M414,536.1c1.9-1.6,4-3.1,4.9-5.7c-2.2-0.3-4.1,0.4-5.7,1.9C411.5,533.8,411.6,534.8,414,536.1z M127,369.8c-1.5-4.6-4.9-7.3-8-6.3
	C120.8,366.9,124.1,368.2,127,369.8z M249.9,510.5c0.6-0.8,1.2-1.5,1.6-2.3c0.5-0.9,0-1.6-0.8-2.1c-1.4-0.7-3.6-0.2-4.9,1.3
	C246.5,509.4,248.2,509.8,249.9,510.5z M218.7,487.2c2.6,1.9,6.9,1.2,7.6-2.2C223.4,484.4,220.3,485.3,218.7,487.2z M172.7,420.8
	c3,2.9,7.7,3.9,10.8,2.1C179.9,421.4,176.5,420.8,172.7,420.8z M272.7,524.1c1.4,1.6,2.8,2.1,5.8,2.2c0.9-1.8,0.9-2.5-0.3-3.1
	C276.7,522.3,274.1,522.7,272.7,524.1z M51.8,190.3c-2.1-1-3.9-0.5-5.6,0.5c-0.3,0.2-0.6,0.9-0.5,1.2c0.2,1,3,2.1,3.9,1.4
	C50.5,192.8,51.6,192,51.8,190.3z M222.6,470.5c1.7,1.6,3.6,2.1,5.5,2.4c0.5,0.1,1.3-0.9,1.7-1.5c0.1-0.2-0.6-1.2-1.1-1.3
	C226.8,469.4,224.8,469.2,222.6,470.5z M196.1,428.1c-2.8-2-5.7-2.5-9.1-2.7C189.6,428.5,193.3,429.6,196.1,428.1z M246.8,485.5
	c3.5,2.9,6.8,3.1,8.5,0.6C252.7,484.7,250.1,485,246.8,485.5z M429.2,528.7c-3.7,0.8-7.5,3.2-8.3,5.2
	C424.6,533.9,426.9,531.8,429.2,528.7z M87.7,221.2c0.4-0.5,0.8-0.9,1-1.4c0.4-0.8,0.1-1.5-0.8-1.8c-1.5-0.6-3.7-0.1-5,1.3
	C84.1,220.8,85.9,220.8,87.7,221.2z M75.2,258.5c0-2.1-1.1-3-2.5-3.5c-1.5-0.7-3-1.5-4.8-0.2C69.9,256.9,72.5,257.4,75.2,258.5z
	 M81.1,224.1c0-1.5-0.7-2.3-1.7-2.2c-1.2,0.1-2.7,1.5-2.6,2.6c0,0.9,1,1.5,2.5,1.4C80.7,225.8,81.1,225.4,81.1,224.1z M492.2,497.9
	c0.7-0.9,1.4-1.5,1.9-2.3c0.6-1,0.1-1.8-0.9-1.7c-1.2,0.1-2.4,0.5-3.5,1c-0.9,0.5-0.9,1.4,0.1,1.9
	C490.4,497.3,491.2,497.5,492.2,497.9z M329.6,448.8c-0.1-1.3,0.1-2.8-1.3-3.6c-1-0.6-1.8,0.1-2.4,0.8c-0.6,0.8-1.1,1.7-0.3,2.5
	C326.7,449.7,328,449.3,329.6,448.8z M456.5,554.6c2.4,2.5,4.6,2.1,6-1.1C460.4,552.5,458.4,552.8,456.5,554.6z M126.6,389.4
	c-1.5-3.7-4.8-6.7-7.3-6.8C120.5,384.8,123.7,387.9,126.6,389.4z M301.4,502c-4.1-0.9-8.2-1.3-12.4-0.9
	C293,502.5,297.2,502.6,301.4,502z M256.4,469.5c0.4-1.6,0.2-2.2-0.7-2.8c-1.3-0.8-3.2-0.5-4.5,0.8
	C252.6,469.1,254.6,469.1,256.4,469.5z M364,518.5c3.5,0.1,5.4-2.2,7.3-4.6C368.5,514.8,366,516.2,364,518.5z M134.3,307.5
	c-0.4-1.7-0.5-3-1-4.1c-0.3-0.8-1.2-0.9-1.9-0.3c-1.2,1-1.2,2.6,0.1,3.4C132.2,307,133,307.1,134.3,307.5z M542.2,519.5
	c-0.7,0.4-1.3,0.6-1.8,1c-0.7,0.7-1.6,1.5-1,2.6c0.5,1,1.6,0.7,2.5,0.6c0.1,0,0.3-0.2,0.5-0.3C542.6,522.3,543.4,521.1,542.2,519.5z
	 M337.1,529.8c3.6-0.1,4.6-1.6,3.1-4.3C338.2,526.2,337.5,527.8,337.1,529.8z M342,460.2c-0.9-2.5-2.4-3.6-3.8-3.2
	c-0.5,0.1-1,0.6-1.1,1.1c-0.1,0.2,0.4,1,0.8,1.1C339.1,459.6,340.5,459.9,342,460.2z M570.9,517.7c-1.4,0.4-2,1.5-2.3,2.6
	c-0.3,0.9,0.3,1.5,1.2,1.4C572,521.6,572.4,520.3,570.9,517.7z M118.7,348c0.9,1.1,2.2,1.4,3.4,1.2c0.5-0.1,1-1,1.1-1.6
	c0.1-0.2-0.7-1-1.1-1C120.9,346.4,119.5,346.6,118.7,348z M518.2,480.3c-1.8,1.1-2.4,2.1-2.1,3.2c0.4,1.2,1.3,1.3,2.5,1.1
	C518.9,483.2,519.1,481.8,518.2,480.3z M199.2,455.9c-2.2-2.6-4.3-3.4-6.9-2.8C194.2,454.7,196.4,455.2,199.2,455.9z M228.8,414.4
	c-1.1,0.9-0.8,1.7-0.2,2.3c0.7,0.8,1.6,1.1,2.8,0.5C230.8,416,230.3,414.8,228.8,414.4z M92.9,289.5c2.4,1.7,3.3,1.6,5.4-0.5
	C96.4,288.7,94.8,288.5,92.9,289.5z M119,186.6c0.3,0.4,0.4,0.7,0.6,0.8c0.7,0.5,1.6,0.9,2.1-0.1c0.3-0.6,0.6-1.6,0.3-2
	c-0.6-0.8-1.5-0.2-2.2,0.2C119.5,185.8,119.3,186.2,119,186.6z M233.1,503.3c-0.4-1-0.6-2.4-2-1.6c-0.5,0.3-0.9,1.4-0.8,2.1
	C230.3,504.6,231.2,504.5,233.1,503.3z M220.2,410.6c-0.6-1-0.9-1.7-1.4-2.2c-0.3-0.2-1-0.2-1.4,0c-0.4,0.2-0.7,0.8-0.7,1.2
	c0,0.4,0.6,0.8,0.9,1C218.3,410.7,219,410.6,220.2,410.6z M223.3,455.7c-1.7-2.3-2.5-2.5-3.9-0.9
	C220.5,455.7,221.8,455.9,223.3,455.7z M45.8,219.9c-1.3,0.8-1.4,1.7-1,2.6c0.3,0.8,1,1.1,2.2,0.6C46.5,222.1,46.2,221.1,45.8,219.9
	z M100,65.2c2.7-0.2,2.7-0.2,3.5-2.6C101.9,63,100.7,63.7,100,65.2z M176.3,427.3c0.1-0.2,0.3-0.4,0.4-0.6c-0.5-0.5-0.9-1.1-1.5-1.4
	c-0.4-0.1-1,0.3-1.5,0.5c0.3,0.4,0.5,1,0.9,1.2C175.1,427.3,175.8,427.2,176.3,427.3z M217.2,497.1c2.3,1.8,2.4,1.8,3.7,0.3
	C219.9,496.6,218.8,496.5,217.2,497.1z M357.6,516.1c-1.2,1-1.6,2.1-1.7,3.5C357.9,518.7,357.9,518.7,357.6,516.1z M404.5,500.4
	c2,0.9,2,0.9,3.2-1C406.4,499.3,405.3,499.3,404.5,500.4z M108.3,217.9c-0.2,0-0.4,0-0.6,0c-0.1,0.9-0.1,1.9-0.2,3
	C109.5,219.8,109.5,219.8,108.3,217.9z M152.1,306.2c0.2-2.1-0.5-2.3-2.8-1.2C150.3,305.4,151,305.7,152.1,306.2z M39.6,228.1
	c1.9-0.8,2-0.9,0.5-3.2C39.9,226.1,39.7,227,39.6,228.1z M349.8,529.7c-0.3-0.6-0.5-1.1-0.9-2.1c-0.6,0.9-0.9,1.5-1.4,2.2
	c0.6,0.2,0.9,0.3,1.2,0.3C349,530,349.3,529.8,349.8,529.7z M236.2,493.8c-0.5-0.4-1-0.8-1.2-0.7c-0.4,0.2-0.6,0.7-1,1
	c0.3,0.2,0.6,0.6,0.9,0.6C235.3,494.6,235.6,494.2,236.2,493.8z M397.2,538c-1.6-1.5-1.6-1.5-3,0.4C395.3,538.3,396,538.2,397.2,538
	z M85.8,263.5c-0.6-0.1-1.1-0.2-1.6-0.2c-0.1,0-0.3,0.7-0.1,0.8C84.7,264.9,85.2,264.5,85.8,263.5z M349,464.9
	c0-0.8-0.3-1.3-1.1-1.2c-0.2,0-0.5,0.5-0.5,0.7C347.7,465.3,348.3,465.3,349,464.9z M125,304.5c-0.6-0.2-0.9-0.4-1.1-0.4
	c-0.2,0.1-0.3,0.5-0.4,0.7c0.2,0.1,0.4,0.3,0.6,0.3C124.3,305,124.5,304.8,125,304.5z"/>
<path fill="#FFFFFF" d="M459.7,521.3c-1.1,0.7-1.6,1.2-2.1,1.5c-6.6,3.2-13.4,4.3-20.6,1.7c-4.4-1.5-8.9-2.6-13.4-3.9
	c-0.4-0.1-0.8-0.3-1.2-0.2c-3.9,0.3-7.2-1.5-10.6-2.9c-7.2-3-14.4-6.2-21.8-9c-6-2.3-12.3-3.7-18.8-3.4c-4.5,0.2-8.6,1.4-12.5,3.8
	c-2,1.2-4.1,2.4-6.1,3.5c-0.8,0.4-1.6,0.6-2.8,1.1c0.5-2.7,2.2-4,3.5-5.6c1.2-1.6,2.5-3.1,3.6-4.8c-2.5,1-4.7,2.4-6.6,4.3
	c-1.3,1.3-2.5,2.7-3.9,4c-0.9,0.8-2,1.6-3.1,2.2c-2.7,1.5-4.8,1.1-6.8-1.1c-1-1.1-1.8-2.5-2.7-3.7c-1.1-1.5-2-3.2-3.2-4.6
	c-2.7-3.3-5.8-4-9.8-2.5c-0.9,0.4-1.9,0.8-2.5,1.1c-2.3-1.2-4.5-2.4-6.6-3.5c-4.6-2.3-4.7-3.5-0.7-6.6c0.2-0.1,0.4-0.3,0.7-0.5
	c-0.8-0.9-1.8-0.5-2.6-0.8c-0.8-0.2-1.5-0.4-2.6-0.7c1.8-3.3,4.7-5.5,5.8-9.2c-3.4-0.2-6.5-0.5-9.7-0.7c-6.4-0.4-12.8-1-19.1-2.5
	c-2.3-0.6-4.5-1.4-6.8-2.1c-4.7-1.5-7.5-5-9.6-9.2c-0.2-0.5-0.4-0.9-0.6-1.4c-0.5-1.9,0.2-2.9,2.2-3.1c0.6,0,1.2-0.1,1.8,0
	c4.7,0.9,9.4,1.9,14.1,3.3c-1,0.3-2.1,0.6-3.1,1.1c-1.2,0.5-2.7,1-2.8,2.6c-0.1,1.6,1.2,2.3,2.3,3.1c0.5,0.4,1.2,0.7,1.8,1
	c6.6,2.8,13.3,3.6,20.3,2.1c0.7-0.2,1.5-0.4,2.2-0.6c0.3-0.1,0.5-0.3,0.9-0.6c-3.7-2.4-6.3-5.7-9.2-8.8c-3.2-3.4-6.3-6.8-9.6-10.1
	c-6.7-6.8-14.8-11.4-23.1-15.8c-12.5-6.6-25.5-12-38.4-17.7c-5.9-2.6-12.1-4.8-17.5-8.5c-1.4-0.9-2.8-1.9-4.1-2.9
	c-0.7-0.5-1.3-1.3-2.2-2.2c1.1-0.1,1.6-0.4,2.1-0.3c1.2,0.2,2.3,0.4,3.5,0.8c6.6,2.2,12.8,5.1,18.6,9.1c3.3,2.3,7.2,3.4,11.3,3.2
	c3.3-0.2,4.9-2,4.8-5.3c0-1.4-0.3-2.9-0.8-4.2c-2.4-6.5-6.7-11.5-12.6-15.1c-0.8-0.5-1.9-0.8-2.8-0.8c-4.1-0.1-7.8-1.6-11-3.9
	c-1.2-0.8-2.3-1.8-3.4-2.7c-3.6-3.2-6.8-6.8-11-9.4c1.7-0.1,3.5,0,5.2-0.3c2.3-0.4,4.7-0.8,6.8-1.7c4.4-1.9,6-5.6,4.4-10.2
	c-0.6-1.7-1.5-3.2-2.4-4.7c-0.7-1.2-1.6-2.4-2.6-3.4c-3.9-4.2-7.9-8.4-11.8-12.5c-0.5-0.5-1.1-0.9-1.9-1.5c-0.4,1.2,0.1,2,0.5,2.8
	c1.4,3.2,3,6.4,4.4,9.7c0.8,1.9,1.5,3.9,2.1,6c0.3,1,0.7,2.2-0.5,3c-1,0.6-2.5-0.1-3.3-1.6c-0.8-1.5-1.4-3.1-2-4.6
	c-0.6-1.5-1-3-1.5-4.6c-1.6-4.9-4.9-8.2-9.7-10c-1.7-0.6-3.5-1.1-5.3-1.7c-1,3.7-0.3,7.5-3,10.7c-2.6-1.9-2.7-4.9-3.9-7.4
	c-0.6,0.1-1.3,0.2-1.9,0.4c-1.1,0.3-2.3,0.7-3.4,1c-2.5,0.6-4.6-0.1-6.1-2.1c-2.1-3.1-3.9-6.3-3.3-10.3c0.7-4.8-0.9-9.1-4.2-12.5
	c-2.3-2.4-4.8-4.5-7.3-6.7c-1.9-1.7-3.8-3.3-5.7-5.1c-1.4-1.3-2.5-2.9-3.2-5.2c1.1,0.6,1.8,0.9,2.5,1.3c3.1,1.7,6.2,3.1,9.7,3.6
	c0.3,0,0.5,0.1,0.8,0.1c5.3,0.5,7.9-2.9,5.8-7.8c-0.7-1.8-1.9-3.4-3-5c-1.4-2.1-3-4.1-4.6-6.1c-0.9-1.1-1.8-2.3-2.8-3.2
	c-1.8-1.6-3.2-1.5-4.9,0.2c-0.4,0.3-0.7,0.7-1,1.1c-1.8,2.7-4.5,4.6-7,6.6c-3.4,2.7-5.6,1.9-5.8-2.4c-0.2-3.5,0.3-7.1,0.6-10.6
	c0.2-2.4,0.5-4.7,0.8-7.1c0.1-0.6-0.1-1.1-0.1-2.1c-0.6,0.6-1,0.8-1.2,1.2c-0.5,1-1.3,1.4-2.4,1.5c-1.9,0.3-3,1.6-3,3.5
	c0,2.3,0.2,4.5,0.4,6.8c0.3,3,0.6,6,1,9.3c-1.8-0.3-3.2-0.6-4.5-0.8c-1.3-0.2-2.5-0.3-3.8-0.3c-1.6,0.1-2.1,1-1.3,2.4
	c0.6,1,1.3,2,2.2,2.8c2.2,2.1,4.4,4.2,6.6,6.3c3.5,3.2,7,6.4,10.4,9.6c0.7,0.7,1.3,1.4,1.8,2.4c-0.6-0.3-1.1-0.6-1.7-0.9
	c-2.3-1.2-3.8-1-5.7,0.9c-0.7,0.7-1.2,1.4-1.9,2.1c-2.8,3-6.9,2.3-8.4-1.6c-0.7-1.6-1-3.4-1.6-5.1c-0.8-2.6-1.6-5.2-2.6-7.7
	c-2.5-6.3-7-10.5-13.7-12.1c-0.5-0.1-1-0.3-1.7-0.5c0.9-0.5,1.6-0.9,2.4-1.3c3.7-2.1,4.3-4.8,1.6-8.1c-1.3-1.6-2.9-3.1-4.6-4.4
	c-2-1.6-4.3-3-6.4-4.5c-0.7-0.5-1.5-1.1-2.3-1.7c3.4-3.9,6.5-7.8,9.9-11.4c2.8-3,5.2-3,8.2-0.3c2.8,2.5,4.8,5.6,6.8,8.9
	c-1.1,0.2-1.9,0.3-2.7,0.4c-2.5,0.6-3.8,1.9-4.2,4.5c-0.1,0.7-0.1,1.5-0.1,2.3c0.5,4.3,2.3,7.9,5.1,11.1c0.2,0.3,0.5,0.5,0.7,0.7
	c1.1,0.8,2.1,1.9,3.6,1.2c1.4-0.7,1.2-2,1.3-3.3c0.1-3.1,0.4-6.2,0.4-9.4c0-2.9,0.1-5.8-0.2-8.6c-0.5-4.8-2.9-8.6-6.8-11.4
	c-3.4-2.5-7.3-3.9-11.2-5c-3.5,2.7-5.7,2.5-8.5-0.9c-2-2.4-3.3-5.1-3.7-8.2c-0.4-3.9,1.1-5.3,5-4.5c0.4,0.1,0.8,0.2,1.4,0.4
	c0.1-1.3,0.1-2.4,0.2-3.6c0.3-3.8,2.3-6.3,5.9-7.5c1.8-0.6,3.6-0.8,5.5-1c2.1-0.3,4.2-0.3,6.3-0.6c1.6-0.2,3.2-0.6,3.4-2.7
	c0.1-0.5,0.8-1,1.3-1.4c1.8-1.4,2.5-3.2,1.8-5.4c-0.6-1.7-1.3-3.3-2.1-4.9c-1.4-2.6-3-5.1-4.2-7.8c-0.8-1.6-1.3-3.5-1.5-5.3
	c-0.4-2.8,1.1-4.7,3.5-5.9c0.5-0.3,1.3-0.3,1.8-0.1c3.3,1.3,6.6,1.3,10,0.7c5-0.9,9.6-2.7,13.6-5.8c1.2-0.9,2.2-2.1,3.1-3.3
	c1.1-1.6,0.6-3-1-4.1c-0.8-0.5-1.8-0.9-3.2-1.6c4,0.4,7.4,0.7,10.9,1c0.3,0,0.5,0,0.8,0c6.8,0.3,8.5-1,10.3-7.4
	c0.1-0.2,0.2-0.4,0.4-0.8c2.5,0.6,4.9,1.2,7.3,1.8c3.8,0.9,7.6,1.8,11.4,2.6c1.2,0.3,2.4,0.2,4,0.3c-1.1-2.4-3.1-3.2-4.7-4.3
	c-1.6-1.1-3.3-2-5.4-3.2c1-0.5,1.6-0.9,2.3-1.2c6.2-2.5,12.7-4,19.3-5c3.6-0.6,7.2-0.9,10.8-1.2c1.3-0.1,2.4-0.6,3.5-1.2
	c1.8-1.1,3.7-2.1,5.7-2.7c3.2-1,5.8,0.1,7.6,3c1.8,2.9,2.5,6.1,2.8,9.4c1.2,11.2-0.3,22.1-3.2,32.9c-0.2,0.6-0.4,1.3-0.5,1.9
	c3,0.1,4,0.6,4.7,3.6c0.8,3,1.3,6.1,1.5,9.2c0.5,9.5-0.1,18.9-1.9,28.3c0,0.2,0,0.5,0,0.8c2.3-0.7,3-0.4,3.7,1.9
	c1,3.4,1,6.9,0.5,10.3c-0.5,3.3-1.5,6.6-2.2,9.9c-0.1,0.3-0.1,0.6-0.2,1.2c0.7-0.1,1.1-0.3,1.6-0.3c3-0.4,4.7,1.3,4.4,4.3
	c-0.3,2.7-1.4,5.2-3,7.5c-0.5-0.6-0.8-1.2-1.3-1.7c-1-1.2-2-1.1-2.8,0.3c-0.5,0.9-0.9,1.8-1.2,2.8c-1.2,3.8-1.6,7.8-1.8,11.7
	c0,0.5,0.1,1,0.6,1.6c0.3-0.9,0.6-1.7,0.8-2.6c0.9-3.8,3.3-6.6,6-9.2c1.6-1.6,2.9-1.3,3.5,0.9c0.6,1.9,0.8,4,1.2,5.9
	c2.5,12.1,5.2,24.1,8.9,35.9c1.9,5.9,3.1,11.9,4.7,17.9c0.2,0.9,0.8,1.7,1.3,2.4c0.7,1,1.6,2,2.3,3c0.8,1.3,0.5,2.1-0.8,3
	c-0.8,0.6-1.8,1-2.6,1.6c-3.1,2-4.3,5-4.3,8.9c2.9-1.1,5.2,0,7.4,1.6c4.8,3.5,7.7,8.2,9.3,13.8c0.2,0.8,0.4,1.6,0.8,2.4
	c0.5-2.7,0.2-5.6,1.8-8.5c0.8,0.8,1.4,1.3,1.9,1.9c1.1,1.4,2,2.9,3.2,4.3c1.6,1.8,3.1,3.6,5,5c1.9,1.3,3.1,3,4.3,4.8
	c4.2,6.9,8.3,13.7,12.7,20.5c4.5,6.9,9.8,13.1,15.9,18.7c2.4,2.2,4.5,4.8,6,7.9c-0.8,0.6-1.4,1-2.3,1.7c0.4,1,0.8,2,1.3,2.9
	c4,7.2,9.6,13.1,16,18.1c10.6,8.2,22.5,13.6,35.1,17.7c3.5,1.1,7.1,2.1,10.7,3c1.4,0.3,2.4,1,3.3,2.1c4,5.1,8.6,9.8,13.9,13.6
	c5.8,4.1,12.2,7,19.4,7.4c3,0.2,6.1-0.2,9.1-0.4c0.9-0.1,1.8-0.3,2.7-0.5c0,0.2,0,0.5-0.1,0.5c-2.7,2.2-1.7,4.5,0.9,5.8
	c2.5,1.2,5.1,2.3,7.7,3.1c5.8,1.7,11.8,3,17.6,4.6c1.8,0.5,3.6,1,5.3,1.7C457.7,519.7,458.4,520.4,459.7,521.3z M166.2,289.9
	c-0.2,0.1-0.4,0.2-0.6,0.3c-0.7-1-1.5-2-2.2-3c-3.6-5.9-6.7-12.1-9.1-18.6c-0.2-0.5-0.5-0.9-0.7-1.3c-0.3,2.1-0.3,4,0,5.9
	c1.2,7.6,3.7,14.7,7,21.6c1.1,2.3,2.5,4.4,4.1,6.4c2.3,2.8,3.3,2.7,5.6-0.2c0.1-0.1,0.1-0.1,0.2-0.2c1.5-1.9,2.6-2,4.5-0.5
	c0.9,0.7,1.7,1.5,2.9,2.7c-0.5-1.8-0.8-3-1.1-4.2c-0.4-1.9,0-2.5,1.8-3.3c2.2-0.9,2.5-1.7,1.2-3.9c-0.4-0.7-0.8-1.3-1.3-1.9
	c-4.3-5.9-9-11.4-14.3-16.4c-0.9-0.9-1.9-1.6-3-2.4c-0.4-0.3-1-0.3-1.9-0.6c0.3,3.9,2.5,6.7,3.7,9.9
	C164.3,283.3,165.8,286.4,166.2,289.9z M202.6,263.1c-1.6,1.1-2,1.9-2.6,4.4c-1.1,5.3-1.3,10.6-0.4,15.9c0.7,3.9,1.7,7.8,5.1,10.5
	c0.5,0.4,0.7,1.3,1.1,2c0.7,1.2,1.2,2.4,2.1,3.4c1,1.1,2,1,3-0.1c0.4-0.5,0.8-1.1,1-1.7c1.1-2.8,1.8-5.8,1.9-8.8
	c-2.7-1.1-3.2-1.8-3.2-4.6c0-0.9,0.2-1.8,0.2-2.8c0.1-1.7,0.4-3.4,0.4-5c0-2.8-1.1-3.6-3.8-3.3c-0.4,0-0.8,0.1-1.4,0.2
	c-0.4-1.8-0.6-3.6-1.1-5.2C204.6,266.2,204.4,264.2,202.6,263.1z M217.3,206.2c-0.3-0.1-0.5-0.1-0.8-0.2c-0.1-1-0.3-1.9-0.3-2.9
	c0-3.9,1.1-7.7,2.3-11.4c0.8-2.3,0.3-4.5-0.5-6.7c-0.6-1.6-1.7-1.7-2.9-0.4c-0.8,1-1.4,2.1-2,3.2c-1.9,4.2-3.1,8.6-3.5,13.2
	c-0.2,2.6-0.1,5.2,0,7.8c0.1,1.8,0.8,3.4,2.1,4.8c1.5,1.6,3.1,1.7,4.7,0.2c0.7-0.7,1.4-1.5,1.9-2.4c3.4-6,5.1-12.5,5.7-19.3
	c0-0.6-0.2-1.2-0.4-2.1c-1.8,1.7-2.3,3.6-2.7,5.4c-0.7,2.6-1.3,5.2-2.1,7.8C218.5,204.4,217.8,205.2,217.3,206.2z M111.3,250.7
	c-0.2,0.2-0.4,0.4-0.5,0.5c0.5,0.8,0.9,1.6,1.4,2.3c2,2.4,4.1,4.7,6.2,7c1.7,1.9,3.3,3.9,5.2,5.6c3.2,2.8,6.5,1.8,7.9-2.2
	c1.8-5-0.8-10.6-6.1-12.5c-2.4-0.9-4.4-2.1-6.2-3.7c-0.6-0.5-1.2-1.3-2.6-1.3c1.1,1.5,1.9,2.6,2.7,3.8c0.9,1.4,1.8,2.9,2.6,4.3
	c0.3,0.6,0.8,1.5-0.1,2c-0.4,0.2-1.3-0.1-1.8-0.4c-2-1.3-3.9-2.7-5.9-3.9C113.2,251.6,112.2,251.2,111.3,250.7z M155.3,250.6
	c0.1-0.2,0.2-0.5,0.4-0.7c-0.6-0.8-1.1-1.7-1.8-2.3c-6.1-5.6-12.9-10.1-20.4-13.5c-0.8-0.4-1.7-0.6-2.7-0.8
	c-1.9-0.3-2.6,0.5-1.9,2.3c0.6,1.4,1.5,2.6,2.2,4c1.7,3.5,4.7,5.1,8.3,6c2.3,0.6,4.5,1.4,6.7,2.2c2.1,0.7,4.1,1.6,6.1,2.3
	C153.2,250.5,154.3,250.5,155.3,250.6z M140.5,209.8c1.1,4.7,3.4,9,1.8,13.9c3.9,3.3,8,6,12.6,8c0.7,0.3,1.5,0.3,2.6,0.6
	c-1.3-3.2-3.9-4.5-5.6-6.8c0.5-0.2,0.9-0.4,1.3-0.5c0.9-0.3,2.1-0.5,2-1.5c-0.1-0.7-1-1.5-1.6-2c-0.6-0.6-1.4-0.9-2.1-1.4
	c-1.5-0.9-3-1.8-4.6-2.7c-1.6-0.9-3-2.2-3.9-3.8C142.3,212.3,141.4,211.1,140.5,209.8z M119.1,240.1c0,1.3,0.9,2.1,1.7,2.9
	c2.4,2.5,5.1,4.7,7.3,7.3c2.5,3,5.8,3.5,9.3,3.6c0.5,0,1-0.3,1.6-0.5C137.9,249.1,123.7,239.7,119.1,240.1z M297.7,436.6
	c0.2-0.1,0.5-0.2,0.7-0.3c0-0.6,0.1-1.2,0-1.7c-1.1-4.2-3-8-5.8-11.4c-1.1-1.4-2.3-2.7-3.4-4c-0.7-0.8-1.3-2-3-2
	c-0.6,2.8,0.6,5.3,1.7,7.7C290.2,429.6,293.4,433.5,297.7,436.6z M160,240.8c-0.4-0.6-0.5-0.9-0.7-1c-0.5-0.4-1.1-0.8-1.6-1.2
	c-5-3.1-10.3-5.5-16-7c-1.8-0.5-3.6-0.7-5.5-0.9c-0.5-0.1-1,0.2-1.7,0.4c1.9,2.1,4.4,2.2,6.6,2.9c1.6,0.5,3.4,0.7,4.8,1.6
	c3.6,2.4,7.7,3.5,11.6,4.8C158.2,240.7,158.9,240.7,160,240.8z M246.3,355c1.4-4.4,1.1-8.6-1.4-12.4c-0.5-0.8-1.2-1.8-2.4-1.5
	c-1.3,0.4-1,1.7-0.8,2.6C242.3,347.8,243.7,351.6,246.3,355z M152.8,289.1c1.3-2.1,0.7-6.2-1-7.4c-0.4-0.3-1.3-0.4-1.8-0.2
	c-1.6,0.7-2,2.5-1,4C150,286.9,150.7,288.7,152.8,289.1z M153.6,213.7c0.9,0.9,1.8,1.9,2.8,2.7c0.5,0.4,1.5,0.7,2,0.5
	c0.5-0.3,0.6-1.2,0.8-1.9c0.1-0.3-0.1-0.7-0.2-1c-0.4-1.4-0.7-3-2.3-3.3C154.9,210.4,154.3,212.1,153.6,213.7z M276,401.9
	c0-2.9-3-6.7-5.7-7.1c0,1.9,0.3,2.9,1.6,5.4C272.8,402,273.6,402.3,276,401.9z M227.3,263.7c-1.8,2.2-3,9.9-2.1,13.9
	C226.8,272.8,228.1,268.4,227.3,263.7z M221.3,272c1.2-2.5,1.4-7.7,0.4-10.1C220,265.7,219.9,269.8,221.3,272z M141.8,259.2
	c0.5,4.6,2.1,6.7,5.2,6.9C146.1,263.2,144.4,261.3,141.8,259.2z M139.1,282.6c0.7-2.7,0.2-5-1.1-7.6
	C135.9,278.8,136.2,280.8,139.1,282.6z M254.1,378.7c1.4-2.2,1.4-4.4,0.1-6.5C252,374.8,251.9,376,254.1,378.7z M188,262.3
	c-0.8,2.1-0.5,6.2,0.5,7.8C189.5,268.2,189.3,265.2,188,262.3z M209.5,240.2c-0.7-3.2-2.2-6.4-3.9-7.8
	C206.6,235,206.9,237.9,209.5,240.2z M173.8,333.3c0.5,2.5,0.5,2.5,2.2,3.7c1-0.8,0.9-1.9,0.4-2.9
	C175.8,333.2,174.9,332.8,173.8,333.3z M137.9,260.6c-1.1,0.6-1.9,1.1-3.4,1.9c1.2,0.6,2,1.3,2.5,1.1
	C138.1,263.3,138.3,262.2,137.9,260.6z M235.4,307.8c-1.1,1.7-1.5,3.4,0,5.1C235.4,311.2,235.4,309.5,235.4,307.8z M199.1,338.5
	c-0.7-1.3-1.5-2.5-3.2-3.3C196.4,337.3,197.6,338.1,199.1,338.5z M232.1,294.6c-1.6,2.1-1.6,2.3-0.9,4.5
	C231.5,297.3,231.8,296,232.1,294.6z M281.3,409.8c-0.2,0-0.5,0.1-0.7,0.1c0.2,1.4,0.4,2.8,0.6,4.2c0.2,0,0.5-0.1,0.7-0.1
	C281.7,412.6,281.5,411.2,281.3,409.8z M203.6,227.2c0.2-0.1,0.4-0.1,0.6-0.2c-0.4-1.1-0.7-2.2-1.1-3.3c-0.2,0.1-0.4,0.1-0.6,0.2
	C202.8,225,203.2,226.1,203.6,227.2z M134.2,203.5c1-1.3,0.9-1.8,0.1-2.1c-0.2-0.1-0.4,0.1-0.7,0.1C133.8,202,134,202.5,134.2,203.5
	z M376.6,485.1c0-0.3,0-0.5,0-0.8c-0.5,0-1-0.1-1.5-0.1c0,0.3,0,0.8,0.1,0.8C375.6,485.1,376.1,485.1,376.6,485.1z"/>
<path fill="#FFFFFF" d="M86.3,159.4c-1.7-0.9-2.8-1.6-4-2.3c-1.7-0.9-3.5-1.7-5.1-2.8c-2-1.4-1.8-2.8,0.5-3.7
	c1.8-0.7,3.7-1.3,5.6-1.5c16-2.4,31.5-7,46.9-11.7c12-3.7,24-7.4,36.4-10c13.1-2.7,26.2-4.9,39.6-6c10.6-0.9,21.3-1.2,31.9-0.5
	c1.7,0.1,2.6,0.8,3.3,2.2c1.3,2.6,1.6,5.3,0.9,8.1c-0.9,3.6-2.8,6.7-5.3,9.4c-5.3,5.6-11.7,9.1-19.3,10.2c-1,0.2-2,0.4-2.9,0.7
	c-10.9,3.9-22.1,6.4-33.4,8c-7.8,1.1-15.6,2.1-23.4,3.1c-0.6,0.1-1.2,0.2-1.8,0.1c-7.8-0.9-15.2,0.8-22.2,3.8
	c-5.3,2.3-10.4,4.9-15.5,7.5c-6.4,3.2-12.8,6.5-19.8,8.4c-2.6,0.7-5.2,1.2-8.3,1.9c0.6-1.5,1-2.5,1.4-3.6c0.8-2.5-0.1-3.6-2.7-3.4
	c-2.4,0.3-4.8,0.9-7.2,1.2c-3.2,0.4-6.3,0.7-9.7,1.1c0.1,0.8,0.2,1.5,0.3,2.3c0.6,4.9-2.1,7.7-7.1,6.8c-1.9-0.4-3.8-1-5.5-1.8
	c-3.8-1.7-7.2-4.1-9.8-7.5c-3.9-5-2.7-9.2,3.2-11.5c1-0.4,2.1-0.7,3.5-1.2c-3.2-1.3-6.2-1.9-9.3-1.5c-4.2,0.5-7.2,2.8-9.1,6.5
	c-1.6,3.1-2.4,6.4-2.4,9.8c-0.1,3.9,0.2,7.8,0.4,11.6c0,0.9,0.2,1.8,0.3,3.1c-0.9-0.3-1.5-0.4-1.8-0.8c-3.9-5.2-7.3-10.6-7.6-17.3
	c-0.2-4.1,1.3-7.6,4-10.6c2.5-2.7,5.5-4.7,8.9-6.2c7-3.3,14.5-5,22.2-6c0.3,0,0.6,0,1.2,0c-0.2,0.8-0.3,1.4-0.4,2
	c-1.1,4.7,0.2,8.3,4.3,10.9c2.1,1.3,4.5,2.3,6.9,3.2c2,0.7,4.1,1,6.1,1.7c2.7,0.8,5-0.2,7.2-1.5c1.7-1,1.8-2.1,0.2-3.4
	c-1.4-1.1-3-1.9-4.5-2.8c-1-0.7-2.5-1.2-2.5-2.7c0.1-1.6,1.7-1.9,2.9-2.4C84.4,160.1,85,159.9,86.3,159.4z M100.6,163.6
	c4.3,0,7.8,1.9,11.2,4.2c1.6,1.1,3.4,1.9,5.2,2.5c1.7,0.6,2.6-0.3,2.2-2.1c-0.2-0.8-0.5-1.6-0.9-2.3c-1.6-2.8-3.7-5.2-6.4-7.1
	c-5.3-3.6-9.5-2-11.3,4.1C100.5,163.1,100.6,163.2,100.6,163.6z M189.3,135.4c2.8,1.1,5.4,2,8.3,1.8c3.1-0.1,4.5-1.9,3.8-4.9
	c-0.7-3.1-2.4-5.6-5-7.4c-2.9-2.1-5.3-1.2-6.4,2.2C189.1,129.8,189,132.5,189.3,135.4z M164.7,139.3c0-0.2,0-0.4-0.1-0.6
	c-0.9-0.3-1.7-0.8-2.7-1c-5.2-1-10.4-0.5-15.6,0.3c-3.6,0.6-7.1,1.5-10.3,3.2c-1.4,0.7-2.6,1.8-4.1,2.8c2.1,1.2,3.7,0.6,5.2,0.1
	c2-0.7,3.9-1.6,5.9-2.3c3.1-1.1,6.1-1,9,0.7c0.6,0.3,1.5,0.6,2.1,0.4c2.7-0.6,5.4-1.3,8-2.1C163.2,140.5,163.9,139.8,164.7,139.3z
	 M119.9,157.1c1.2-0.2,2.5-0.3,3.7-0.6c2.2-0.6,2.6-2,0.9-3.7c-2.1-2.1-4.8-3.2-7.7-3.3c-1.9-0.1-3.4,0.8-3.8,2.3
	c-0.2,0.5-0.2,1.3,0.1,1.6C115.1,155.2,116.6,157.7,119.9,157.1z M208.3,132.4c2.2-0.6,4.3-1.1,6.4-1.9c1-0.4,1.9-1.1,2.7-1.8
	c0.6-0.5,0.4-1.4-0.3-1.6c-0.8-0.3-1.8-0.5-2.7-0.4c-3.6,0.5-7.9,4.5-8.7,8c-0.3,1.2,0.3,1.9,1.3,2.4
	C208.5,135.8,208,133.9,208.3,132.4z M106.6,151.1c-2.2-0.4-3-0.1-4.7,1.9C104.3,154.2,105.3,153.8,106.6,151.1z M130.5,144.8
	c-0.8,0.6-1.5,1.1-2,1.8c-0.2,0.3,0.1,1,0.2,1.5c0.5-0.1,1.2,0,1.4-0.4C130.8,147,131.3,146.1,130.5,144.8z"/>
<path fill="#FFFFFF" d="M449.7,555.3c-5,0.7-10,1.5-15,2c-14,1.5-28,1.5-42,0.4c-10.4-0.8-20.7-1.9-31-3.3c-16-2.1-32-4.5-47.9-6.8
	c-13.2-1.9-25.9-5.5-38.3-10.4c-12.3-4.8-24.5-9.7-36.4-15.3c-7.2-3.4-13.9-7.9-20.8-12c-0.8-0.5-1.4-1.2-2.1-1.9
	c0.1-0.2,0.2-0.4,0.3-0.5c1.2,0.4,2.4,0.7,3.5,1.3c3.7,1.9,7.3,4,11,5.8c6.7,3.3,13.5,6.6,20.4,9.6c3.3,1.5,6.8,2.5,10.2,3.8
	c0.5,0.2,1,0.2,1.9,0.5c-0.6-0.7-0.8-1.1-1.1-1.3c-2-1.1-3.9-2.3-6-3.2c-8.3-3.4-16.2-7.6-24-12c-2.9-1.6-5.6-3.4-8.4-5.2
	c-0.8-0.5-1.5-1.3-2.2-1.9c0.1-0.2,0.1-0.3,0.2-0.5c0.5,0,1.1-0.1,1.6,0c4.1,1,8.1,2.2,11.8,4.4c12.9,7.7,26.6,13.5,40.5,19.1
	c13,5.2,26,10.5,39,15.6c1.5,0.6,3.3,0.8,4.9,1.1c8.7,1.3,17.4,2.7,26.1,3.9c10.6,1.5,21.3,2.4,32.1,1.7c3.4-0.2,6.7-0.9,10.1-1.2
	c1-0.1,2.3-0.2,3.2,0.2c7.2,3.1,14.8,3.8,22.6,3.4c5.4-0.3,10.8-0.7,16.2-1c6.3-0.3,12.5,0.3,18.5,2.5c0.5,0.2,0.9,0.4,1.3,0.6
	C449.7,554.8,449.7,555.1,449.7,555.3z"/>
<path fill="#FFFFFF" d="M69.5,322.9c1,1,1.7,1.6,2.2,2.3c4.8,6.4,9,13.2,11.5,20.7c2.8,8.4,7.2,15.8,12.8,22.6
	c3.4,4.1,6.8,8.2,10.2,12.3c2.9,3.6,5.3,7.4,6.5,12c0.2,0.6,0.7,1.3,1.3,1.7c7.3,4.5,11.8,11,14.2,19.1c0.9,3.1,1.9,6.1,2.9,9.2
	c1.7,4.8,4.8,8.5,9.7,10.4c0.8,0.3,1.8,0.5,2.6,0.4c1.4-0.2,2.5,0.3,3.4,1.3c0.9,1,1.7,2.1,2.4,3.3c1.3,2.2,2.4,4.5,3.7,6.6
	c1,1.7,2.2,3.4,3.5,5c2.8,3.3,6.3,5,10.8,4.2c0.2,0,0.5,0,0.8,0.1c-2.1,2.8-2.1,3.9,0.3,6.6c1.4,1.6,3.1,2.9,4.5,4.4
	c2.1,2.2,4.2,4.4,6.5,6.8c8,0.8,14.1,5.6,19.3,11.7c0.9,1.1,1.6,2.4,2.1,3.7c0.5,1.3-0.1,2.2-1.5,2.4c-0.9,0.2-1.9,0.1-2.8-0.1
	c-7.6-1.5-14.5-4.4-19.9-10.2c-2.6-2.8-5.1-5.6-7.8-8.3c-1.8-1.8-3.7-3.5-5.7-4.9c-10-7-18.3-15.8-25.6-25.5
	c-5.7-7.7-10.8-15.8-15.4-24.2c-3.5-6.4-7.5-12.5-11.6-18.5c-7.2-10.7-14.5-21.4-21.5-32.3c-7.4-11.5-13.2-24-18.1-36.8
	c-0.5-1.3-0.9-2.7-1.3-4.1C69.4,324.4,69.5,324,69.5,322.9z M121,412.4c0.1-2.5-0.1-2.7-1.5-2.5C120,410.8,120.5,411.6,121,412.4z"
	/>
<path fill="#FFFFFF" d="M155.2,394.9c3.9,1.8,7.5,4,11.8,5.3c-0.1-1.5-1-2-1.7-2.6c-3.7-3.1-7.5-6.1-11.2-9.1
	c-0.8-0.6-1.5-1.2-2.7-2.3c2.2,0,3.7,0,5.6,0c-2.2-4.5-6.8-6.3-9.2-10.2c2.4-1.4,4.7,0.8,7.2,0c-0.4-1.1-0.8-2.1-1.1-3.1
	c-0.6-1.8,0-2.5,1.8-2c1.7,0.5,3.3,1.2,5,1.9c0.3,0.1,0.6,0.2,1.2,0.4c-1.4-2-3.6-3-4-5.7c0.8-0.2,1.5-0.5,2.1-0.4
	c1.5,0.1,3.1,0.2,4.5,0.6c6.4,1.8,12.8,3.6,19.3,5.5c0.2,1.4-0.8,1.9-1.7,2.3c-1.7,0.8-3.5,1.4-5.2,2.1c-1.2,0.5-2.8,0.9-2.9,2.5
	c-0.1,1.6,1.3,2.3,2.4,3c1.4,0.9,2.8,1.7,4.6,2.7c-3.1,0.6-5.9-0.5-8.6,0.7c-0.1,1.2,0.9,1.8,1.7,2.3c2.2,1.6,4.5,3,6.7,4.5
	c0.8,0.6,1.7,1.1,2.5,1.6c-1.4,2.8-1.3,3.5,1,5.6c1,1,2.2,1.9,3.3,2.8c0.9,0.8,1.8,1.6,2.5,2.5c1.8,2.1,1.8,3.3,0.4,6.9
	c2.5,2.4,5.6,4.2,7.7,7.4c-1.5,0.6-2.6,0-3.6-0.5c-4.2-2.1-8.6-4.1-12.5-6.7c-4.8-3.1-9.9-5.8-15.1-8.2c-2.8-1.3-5.5-2.9-8.3-4.4
	c-1-0.6-1.9-1.4-2.8-2.2C155.2,397.3,154.5,396.4,155.2,394.9z"/>
<path fill="#FFFFFF" d="M164.4,108.5c2.2,3.5,4.3,6.7,6.4,10c0.1,0.2,0,0.5-0.1,0.8c-2.2-0.2-3.6-1.8-5.1-3
	c-1.5-1.2-2.8-2.6-4.6-4.2c0.1,1,0.1,1.6,0.2,2.2c0.6,3.2,0.3,6.3-1,9.2c-2,4.7-5.8,5.7-9.7,2.5c-1.8-1.5-3.2-3.4-4.7-5.3
	c-1.5-1.9-2.8-4-4.4-5.9c-1-1.1-2.3-2.3-4-1.5c-1.6,0.8-1.6,2.5-1.3,4c0.3,1.7,0.8,3.4,1.3,5.4c-0.7-0.5-1.2-0.9-1.7-1.2
	c-4.1-3.1-8.9-4.3-14-4.6c-7.7-0.5-15.2,0.8-22.5,2.8c-4.9,1.3-9.7,2.9-14.6,4.4c-1.2,0.4-2.4,0.8-3.9-0.4c0.9-0.6,1.6-1.2,2.4-1.5
	c3.2-1.1,6.4-2.2,9.6-3.1c8.3-2.3,16.7-4.4,25-6.5c2.9-0.7,5.8-1.2,8.6-2c7.1-1.9,14.1-4,21.2-5.9c4.1-1.1,8.2-2.1,12.3-3
	c1.5-0.3,3-0.4,4.5-0.3c2.5,0.1,3.2,1.4,2.2,3.8c-0.3,0.7-0.7,1.3-1.2,2C165.2,107.4,164.8,107.9,164.4,108.5z"/>
<path fill="#FFFFFF" d="M144.1,319.6c3.1-1.3,5.1-0.7,6.2,2.3c1.1,3.2,1.7,6.5,2.5,9.8c0.7,2.9,1.2,5.8,2.1,8.6
	c0.9,2.8,2.5,5.2,5.3,6.4c0.4,0.2,0.8,0.4,1,0.7c2.1,3.2,4.1,6.4,6.2,9.5c0.1,0.2,0.2,0.5,0.3,0.7c0.7,2.2,0,3.1-2.3,2.6
	c-1.3-0.3-2.6-0.7-3.8-1.3c-3.1-1.5-6.2-3-9.3-4.5c-2.7-1.4-5.3-2.9-8.1-4.2c-5.3-2.4-10.6-4.7-15.9-7.1c-1.3-0.6-2.6-1.4-4.1-2.1
	c0.5-0.7,0.8-1.1,1.2-1.5c-0.1-0.2-0.2-0.4-0.3-0.6c-1.4-2.4-3.2-4.6-4.3-7.1c-1.7-3.8-0.1-5.7,3.9-4.8c2.6,0.6,5.1,1.7,7.6,2.7
	c2.7,1.1,5.4,2.4,8.1,3.5c1.4,0.5,2.9,0.9,4.4,1.1c3,0.4,4.6-1.2,3.9-4.2c-0.5-2.2-1.5-4.3-2.4-6.4
	C145.6,322.3,144.8,321,144.1,319.6z"/>
<path fill="#FFFFFF" d="M71.8,297.4c-2.8-1-3-1.2-6.4-5.5c0.3,0.7,0.5,1.5,1,2c4.5,5.5,7.5,11.8,9.4,18.6c2.3,7.7,5.2,15.2,9.8,21.9
	c0.1,0.2,0.2,0.4,0.5,1.3c-1.3-1-2.1-1.6-2.9-2.2c-4-3.4-7.2-7.5-9.5-12.1c-2.9-5.8-5.6-11.8-8.1-17.7c-3-7-5.9-14-9.7-20.6
	c-1.8-3.2-2.7-6.9-3.9-10.4c-0.2-0.7-0.1-1.5-0.2-2.3c1.5-0.1,2.2,0.8,2.7,1.7c2,2.8,4,5.7,5.8,8.6c1.2,2,2.2,4.2,3.5,6.7
	c0-0.9,0.1-1.3,0-1.7c-1.1-3.3-2.2-6.5-3.3-9.8c-0.9-2.9-1.7-5.8-2.5-8.8c-0.2-0.7-0.1-1.5-0.2-2.7c0.8,0.5,1.2,0.8,1.6,1.1
	c0.2,0.1,0.3,0.4,0.5,0.6c5.5,8.8,9.9,18.1,11.8,28.4c0.1,0.6,0.1,1.2,0.1,1.8C72,296.6,71.9,296.9,71.8,297.4z"/>
<path fill="#FFFFFF" d="M204.2,447.3c-6.4-0.2-11.8-0.8-16.5-3.8c-0.9-0.6-2.1-0.6-3.1-0.9c-4.3-1-6.8-4.2-8.9-7.7
	c-0.8-1.4-0.3-2.7,1.3-3.2c1.4-0.4,3-0.7,4.5-0.6c5.9,0.2,11.5,1.7,17,3.7c0.8,0.3,1.6,0.5,2.4,0.9c3,1.5,6.2,2.5,9.5,3.4
	c1.8,0.5,3.5,1.3,5.1,2.2c1.9,1.2,1.9,2.7-0.1,3.6c-1.6,0.8-3.3,1.3-5,1.7C208,447,205.6,447.1,204.2,447.3z"/>
<path fill="#FFFFFF" d="M121.1,79.8c5.4,1.7,10.7,3.2,15.8,5c2.4,0.8,4.6,2.1,6.8,3.3c1.8,1,3.1,2.6,4,4.7c-2.2,0-4-2.1-6.5-1.2
	c0.1,0.9,0.2,1.7,0.3,2.6c0.3,1.5,0.9,2.9,1.1,4.4c0.4,2.9-0.7,4.3-3.6,4.6c-1.8,0.2-3.5,0-5.1-0.9c-6.5-3.7-11.1-9-13.2-16.2
	C120,84.1,119.9,82,121.1,79.8z"/>
<path fill="#FFFFFF" d="M473.4,523.4c0.3-2.6,1.8-4.2,3.8-5c2.1-0.8,4.4-1.4,6.6-1.6c6.1-0.7,12.2-0.1,18.2,0.7
	c9,1.1,18.1,2.4,27.2,3.6c-0.1,1.2-1.1,2-2.1,2.4c-2,0.8-4.1,1.5-6.2,1.9c-4.9,0.7-9.8,0.1-14.7-0.2c-6.7-0.4-13.5-1.1-20.2-1.2
	c-3.1-0.1-6.2,0.3-9.3-0.1C475.6,523.7,474.6,523.6,473.4,523.4z"/>
<path fill="#FFFFFF" d="M86.7,42.6c-2.8-1.2-4-3.5-4.3-6.3c-0.6-5.7,4-11.8,9.5-13c3.5-0.8,7.8,0.8,9.8,3.8c0.9,1.3,1.7,2.7,2.3,4.2
	c0.8,2.3-0.1,3.7-2.5,3.9c-2.9,0.2-5.7-0.1-8.6-0.2c-1.6-0.1-3.2-0.3-4.8-0.2c-3.8,0.1-4.8,1.8-3,5.3C85.6,40.9,86.2,41.7,86.7,42.6
	z"/>
<path fill="#FFFFFF" d="M387.2,520c0.5,2.2-0.6,3.7-2.2,5.1c-1,0.8-1.9,1.7-2.9,2.4c-2,1.4-3,1-3.8-1.3c-0.3-0.7-0.4-1.5-0.7-2.2
	c-0.5-1.1-1.1-1.3-2.2-0.7c-0.7,0.4-1.2,0.9-1.8,1.3c-1,0.7-1.9,1.4-3,1.8c-1.5,0.6-2.3,0-2.3-1.6c0-1.9,0.8-3.8,2.2-4.9
	c3.1-2.5,6.2-5,9.6-7.1c4.1-2.5,6.2-1.3,6.8,3.5C387,517.6,387.1,518.8,387.2,520z"/>
<path fill="#FFFFFF" d="M290.8,528.9c2.3,0.4,4.6,0.8,6.9,1.3c8.3,1.8,16.6,4,25,5.5c4.1,0.7,7.9,1.7,11.5,3.5
	c0.9,0.5,1.8,1.2,2.9,1.9c-1.5,1.2-2.8,1-4.1,0.9c-4.7-0.6-9.4-1.2-14-2.1c-3.4-0.6-6.7-1.6-10.1-2.4c-6-1.5-11.5-4.5-17-7.1
	c-0.4-0.2-0.8-0.6-1.2-0.8C290.7,529.3,290.7,529.1,290.8,528.9z"/>
<path fill="#FFFFFF" d="M102.2,209.7c-4.6-2.6-10-3.5-14.5-6.3c0-0.2,0.1-0.4,0.1-0.7c0.9-0.1,1.7-0.2,2.6-0.1
	c4,0.2,7.9,0.3,11.9,0.6c1.8,0.2,3.7,0.7,5.3,1.5c2.6,1.2,3,3.6,1.2,5.9c-3.1,4.1-10.5,5.5-14.9,2.8c-0.4-0.3-0.9-0.5-1.2-0.9
	c-0.3-0.5-0.7-1.2-0.6-1.8c0.2-0.9,1-1,1.8-0.9c1.9,0.2,3.9,0.4,5.8,0.5c0.8,0.1,1.6,0,2.4,0C102.2,210.1,102.2,209.9,102.2,209.7z"
	/>
<path fill="#FFFFFF" d="M245.3,447.5c-1,0.3-1.9,0.7-2.9,0.7c-3.5,0.1-6.9-0.5-10.1-1.8c-1.2-0.5-2.4-0.9-3.6-1.3
	c-1.4-0.5-2.7-1.3-3.6-2.6c-0.5-0.7-1.3-1.3-2-1.8c-1.7-1.3-3.4-2.4-5.1-3.7c-0.8-0.6-1.3-1.4-2-2.2c1.1-1,2-0.6,2.8-0.3
	c5.3,1.4,10.1,3.7,14.5,7c1.2,0.9,2.5,1.4,3.9,1.7c2,0.5,3.9,1,5.8,1.7C243.9,445.2,244.9,445.7,245.3,447.5z"/>
<path fill="#FFFFFF" d="M123,98.8c-1.4,1-2.6,0.6-3.9,0.5c-4-0.3-7.9-0.6-11.9-0.8c-4.1-0.2-8.1,0.5-11.7,2.7c-1.2,0.7-3,0.7-5.5,0
	c0.9-0.6,1.5-1.1,2.2-1.4c7.2-3,14.6-5.4,22.2-6.9c1.6-0.3,2.8,0,3.9,1C120.1,95.4,122.1,96.5,123,98.8z"/>
<path fill="#FFFFFF" d="M231.8,435c0.6-0.2,1.2-0.5,1.8-0.5c4-0.3,7.9,0.1,11.7,1.6c0.9,0.4,2,0.8,2.6,1.5c1.2,1.3,2.7,1.6,4.3,1.9
	c2.5,0.5,4.9,1,7.4,1.6c0.9,0.2,1.8,0.7,2.6,1.6c-0.5,0.2-1,0.5-1.5,0.5c-7.6,0.4-14.9-0.5-21.6-4.6c-0.8-0.5-1.7-0.7-2.5-1.1
	c-1.5-0.6-3.1-1.1-4.6-1.7C231.8,435.6,231.8,435.3,231.8,435z"/>
<path fill="#FFFFFF" d="M580.7,522.3c4.6-2.1,25.7-2.9,31.2-1.3c-0.5,1.2-1.6,1.1-2.5,1.2c-3.1,0.6-6.2,1.1-9.3,1.4
	c-4.1,0.4-8.3,0.6-12.4,0.8C585.3,524.5,583.1,523.8,580.7,522.3z"/>
<path fill="#FFFFFF" d="M272.2,139.2c1.3-0.3,2.1-0.6,2.8-0.6c3.9,0.2,7.4,1.6,10.2,4.5c1.8,1.8,2.2,3.9,1.4,6.3
	c-0.5,1.3-1.6,1.5-2.5,0.5c-0.2-0.2-0.3-0.4-0.4-0.6c-0.7-2.4-2.7-3.5-4.8-4.6c-1.6-0.8-3-1.8-4.4-2.9
	C273.7,141.3,273.2,140.4,272.2,139.2z"/>
<path fill="#FFFFFF" d="M233.8,466.1c3.9-0.9,16.7,4.9,19.3,8.6c-0.7,0.7-1.6,0.4-2.3,0.3c-4.4-0.7-8.7-2.1-12.7-4.2
	C236.2,469.8,234.8,468.3,233.8,466.1z"/>
<path fill="#FFFFFF" d="M392.3,527.6c-3.1-2.6-3.2-4.4-0.7-6.6c3-2.6,6.5-4.1,10.5-3.8c0.8,1.6-0.1,2.5-1,3.2
	C398.3,522.9,395.3,525.2,392.3,527.6z"/>
<path fill="#FFFFFF" d="M79.7,212.3c-0.3,0.7-0.4,1.4-0.8,1.8c-1.4,1.2-2.8,3-4.3,3.2c-1.9,0.2-3.6-1.5-4.9-3.1
	c-1-1.2-0.8-2.4,0.7-3.1c2.5-1.2,5.2-1.3,7.8-0.2C78.8,211,79.2,211.8,79.7,212.3z"/>
<path fill="#FFFFFF" d="M128.4,65.9c-2.2,2.5-8,3.6-12.9,2.5c-0.2-1.5,0.5-2.7,1.8-3.3c3.4-1.6,6.8-1.5,10.2,0
	C127.9,65.2,128.2,65.6,128.4,65.9z"/>
<path fill="#FFFFFF" d="M78.7,251.9c-2.9,0-5.5-0.6-7.9-2c-1-0.5-1.9-1.3-1.7-2.6c0.2-1.3,1.3-1.9,2.5-2.2c1.9-0.4,3.6,0,4.9,1.4
	C77.9,247.9,78.7,249.7,78.7,251.9z"/>
<path fill="#FFFFFF" d="M235,452c4-0.4,13.2,3.2,15.2,5.8C246.2,459.7,237.6,456.5,235,452z"/>
<path fill="#FFFFFF" d="M219.8,430c-1.2-0.1-2.2-0.1-3.1-0.4c-2.8-0.7-5.5-1.5-8.2-2.3c-2.2-0.7-3.5-2.3-5-4.2
	c1.6-0.8,2.9-0.2,4.1,0.2C213,425.1,217.9,427.7,219.8,430z"/>
<path fill="#FFFFFF" d="M68.5,236.1c0.7-0.2,1.1-0.5,1.6-0.5c3.1-0.1,6,0.5,8.8,1.9c0.9,0.4,1.9,0.9,1.8,2.2c-0.1,0.8-1.7,1.9-2.7,2
	C76,241.9,69.8,238.3,68.5,236.1z"/>
<path fill="#FFFFFF" d="M438.2,530.3c-2.8,4-6.5,6.1-9.9,8.4c-1.5-1.4-1.7-1.9-0.8-3.2c0.7-0.9,1.5-1.8,2.5-2.4
	c1.9-1.1,3.9-1.9,5.9-2.7C436.4,530.1,437,530.3,438.2,530.3z"/>
<path fill="#FFFFFF" d="M56.8,253.7c-2-0.3-3.7-1.1-4.9-2.6c-0.6-0.7-1.2-1.7-1.5-2.6c-0.6-1.7,0.1-3.6,1.2-3.9
	c1-0.3,2.1,0.3,3.1,2.1C55.9,248.9,56.7,251.2,56.8,253.7z"/>
<path fill="#FFFFFF" d="M401.8,525.7c-0.5,1.2-0.8,2-1.3,2.7c-0.7,1-1.6,2-2.3,3c-1.1,1.6-2.7,1.5-4.3,1c-1.2-0.4-1.5-1.2-0.8-2.1
	c1-1.1,2.1-2.2,3.3-3C397.8,526.4,399.3,525.6,401.8,525.7z"/>
<path fill="#FFFFFF" d="M260.9,489.4c3-1.6,5.4-1.5,7.8-0.3c1.5,0.8,1.7,1.7,0.7,4.1C266.6,492.4,263.5,492.2,260.9,489.4z"/>
<path fill="#FFFFFF" d="M305.9,493c-3,3.4-7.2,4-10,1.1C297.9,491.9,303.6,491.3,305.9,493z"/>
<path fill="#FFFFFF" d="M415.2,524.7c-1.9,3.4-4.5,5.2-8,6.3c-0.6-2.3,0.6-3.8,2.1-5.1C410.9,524.6,412.6,523.5,415.2,524.7z"/>
<path fill="#FFFFFF" d="M198,369.4c-2.4-1-4.6-1.7-6.6-2.7c-0.6-0.3-0.9-1.3-1.3-1.9c0.7-0.4,1.4-1,2.1-1.2
	C195.3,363.1,197.8,365.4,198,369.4z"/>
<path fill="#FFFFFF" d="M96.9,302.9c2-1.7,6.5-2,9-0.6C104.2,305.8,99.2,305.9,96.9,302.9z"/>
<path fill="#FFFFFF" d="M143.2,380.7c-3.7-1.6-7.6-2.8-10.5-6.2C136.2,373.7,140.8,376.4,143.2,380.7z"/>
<path fill="#FFFFFF" d="M414,536.1c-2.4-1.3-2.5-2.2-0.8-3.8c1.6-1.5,3.6-2.2,5.7-1.9C418,533,415.9,534.5,414,536.1z"/>
<path fill="#FFFFFF" d="M127,369.8c-3-1.7-6.2-3-8-6.3C122.1,362.5,125.6,365.2,127,369.8z"/>
<path fill="#FFFFFF" d="M249.9,510.5c-1.8-0.7-3.5-1.2-4.2-3c1.3-1.5,3.5-2,4.9-1.3c0.9,0.4,1.3,1.2,0.8,2.1
	C251.1,509.1,250.5,509.7,249.9,510.5z"/>
<path fill="#FFFFFF" d="M218.7,487.2c1.6-1.9,4.7-2.8,7.6-2.2C225.6,488.4,221.3,489.1,218.7,487.2z"/>
<path fill="#FFFFFF" d="M172.7,420.8c3.9,0,7.2,0.6,10.8,2.1C180.4,424.7,175.6,423.8,172.7,420.8z"/>
<path fill="#FFFFFF" d="M272.7,524.1c1.5-1.3,4-1.8,5.5-1c1.2,0.6,1.2,1.4,0.3,3.1C275.5,526.2,274.1,525.7,272.7,524.1z"/>
<path fill="#FFFFFF" d="M51.8,190.3c-0.2,1.7-1.3,2.5-2.3,3.2c-0.9,0.6-3.6-0.4-3.9-1.4c-0.1-0.4,0.2-1,0.5-1.2
	C47.9,189.8,49.7,189.3,51.8,190.3z"/>
<path fill="#FFFFFF" d="M222.6,470.5c2.2-1.3,4.2-1.1,6.1-0.4c0.5,0.2,1.2,1.2,1.1,1.3c-0.4,0.6-1.2,1.6-1.7,1.5
	C226.2,472.6,224.3,472.1,222.6,470.5z"/>
<path fill="#FFFFFF" d="M196.1,428.1c-2.8,1.5-6.5,0.4-9.1-2.7C190.3,425.6,193.2,426.2,196.1,428.1z"/>
<path fill="#FFFFFF" d="M246.8,485.5c3.2-0.5,5.9-0.8,8.5,0.6C253.6,488.6,250.3,488.4,246.8,485.5z"/>
<path fill="#FFFFFF" d="M429.2,528.7c-2.4,3-4.7,5.1-8.3,5.2C421.7,532,425.5,529.5,429.2,528.7z"/>
<path fill="#FFFFFF" d="M87.7,221.2c-1.8-0.4-3.6-0.5-4.8-2c1.3-1.4,3.6-1.9,5-1.3c0.8,0.4,1.1,1,0.8,1.8
	C88.5,220.3,88,220.7,87.7,221.2z"/>
<path fill="#FFFFFF" d="M75.2,258.5c-2.7-1.1-5.3-1.6-7.3-3.8c1.8-1.2,3.3-0.4,4.8,0.2C74.1,255.5,75.2,256.4,75.2,258.5z"/>
<path fill="#FFFFFF" d="M81.1,224.1c0,1.3-0.4,1.7-1.8,1.8c-1.6,0.1-2.5-0.5-2.5-1.4c0-1.1,1.5-2.5,2.6-2.6
	C80.4,221.8,81.1,222.6,81.1,224.1z"/>
<path fill="#FFFFFF" d="M492.2,497.9c-1-0.4-1.8-0.6-2.5-1c-0.9-0.6-1-1.5-0.1-1.9c1.1-0.5,2.3-0.9,3.5-1c1.1-0.1,1.5,0.7,0.9,1.7
	C493.6,496.4,493,497,492.2,497.9z"/>
<path fill="#FFFFFF" d="M329.6,448.8c-1.5,0.5-2.9,0.9-4-0.2c-0.8-0.8-0.3-1.8,0.3-2.5c0.6-0.8,1.4-1.4,2.4-0.8
	C329.7,446,329.4,447.5,329.6,448.8z"/>
<path fill="#FFFFFF" d="M456.5,554.6c1.9-1.8,3.9-2.1,6-1.1C461.2,556.6,458.9,557.1,456.5,554.6z"/>
<path fill="#FFFFFF" d="M126.6,389.4c-2.9-1.6-6.1-4.6-7.3-6.8C121.8,382.8,125.1,385.7,126.6,389.4z"/>
<path fill="#FFFFFF" d="M301.4,502c-4.2,0.6-8.3,0.5-12.4-0.9C293.2,500.8,297.3,501.1,301.4,502z"/>
<path fill="#FFFFFF" d="M256.4,469.5c-1.8-0.4-3.8-0.4-5.2-2c1.3-1.3,3.1-1.6,4.5-0.8C256.7,467.3,256.8,467.9,256.4,469.5z"/>
<path fill="#FFFFFF" d="M364,518.5c2-2.3,4.5-3.7,7.3-4.6C369.4,516.3,367.5,518.7,364,518.5z"/>
<path fill="#FFFFFF" d="M134.3,307.5c-1.3-0.4-2.2-0.5-2.8-0.9c-1.3-0.8-1.3-2.5-0.1-3.4c0.7-0.6,1.6-0.5,1.9,0.3
	C133.8,304.5,133.9,305.8,134.3,307.5z"/>
<path fill="#FFFFFF" d="M542.2,519.5c1.2,1.6,0.3,2.8,0.2,3.9c-0.2,0.1-0.3,0.3-0.5,0.3c-0.9,0.1-2,0.4-2.5-0.6
	c-0.6-1.1,0.3-1.9,1-2.6C540.9,520.1,541.5,519.9,542.2,519.5z"/>
<path fill="#FFFFFF" d="M337.1,529.8c0.5-2,1.1-3.6,3.1-4.3C341.7,528.2,340.6,529.7,337.1,529.8z"/>
<path fill="#FFFFFF" d="M342,460.2c-1.6-0.4-2.9-0.6-4.2-1c-0.4-0.1-0.9-0.8-0.8-1.1c0.2-0.5,0.7-1,1.1-1.1
	C339.7,456.6,341.1,457.7,342,460.2z"/>
<path fill="#FFFFFF" d="M570.9,517.7c1.6,2.5,1.1,3.9-1.1,4c-0.9,0-1.4-0.5-1.2-1.4C568.9,519.2,569.4,518.1,570.9,517.7z"/>
<path fill="#FFFFFF" d="M118.7,348c0.8-1.4,2.1-1.6,3.4-1.5c0.4,0,1.1,0.8,1.1,1c-0.2,0.6-0.7,1.5-1.1,1.6
	C120.9,349.3,119.7,349.1,118.7,348z"/>
<path fill="#FFFFFF" d="M518.2,480.3c1,1.5,0.7,2.8,0.4,4.3c-1.2,0.3-2.1,0.1-2.5-1.1C515.8,482.4,516.4,481.4,518.2,480.3z"/>
<path fill="#FFFFFF" d="M199.2,455.9c-2.7-0.7-4.9-1.3-6.9-2.8C194.8,452.6,197,453.4,199.2,455.9z"/>
<path fill="#FFFFFF" d="M228.8,414.4c1.5,0.4,2,1.6,2.6,2.9c-1.2,0.6-2.1,0.2-2.8-0.5C228,416.1,227.7,415.3,228.8,414.4z"/>
<path fill="#FFFFFF" d="M92.9,289.5c1.9-1,3.5-0.8,5.4-0.5C96.2,291.1,95.3,291.2,92.9,289.5z"/>
<path fill="#FFFFFF" d="M119,186.6c0.3-0.4,0.5-0.8,0.9-1c0.7-0.4,1.6-1.1,2.2-0.2c0.3,0.4,0,1.4-0.3,2c-0.6,1-1.4,0.6-2.1,0.1
	C119.4,187.3,119.3,187.1,119,186.6z"/>
<path fill="#FFFFFF" d="M233.1,503.3c-1.8,1.2-2.7,1.3-2.8,0.5c0-0.7,0.3-1.8,0.8-2.1C232.5,500.9,232.6,502.3,233.1,503.3z"/>
<path fill="#FFFFFF" d="M220.2,410.6c-1.2,0-1.9,0.1-2.5,0c-0.4-0.1-0.9-0.6-0.9-1c0-0.4,0.3-0.9,0.7-1.2c0.4-0.2,1.1-0.3,1.4,0
	C219.3,408.9,219.6,409.6,220.2,410.6z"/>
<path fill="#FFFFFF" d="M223.3,455.7c-1.6,0.3-2.8,0-3.9-0.9C220.9,453.2,221.6,453.4,223.3,455.7z"/>
<path fill="#FFFFFF" d="M45.8,219.9c0.4,1.2,0.8,2.2,1.1,3.2c-1.2,0.5-1.9,0.2-2.2-0.6C44.4,221.6,44.5,220.7,45.8,219.9z"/>
<path fill="#FFFFFF" d="M100,65.2c0.8-1.5,1.9-2.2,3.5-2.6C102.7,65,102.7,65,100,65.2z"/>
<path fill="#FFFFFF" d="M176.3,427.3c-0.6-0.1-1.2,0-1.7-0.2c-0.4-0.2-0.6-0.8-0.9-1.2c0.5-0.2,1.1-0.7,1.5-0.5
	c0.6,0.2,1,0.9,1.5,1.4C176.6,426.9,176.5,427.1,176.3,427.3z"/>
<path fill="#FFFFFF" d="M217.2,497.1c1.5-0.6,2.7-0.5,3.7,0.3C219.7,498.9,219.5,498.9,217.2,497.1z"/>
<path fill="#FFFFFF" d="M357.6,516.1c0.3,2.5,0.3,2.5-1.7,3.5C356.1,518.3,356.4,517.1,357.6,516.1z"/>
<path fill="#FFFFFF" d="M404.5,500.4c0.9-1.1,1.9-1,3.2-1C406.5,501.3,406.5,501.3,404.5,500.4z"/>
<path fill="#FFFFFF" d="M108.3,217.9c1.2,2,1.2,2-0.8,3c0.1-1.1,0.1-2.1,0.2-3C107.9,217.9,108.1,217.9,108.3,217.9z"/>
<path fill="#FFFFFF" d="M152.1,306.2c-1-0.5-1.8-0.8-2.8-1.2C151.6,303.8,152.2,304.1,152.1,306.2z"/>
<path fill="#FFFFFF" d="M39.6,228.1c0.2-1.1,0.3-1.9,0.5-3.2C41.5,227.2,41.5,227.2,39.6,228.1z"/>
<path fill="#FFFFFF" d="M349.8,529.7c-0.5,0.2-0.8,0.3-1.1,0.3c-0.3,0-0.6-0.1-1.2-0.3c0.5-0.7,0.8-1.3,1.4-2.2
	C349.3,528.5,349.5,529.1,349.8,529.7z"/>
<path fill="#FFFFFF" d="M236.2,493.8c-0.5,0.4-0.8,0.8-1.2,0.9c-0.2,0-0.6-0.4-0.9-0.6c0.3-0.4,0.6-0.8,1-1
	C235.2,493,235.6,493.5,236.2,493.8z"/>
<path fill="#FFFFFF" d="M397.2,538c-1.2,0.1-1.9,0.2-3,0.4C395.6,536.5,395.6,536.5,397.2,538z"/>
<path fill="#FFFFFF" d="M85.8,263.5c-0.6,0.9-1.1,1.4-1.7,0.7c-0.1-0.1,0.1-0.8,0.1-0.8C84.7,263.3,85.2,263.4,85.8,263.5z"/>
<path fill="#FFFFFF" d="M349,464.9c-0.7,0.3-1.3,0.3-1.6-0.5c-0.1-0.2,0.3-0.7,0.5-0.7C348.7,463.6,349,464.2,349,464.9z"/>
<path fill="#FFFFFF" d="M125,304.5c-0.5,0.4-0.7,0.6-0.9,0.6c-0.2,0-0.4-0.2-0.6-0.3c0.1-0.3,0.2-0.6,0.4-0.7
	C124.1,304,124.4,304.2,125,304.5z"/>
<path d="M166.2,289.9c-0.5-3.4-2-6.5-3.2-9.7c-1.2-3.2-3.4-5.9-3.7-9.9c0.9,0.3,1.5,0.3,1.9,0.6c1,0.7,2,1.5,3,2.4
	c5.3,5,10,10.5,14.3,16.4c0.5,0.6,0.9,1.2,1.3,1.9c1.2,2.1,1,2.9-1.2,3.9c-1.8,0.8-2.2,1.4-1.8,3.3c0.2,1.2,0.6,2.4,1.1,4.2
	c-1.3-1.2-2-2-2.9-2.7c-1.9-1.5-3-1.4-4.5,0.5c-0.1,0.1-0.1,0.1-0.2,0.2c-2.3,2.9-3.4,3-5.6,0.2c-1.6-2-3-4.1-4.1-6.4
	c-3.3-6.9-5.7-14.1-7-21.6c-0.3-1.9-0.3-3.8,0-5.9c0.2,0.4,0.5,0.9,0.7,1.3c2.4,6.5,5.5,12.7,9.1,18.6c0.6,1.1,1.4,2,2.2,3
	C165.8,290,166,289.9,166.2,289.9z"/>
<path d="M202.6,263.1c1.8,1.1,1.9,3,2.4,4.8c0.5,1.7,0.7,3.4,1.1,5.2c0.6-0.1,1-0.1,1.4-0.2c2.7-0.3,3.8,0.5,3.8,3.3
	c0,1.7-0.2,3.4-0.4,5c-0.1,0.9-0.2,1.8-0.2,2.8c0,2.8,0.4,3.5,3.2,4.6c-0.1,3-0.8,5.9-1.9,8.8c-0.2,0.6-0.6,1.2-1,1.7
	c-1,1.2-2,1.3-3,0.1c-0.9-1-1.4-2.3-2.1-3.4c-0.4-0.6-0.5-1.5-1.1-2c-3.4-2.7-4.4-6.5-5.1-10.5c-0.9-5.3-0.7-10.6,0.4-15.9
	C200.6,265,201,264.3,202.6,263.1z"/>
<path d="M217.3,206.2c0.5-0.9,1.2-1.8,1.5-2.8c0.8-2.6,1.5-5.2,2.1-7.8c0.5-1.9,0.9-3.7,2.7-5.4c0.2,0.9,0.4,1.5,0.4,2.1
	c-0.6,6.8-2.3,13.3-5.7,19.3c-0.5,0.9-1.2,1.7-1.9,2.4c-1.6,1.5-3.1,1.4-4.7-0.2c-1.3-1.3-2-3-2.1-4.8c-0.1-2.6-0.2-5.2,0-7.8
	c0.4-4.6,1.6-9,3.5-13.2c0.5-1.1,1.2-2.3,2-3.2c1.1-1.4,2.3-1.2,2.9,0.4c0.8,2.2,1.2,4.4,0.5,6.7c-1.2,3.7-2.3,7.4-2.3,11.4
	c0,1,0.2,1.9,0.3,2.9C216.8,206.1,217,206.1,217.3,206.2z"/>
<path d="M111.3,250.7c1,0.5,1.9,0.9,2.8,1.5c2,1.3,3.9,2.7,5.9,3.9c0.5,0.3,1.3,0.6,1.8,0.4c0.9-0.5,0.4-1.4,0.1-2
	c-0.8-1.5-1.7-2.9-2.6-4.3c-0.8-1.2-1.7-2.3-2.7-3.8c1.3,0.1,1.9,0.8,2.6,1.3c1.9,1.6,3.9,2.8,6.2,3.7c5.3,1.9,7.9,7.5,6.1,12.5
	c-1.4,3.9-4.8,5-7.9,2.2c-1.9-1.7-3.5-3.7-5.2-5.6c-2.1-2.3-4.2-4.6-6.2-7c-0.6-0.7-1-1.5-1.4-2.3
	C110.9,251.1,111.1,250.9,111.3,250.7z"/>
<path d="M155.3,250.6c-1-0.2-2.1-0.2-3.1-0.5c-2.1-0.7-4.1-1.6-6.1-2.3c-2.2-0.8-4.4-1.6-6.7-2.2c-3.6-0.9-6.6-2.5-8.3-6
	c-0.7-1.4-1.6-2.6-2.2-4c-0.7-1.8,0-2.6,1.9-2.3c0.9,0.2,1.8,0.4,2.7,0.8c7.5,3.4,14.3,7.9,20.4,13.5c0.7,0.7,1.2,1.5,1.8,2.3
	C155.6,250.2,155.5,250.4,155.3,250.6z"/>
<path d="M140.5,209.8c0.8,1.2,1.8,2.5,2.5,3.8c1,1.7,2.3,2.9,3.9,3.8c1.5,0.9,3.1,1.8,4.6,2.7c0.7,0.4,1.5,0.8,2.1,1.4
	c0.7,0.6,1.5,1.3,1.6,2c0.1,1.1-1.1,1.2-2,1.5c-0.4,0.1-0.8,0.3-1.3,0.5c1.7,2.3,4.4,3.6,5.6,6.8c-1.1-0.2-1.9-0.3-2.6-0.6
	c-4.6-2-8.8-4.6-12.6-8C143.9,218.8,141.6,214.5,140.5,209.8z"/>
<path d="M119.1,240.1c4.6-0.4,18.8,9,19.9,13.3c-0.5,0.2-1,0.5-1.6,0.5c-3.5-0.1-6.8-0.6-9.3-3.6c-2.2-2.6-4.9-4.9-7.3-7.3
	C120.1,242.2,119.1,241.4,119.1,240.1z"/>
<path d="M297.7,436.6c-4.3-3-7.5-7-9.8-11.7c-1.1-2.4-2.3-4.8-1.7-7.7c1.7,0,2.2,1.1,3,2c1.2,1.3,2.3,2.7,3.4,4
	c2.8,3.4,4.7,7.2,5.8,11.4c0.1,0.5,0,1.1,0,1.7C298.1,436.3,297.9,436.5,297.7,436.6z"/>
<path d="M160,240.8c-1.1-0.1-1.8-0.1-2.4-0.3c-4-1.4-8-2.5-11.6-4.8c-1.4-0.9-3.1-1.1-4.8-1.6c-2.2-0.7-4.7-0.8-6.6-2.9
	c0.7-0.2,1.2-0.5,1.7-0.4c1.8,0.2,3.7,0.4,5.5,0.9c5.7,1.5,11,3.9,16,7c0.6,0.4,1.1,0.8,1.6,1.2C159.5,239.9,159.6,240.2,160,240.8z
	"/>
<path d="M246.3,355c-2.6-3.4-4.1-7.2-4.7-11.3c-0.1-0.9-0.4-2.2,0.8-2.6c1.2-0.4,1.9,0.6,2.4,1.5C247.5,346.5,247.7,350.7,246.3,355
	z"/>
<path d="M152.8,289.1c-2.1-0.4-2.8-2.2-3.8-3.6c-1-1.4-0.5-3.3,1-4c0.5-0.2,1.4-0.2,1.8,0.2C153.5,282.8,154.1,287,152.8,289.1z"/>
<path d="M153.6,213.7c0.8-1.6,1.3-3.3,3.2-3c1.7,0.2,2,1.9,2.3,3.3c0.1,0.3,0.2,0.7,0.2,1c-0.2,0.7-0.3,1.7-0.8,1.9
	c-0.4,0.3-1.5-0.1-2-0.5C155.4,215.7,154.5,214.6,153.6,213.7z"/>
<path d="M276,401.9c-2.4,0.5-3.1,0.1-4.1-1.7c-1.3-2.5-1.6-3.5-1.6-5.4C273,395.2,276,398.9,276,401.9z"/>
<path d="M227.3,263.7c0.8,4.7-0.4,9.1-2.1,13.9C224.3,273.6,225.4,265.9,227.3,263.7z"/>
<path d="M221.3,272c-1.4-2.2-1.2-6.3,0.4-10.1C222.7,264.3,222.4,269.5,221.3,272z"/>
<path d="M141.8,259.2c2.5,2.1,4.3,4,5.2,6.9C144,265.9,142.3,263.8,141.8,259.2z"/>
<path d="M139.1,282.6c-2.8-1.8-3.2-3.8-1.1-7.6C139.3,277.5,139.8,279.8,139.1,282.6z"/>
<path d="M254.1,378.7c-2.1-2.7-2.1-4,0.1-6.5C255.5,374.3,255.5,376.5,254.1,378.7z"/>
<path d="M188,262.3c1.3,2.9,1.5,5.9,0.5,7.8C187.5,268.5,187.2,264.4,188,262.3z"/>
<path d="M209.5,240.2c-2.6-2.3-2.9-5.2-3.9-7.8C207.3,233.9,208.8,237.1,209.5,240.2z"/>
<path d="M173.8,333.3c1.1-0.5,2-0.1,2.5,0.8c0.6,1,0.7,2-0.4,2.9C174.3,335.9,174.3,335.9,173.8,333.3z"/>
<path d="M137.9,260.6c0.4,1.7,0.3,2.7-0.8,3.1c-0.5,0.1-1.3-0.5-2.5-1.1C135.9,261.7,136.8,261.2,137.9,260.6z"/>
<path d="M235.4,307.8c0,1.7,0,3.4,0,5.1C234,311.3,234.4,309.5,235.4,307.8z"/>
<path d="M199.1,338.5c-1.5-0.4-2.7-1.2-3.2-3.3C197.6,336,198.4,337.2,199.1,338.5z"/>
<path d="M232.1,294.6c-0.3,1.3-0.5,2.6-0.9,4.5C230.4,297,230.5,296.8,232.1,294.6z"/>
<path d="M281.3,409.8c0.2,1.4,0.4,2.8,0.5,4.2c-0.2,0-0.5,0.1-0.7,0.1c-0.2-1.4-0.4-2.8-0.6-4.2
	C280.8,409.9,281.1,409.9,281.3,409.8z"/>
<path d="M203.6,227.2c-0.4-1.1-0.8-2.2-1.1-3.3c0.2-0.1,0.4-0.1,0.6-0.2c0.4,1.1,0.7,2.2,1.1,3.3C204,227.1,203.8,227.1,203.6,227.2
	z"/>
<path d="M134.2,203.5c-0.3-1-0.4-1.5-0.5-2c0.2,0,0.5-0.2,0.7-0.1C135.1,201.7,135.2,202.2,134.2,203.5z"/>
<path d="M376.6,485.1c-0.5,0-1,0-1.4,0c-0.1,0,0-0.6-0.1-0.8c0.5,0,1,0.1,1.5,0.1C376.6,484.6,376.6,484.8,376.6,485.1z"/>
<path d="M100.6,163.6c0-0.5-0.1-0.5,0-0.6c1.8-6.2,6-7.8,11.3-4.1c2.7,1.8,4.8,4.2,6.4,7.1c0.4,0.7,0.8,1.5,0.9,2.3
	c0.4,1.8-0.5,2.7-2.2,2.1c-1.8-0.6-3.6-1.4-5.2-2.5C108.4,165.5,104.9,163.6,100.6,163.6z"/>
<path d="M189.3,135.4c-0.2-2.9-0.2-5.6,0.6-8.2c1.1-3.4,3.5-4.3,6.4-2.2c2.6,1.8,4.3,4.3,5,7.4c0.7,2.9-0.7,4.7-3.8,4.9
	C194.7,137.4,192,136.5,189.3,135.4z"/>
<path d="M164.7,139.3c-0.8,0.5-1.6,1.2-2.4,1.5c-2.7,0.8-5.3,1.5-8,2.1c-0.6,0.1-1.5-0.1-2.1-0.4c-2.9-1.7-5.9-1.8-9-0.7
	c-2,0.7-3.9,1.6-5.9,2.3c-1.6,0.5-3.2,1.1-5.2-0.1c1.5-1.1,2.7-2.1,4.1-2.8c3.2-1.8,6.7-2.6,10.3-3.2c5.2-0.8,10.4-1.3,15.6-0.3
	c0.9,0.2,1.8,0.7,2.7,1C164.7,138.8,164.7,139.1,164.7,139.3z"/>
<path d="M119.9,157.1c-3.3,0.7-4.9-1.9-6.8-3.7c-0.3-0.3-0.3-1.1-0.1-1.6c0.5-1.5,1.9-2.4,3.8-2.3c2.9,0.2,5.6,1.2,7.7,3.3
	c1.7,1.6,1.3,3-0.9,3.7C122.4,156.8,121.1,156.9,119.9,157.1z"/>
<path d="M208.3,132.4c-0.3,1.5,0.2,3.4-1.4,4.7c-1-0.5-1.6-1.2-1.3-2.4c0.8-3.5,5.1-7.5,8.7-8c0.9-0.1,1.8,0.1,2.7,0.4
	c0.7,0.3,0.9,1.1,0.3,1.6c-0.8,0.7-1.7,1.4-2.7,1.8C212.6,131.3,210.5,131.8,208.3,132.4z"/>
<path d="M106.6,151.1c-1.3,2.7-2.3,3.1-4.7,1.9C103.6,151,104.4,150.7,106.6,151.1z"/>
<path d="M130.5,144.8c0.7,1.3,0.2,2.2-0.4,3c-0.2,0.3-0.9,0.2-1.4,0.4c-0.1-0.5-0.4-1.2-0.2-1.5C129,145.9,129.8,145.4,130.5,144.8z
	"/>
<path d="M121,412.4c-0.5-0.8-1-1.6-1.5-2.5C120.9,409.8,121,409.9,121,412.4z"/>
</svg>
