<?xml version="1.0" encoding="utf-8"?>
  
<!DOCTYPE svg PUBLIC "-//W3C//DTD SVG 1.1//EN" "http://www.w3.org/Graphics/SVG/1.1/DTD/svg11.dtd">
<svg version="1.1" id="Layer_1" xmlns="http://www.w3.org/2000/svg" xmlns:xlink="http://www.w3.org/1999/xlink" x="0px" y="0px"
	 viewBox="0 0 188 191" enable-background="new 0 0 188 191" xml:space="preserve">
<path fill="#4F8DF6" d="M93.4,181.9c-43.6,0-79.7-32-85.1-75.3C2.5,59.7,35.8,17.2,83,11.3c16.7-2.1,32.6,0.8,47.8,7.7
	c2.8,1.3,3.2,2.1,0.6,4.1c-2.5,1.9-4.6,4.4-5.7,7.3c-1.1,2.9-2.5,2.6-4.8,1.6c-15.8-6.7-31.9-7.5-48.3-2.7
	c-28,8.3-48.5,34.9-49.2,64.1c-0.9,37.3,24.1,67.5,61.2,72.3c40.3,5.1,72.2-23.5,77.7-57.9c2-12.6,1-24.9-3.8-36.8
	c-0.8-2-0.5-2.9,1.5-3.7c3.3-1.3,6.2-3.3,8.5-6c1.8-2.1,2.4-1.6,3.4,0.7c9.1,21.8,9.7,43.8,1.1,65.7
	C160.1,160.6,128.6,181.9,93.4,181.9z"/>
<path fill="#4F8DF6" d="M93.4,57.2c21.5,0,39,17.5,39,39.1c0,21.6-17.5,39-39.1,39c-21.6,0-39-17.5-39-39.1
	C54.3,74.6,71.8,57.2,93.4,57.2z"/>
<path fill="#4F8EF6" d="M131.5,42.6c0.1-9.6,8.3-17.6,17.9-17.5c9.8,0.1,18.1,8.5,17.9,18c-0.3,9.8-8.5,17.9-18.2,17.8
	C139.4,60.7,131.4,52.4,131.5,42.6z"/>
</svg>
