<?xml version="1.0" encoding="utf-8"?>
  
<!DOCTYPE svg PUBLIC "-//W3C//DTD SVG 1.1//EN" "http://www.w3.org/Graphics/SVG/1.1/DTD/svg11.dtd">
<svg version="1.1" id="Layer_1" xmlns="http://www.w3.org/2000/svg" xmlns:xlink="http://www.w3.org/1999/xlink" x="0px" y="0px"
	 viewBox="0 0 157 159.6" enable-background="new 0 0 157 159.6" xml:space="preserve">
<path fill="#4264FB" d="M78.1,3.9C37,4.1,3.8,37.4,3.8,78.2c0.1,41.4,33.3,74.7,74.4,74.6c40.8-0.1,74.6-33.7,74.5-74.2
	C152.6,37.4,118.8,3.6,78.1,3.9z M109,100.6c-16,12.4-34.7,15.2-54.2,14.3C42,114.3,42,114,41.7,101.3c0-1.5,0-3,0-4.5
	c0-17.8,3.2-34.7,14.5-49.2c9.7-12.4,22.6-17,37.6-13.6c15.4,3.5,25.3,13.8,29,29.1C126.4,78.4,121.4,91.1,109,100.6z"/>
<path fill="#4264FB" d="M86.6,48.1C83.5,59.7,76.2,66.5,64.9,70C76.5,73,83.2,80.5,87,91.7c3.1-11.8,10.8-18.2,21.8-21.9
	C97.1,66.7,90.4,59.2,86.6,48.1z"/>
</svg>
