<?xml version="1.0" encoding="utf-8"?>
  
<!DOCTYPE svg PUBLIC "-//W3C//DTD SVG 1.1//EN" "http://www.w3.org/Graphics/SVG/1.1/DTD/svg11.dtd">
<svg version="1.1" id="Layer_1" xmlns="http://www.w3.org/2000/svg" xmlns:xlink="http://www.w3.org/1999/xlink" x="0px" y="0px"
	 viewBox="0 98.1 612 603" enable-background="new 0 98.1 612 603" xml:space="preserve">
<ellipse fill="#FFFFFF" cx="331.5" cy="440.6" rx="209.2" ry="218"/>
<path d="M25.3,417.5c0-6.7,0-13.3,0-20c0.7-0.3,1.2-0.2,1.6,0.4c1.5,6.4,1.5,12.7,0,19.1C26.4,417.6,25.9,417.8,25.3,417.5z"/>
<path d="M26,397.5l-0.3,0l-0.3,0c0-6,0-12,0-18c0.7-0.3,1.2-0.1,1.6,0.5C27.9,385.9,29.3,391.8,26,397.5z"/>
<path d="M26.1,379.4l-0.4-0.1l-0.4,0.1c0-1.7,0-3.3,0-5c0.3-0.1,0.6-0.1,0.9-0.1C27.7,376.1,27.7,377.8,26.1,379.4z"/>
<path d="M25.3,417.5c0.3,0.1,0.6,0.1,0.8,0.1c1.6,1.6,1.6,3.3,0,5c-0.3,0-0.6,0-0.9,0C25.3,420.8,25.3,419.2,25.3,417.5z"/>
<path d="M583.9,358.5c-10.8-85-55.6-150.5-127.3-197.2c-42-27.3-88.4-41.6-138.6-43.3c-21.4-0.7-42.6-0.1-63.6,4
	c-59.1,11.5-109.8,38.8-151.3,82.3c-45.5,47.6-71,104.6-77,170.2c0,1.7,0,3.3-0.1,5c0.3,6,0.4,12.1-0.1,18.1
	c0,6.7,0.1,13.4,0.1,20.1c0,1.7,0,3.3,0,5c1.2,13.1,3,26.1,6.2,38.9c21.3,85.9,71.4,149.4,150.4,189.2
	c57,28.7,117.4,34.8,179.7,22.9c26.1-5,50.8-14,74.4-26.3c1.6-0.9,3.9-1.1,1.5-4c-7.7-9.8-15.3-19.7-22.7-29.8
	c-23.1-31.2-46.8-61.9-69-93.7c-32.7-46.9-64.3-94.7-96.4-142c-4.6-6.8-9.3-13.5-14.1-20.4c-1.4,1.8-0.9,3.2-0.9,4.4
	c-0.1,45.8-0.2,91.6-0.4,137.5c0,6.7-0.3,13.3-0.7,19.9c-0.4,6.2-3.7,9.3-9.9,9.4c-3.8,0.1-7.7,0-11.5,0c-8,0-11.7-3.8-11.7-11.9
	c0.1-70.5,0.1-141,0.2-211.5c0-5.6,4-10.1,9.6-10.6c2.1-0.2,4.3-0.2,6.5-0.2c18.9,0,15.4-0.6,24.4,13.1
	c71.3,107.6,142.4,215.3,213.5,323c2.2,3.3,3.5,4.5,7.4,1.7C556.5,564.5,598.5,473.1,583.9,358.5z M408.7,491.6
	c-0.4,0.1-0.8,0.2-1.2,0.2c-11.1-16.9-22.1-33.9-33.2-50.8c-1-1.5-0.9-3.1-0.9-4.8c0-33.6,0-67.3,0-100.9c0-11.8,0.2-23.6,0.3-35.5
	c0.1-10.4,3.3-13.6,13.8-13.6c3.3,0,6.7,0,10,0.2c7.4,0.3,10.8,4,10.9,11.3c0.1,49.8,0.2,99.6,0.3,149.4
	C408.8,462,408.7,476.8,408.7,491.6z"/>
</svg>
