<?xml version="1.0" encoding="utf-8"?>
  
<!DOCTYPE svg PUBLIC "-//W3C//DTD SVG 1.1//EN" "http://www.w3.org/Graphics/SVG/1.1/DTD/svg11.dtd">
<svg version="1.1" id="Layer_1" xmlns="http://www.w3.org/2000/svg" xmlns:xlink="http://www.w3.org/1999/xlink" x="0px" y="0px"
	 viewBox="86 168 452 400" enable-background="new 86 168 452 400" xml:space="preserve">
<path fill="#5FA04E" d="M286.8,551.3c-5.4,0-10.8-1.8-14.4-3.6l-44.8-26.9c-7.2-3.6-3.6-5.4-1.8-5.4c9-3.6,10.8-3.6,19.7-9
	c1.8,0,1.8,0,3.6,0L285,528c1.8,0,3.6,0,3.6,0l136.3-78.9c1.8,0,1.8-1.8,1.8-3.6V285.8c0-1.8,0-3.6-1.8-3.6l-136.3-78.9
	c-1.8,0-3.6,0-3.6,0l-136.3,78.9c-1.8,0-1.8,1.8-1.8,3.6v159.7c0,1.8,0,3.6,1.8,3.6l37.7,21.5c19.7,10.8,32.3-1.8,32.3-14.4V298.4
	c0-1.8,1.8-3.6,3.6-3.6h17.9c1.8,0,3.6,1.8,3.6,3.6v157.9c0,26.9-14.4,43.1-41.3,43.1c-7.2,0-14.4,0-32.3-9l-35.9-21.5
	c-9-5.4-14.4-14.4-14.4-25.1V284c0-10.8,5.4-19.7,14.4-25.1L270.6,180c9-5.4,19.7-5.4,28.7,0l136.3,78.9c9,5.4,14.4,14.4,14.4,25.1
	v159.7c0,10.8-5.4,19.7-14.4,25.1l-136.3,78.9C297.5,551.3,292.1,551.3,286.8,551.3z"/>
<path fill="#5FA04E" d="M329.8,441.9c-59.2,0-71.8-26.9-71.8-50.2c0-1.8,1.8-3.6,3.6-3.6h17.9c1.8,0,3.6,1.8,3.6,3.6
	c3.6,17.9,10.8,26.9,46.6,26.9c28.7,0,41.3-7.2,41.3-21.5c0-9-3.6-16.1-48.4-19.7c-37.7-3.6-61-12.6-61-41.3
	c0-28.7,23.3-44.8,62.8-44.8c43.1,0,66.4,14.4,68.2,48.4c0,1.8,0,1.8-1.8,3.6c0,0-1.8,1.8-3.6,1.8h-17.9c-1.8,0-3.6-1.8-3.6-3.6
	c-3.6-19.7-14.4-25.1-43.1-25.1c-32.3,0-35.9,10.8-35.9,19.7c0,10.8,3.6,12.6,46.6,17.9s62.8,14.4,62.8,43.1
	C398,425.7,372.9,441.9,329.8,441.9z"/>
<path fill="#5FA04E" d="M527.1,275.1c0,14.4-12.6,26.9-26.9,26.9c-14.4,0-26.9-12.6-26.9-26.9s12.6-26.9,26.9-26.9
	C516.4,248.2,527.1,260.7,527.1,275.1z M478.7,275.1c0,12.6,10.8,23.3,21.5,23.3c12.6,0,21.5-10.8,21.5-23.3
	c0-12.6-10.8-21.5-21.5-21.5C489.5,253.5,478.7,262.5,478.7,275.1z M491.3,260.7H502c3.6,0,10.8,0,10.8,7.2c0,5.4-3.6,7.2-5.4,7.2
	c3.6,0,3.6,3.6,5.4,7.2c0,1.8,0,7.2,1.8,7.2h-5.4c0-1.8-1.8-9-1.8-9c0-1.8-1.8-1.8-3.6-1.8h-5.4v12.6h-7.2V260.7z M496.6,273.3h3.6
	c3.6,0,3.6-3.6,3.6-3.6c0-3.6-3.6-3.6-3.6-3.6h-5.4L496.6,273.3L496.6,273.3z"/>
</svg>
