<?xml version="1.0" encoding="utf-8"?>
  
<!DOCTYPE svg PUBLIC "-//W3C//DTD SVG 1.1//EN" "http://www.w3.org/Graphics/SVG/1.1/DTD/svg11.dtd">
<svg version="1.1" id="Layer_1" xmlns="http://www.w3.org/2000/svg" xmlns:xlink="http://www.w3.org/1999/xlink" x="0px" y="0px"
	 viewBox="0 0 612 792" enable-background="new 0 0 612 792" xml:space="preserve">
<path fill="#FFFFFF" d="M562.3,308.5c-11.1,25.1,3.3,49.3,16.8,76.4c37,74.8-2.5,166.3-81.7,194.7c-13.1,4.5-21.4,11.1-27.5,24.2
	c-41.5,86.3-151.2,109.7-223.9,48.1c-10.7-9-20.1-12.7-34.9-11.5c-95.7,7.8-171.7-77.2-153.2-171.7c2.5-12.7,0.8-21.4-6.6-31.6
	c-67-92.8-2.5-196.7,71.1-219.7c13.6-4.1,19.7-11.9,25.5-23.4c27.9-54.2,73.9-81.7,133.9-83.4c32-0.8,62,12.3,86.3,33.3
	c13.6,11.9,27.1,14.8,44.4,14C497,154.9,563.1,219.8,562.3,308.5z M133.9,255.5c-6.6,1.6-9.9,2.1-12.7,3.7
	c-35.3,18.9-55.9,48.5-58.3,88.3c-2.5,41.5,14.8,75.2,50.1,97.3c35.3,22.2,71.9,42.3,108.4,62.8c4.9,2.9,12.7,5.3,16.8,3.3
	c14-6.2,26.7-14.8,42.3-23.8c-7.8-5.3-11.9-8.6-16.4-11.5c-33.7-19.7-67-40.3-101.5-57.9c-21.4-11.1-32.4-25.1-29.2-49.7
	c1.6-14,0.4-28.8,0.4-43.1C133.9,301.9,133.9,279.8,133.9,255.5z M246.4,331.1c9.9-4.9,16.4-8.2,22.6-11.5
	c36.1-20.5,72.7-41.1,108.4-62.4c13.6-8.2,24.6-8.2,37.8,0c30.4,18.5,61.2,35.7,92.4,53.4c4.5,2.5,9.4,3.7,15.2,6.2
	c1.2-5.3,2.1-8.6,2.5-11.9c3.3-78.5-79.7-134.7-151.2-100.6c-41.1,19.3-79.3,43.9-118.3,66.5c-4.5,2.5-8.6,9-9,14.4
	C245.6,299.1,246.4,313.4,246.4,331.1z M485.1,543.5c7.4-2.9,11.1-3.7,14.8-5.8c70.2-38.2,74.8-138.8,7.4-182.8
	c-36.1-23.4-74.3-43.9-111.7-64.9c-4.5-2.5-12.3-4.1-16.8-2.1c-13.6,6.2-25.9,14.4-41.9,23.4c9,5.8,14.4,9.4,20.1,12.7
	c33.7,19.7,67,40.3,101.5,58.3c20.1,10.7,28.8,23.4,27.5,46.8C483.8,465.8,485.1,502.8,485.1,543.5z M347.5,174.2
	c-9-5.8-13.6-9.4-18.9-12.3c-67.4-35.3-149.5,8.2-156.1,83.4c-3.3,36.6-1.2,73.5-1.6,110.5c0,39,5.8,46.4,47.6,58.7
	c0.4-7,1.2-13.6,1.2-20.1c0-40.3,0.8-80.5,0-120.8c-0.4-18.9,6.2-30.4,22.6-39.4C276.8,216.1,309.7,196,347.5,174.2z M268.6,624.8
	c14.8,7.4,23.8,13.6,33.7,17.3c69.4,24.6,140.9-23.4,144.2-97.8c1.6-41.1,0.8-82.1,0-123.2c0-6.2-2.9-14.4-7.4-17.7
	c-11.9-8.6-25.5-14.8-41.5-24.2c0,11.1,0,17.7,0,24.2c0,40.3-0.8,80.9,0.4,121.2c0.8,19.3-6.6,30-23,39
	C341.3,581.7,308.1,601.8,268.6,624.8z M95.7,479c-1.2,6.6-2.1,9.9-2.5,12.7c-4.1,82.6,82.6,137.2,157.7,99
	c30.8-16,60.8-34.5,90.8-51.8c32-18.5,37.4-32,25.5-71.1c-37.8,21.4-76,41.1-111.7,64.5c-24.6,16.4-44.4,15.6-68.6-0.8
	C158.5,512.2,127.3,497,95.7,479z M372.5,405.4c-3.7-21.8,6.6-41.9-16.8-51.8c-16-7-32.4-24.6-46.8-22.6
	c-20.1,2.9-39.4,18.1-57.1,30.4c-4.9,3.7-5.8,16-5.3,24.2c0.4,17.3-2.9,39.8,6.2,50.5c13.6,15.6,37,30.4,55.9,30.4
	c19.3,0,40.3-16.4,56.7-30C373,430.1,371.3,412.4,372.5,405.4z"/>
</svg>
