<?xml version="1.0" encoding="utf-8"?>
  
<!DOCTYPE svg PUBLIC "-//W3C//DTD SVG 1.1//EN" "http://www.w3.org/Graphics/SVG/1.1/DTD/svg11.dtd">
<svg version="1.1" id="Layer_1" xmlns="http://www.w3.org/2000/svg" xmlns:xlink="http://www.w3.org/1999/xlink" x="0px" y="0px"
	 viewBox="0 0 149 154" enable-background="new 0 0 149 154" xml:space="preserve">
<path d="M136.9,55.7c-2.7,6.1,0.8,12,4.1,18.6c9,18.2-0.6,40.5-19.9,47.4c-3.2,1.1-5.2,2.7-6.7,5.9c-10.1,21-36.8,26.7-54.5,11.7
	c-2.6-2.2-4.9-3.1-8.5-2.8c-23.3,1.9-41.8-18.8-37.3-41.8c0.6-3.1,0.2-5.2-1.6-7.7c-16.3-22.6-0.6-47.9,17.3-53.5
	c3.3-1,4.8-2.9,6.2-5.7c6.8-13.2,18-19.9,32.6-20.3c7.8-0.2,15.1,3,21,8.1c3.3,2.9,6.6,3.6,10.8,3.4C121,18.3,137.1,34.1,136.9,55.7
	z M32.6,42.8c-1.6,0.4-2.4,0.5-3.1,0.9c-8.6,4.6-13.6,11.8-14.2,21.5c-0.6,10.1,3.6,18.3,12.2,23.7c8.6,5.4,17.5,10.3,26.4,15.3
	c1.2,0.7,3.1,1.3,4.1,0.8c3.4-1.5,6.5-3.6,10.3-5.8c-1.9-1.3-2.9-2.1-4-2.8c-8.2-4.8-16.3-9.8-24.7-14.1c-5.2-2.7-7.9-6.1-7.1-12.1
	c0.4-3.4,0.1-7,0.1-10.5C32.6,54.1,32.6,48.7,32.6,42.8z M60,61.2c2.4-1.2,4-2,5.5-2.8c8.8-5,17.7-10,26.4-15.2c3.3-2,6-2,9.2,0
	c7.4,4.5,14.9,8.7,22.5,13c1.1,0.6,2.3,0.9,3.7,1.5c0.3-1.3,0.5-2.1,0.6-2.9c0.8-19.1-19.4-32.8-36.8-24.5
	C81.1,35,71.8,41,62.3,46.5c-1.1,0.6-2.1,2.2-2.2,3.5C59.8,53.4,60,56.9,60,61.2z M118.1,112.9c1.8-0.7,2.7-0.9,3.6-1.4
	c17.1-9.3,18.2-33.8,1.8-44.5c-8.8-5.7-18.1-10.7-27.2-15.8c-1.1-0.6-3-1-4.1-0.5c-3.3,1.5-6.3,3.5-10.2,5.7
	c2.2,1.4,3.5,2.3,4.9,3.1c8.2,4.8,16.3,9.8,24.7,14.2c4.9,2.6,7,5.7,6.7,11.4C117.8,94,118.1,103,118.1,112.9z M84.6,23
	c-2.2-1.4-3.3-2.3-4.6-3C63.6,11.4,43.6,22,42,40.3c-0.8,8.9-0.3,17.9-0.4,26.9c0,9.5,1.4,11.3,11.6,14.3c0.1-1.7,0.3-3.3,0.3-4.9
	c0-9.8,0.2-19.6,0-29.4c-0.1-4.6,1.5-7.4,5.5-9.6C67.4,33.2,75.4,28.3,84.6,23z M65.4,132.7c3.6,1.8,5.8,3.3,8.2,4.2
	c16.9,6,34.3-5.7,35.1-23.8c0.4-10,0.2-20,0-30c0-1.5-0.7-3.5-1.8-4.3c-2.9-2.1-6.2-3.6-10.1-5.9c0,2.7,0,4.3,0,5.9
	c0,9.8-0.2,19.7,0.1,29.5c0.2,4.7-1.6,7.3-5.6,9.5C83.1,122.2,75,127.1,65.4,132.7z M23.3,97.2c-0.3,1.6-0.5,2.4-0.6,3.1
	c-1,20.1,20.1,33.4,38.4,24.1c7.5-3.9,14.8-8.4,22.1-12.6c7.8-4.5,9.1-7.8,6.2-17.3c-9.2,5.2-18.5,10-27.2,15.7
	c-6,4-10.8,3.8-16.7-0.2C38.6,105.3,31,101.6,23.3,97.2z M90.7,79.3c-0.9-5.3,1.6-10.2-4.1-12.6c-3.9-1.7-7.9-6-11.4-5.5
	c-4.9,0.7-9.6,4.4-13.9,7.4c-1.2,0.9-1.4,3.9-1.3,5.9c0.1,4.2-0.7,9.7,1.5,12.3c3.3,3.8,9,7.4,13.6,7.4c4.7,0,9.8-4,13.8-7.3
	C90.8,85.3,90.4,81,90.7,79.3z"/>
</svg>
