<?xml version="1.0" encoding="utf-8"?>
  
<!DOCTYPE svg PUBLIC "-//W3C//DTD SVG 1.1//EN" "http://www.w3.org/Graphics/SVG/1.1/DTD/svg11.dtd">
<svg version="1.1" id="Layer_1" xmlns="http://www.w3.org/2000/svg" xmlns:xlink="http://www.w3.org/1999/xlink" x="0px" y="0px"
	 viewBox="0 0 156 262" enable-background="new 0 0 156 262" xml:space="preserve">
<path fill="#FCE22D" d="M137,26.5c2.4,1.8,2.3,4.7,2.9,7.2c0.9,2.7,2,5.3,2.5,8.1c0,3.8-0.5,7.7,1.8,11.1c0.3,3.4,3.1,6,3.3,9.5
	c1.5,5.9,3.2,11.7,2.4,17.9c-0.5,3.4-1.1,6.8-4.1,9.1c-4.1,3.7-9.1,5.9-13.9,8.4c-2.4,0.5-5.1,4.1-6.9-0.7c0-0.5,0-1,0.1-1.5
	c0.7-3,0.4-6,0.4-9c-0.4-3.4-2-6.2-4.1-8.7c-2.3-2.7-2.7-5.1,0.2-7.5c8.1-7,11.3-16,10.9-26.5c-0.1-2.1-1.5-3.6-2.2-5.5
	c-1.6-5.2-3.9-10-9.1-12.7c-3-1.8-6.5-1-9.6-2.1c-1.9-2.3,0.2-3.1,1.5-4.1c2.5-1.7,5.5-2,8.4-1.8c1.1,0.1,2.1,0.3,3.2,0.4
	c3.6,1.6,8,1.8,9.6,6.4c-0.5,0.7-1.5,0.7-1.9,1.1c-0.9,0.9,0.7,1.2,0.9,1.9c0.2-0.5-0.2-0.9-0.1-1.4c0.1-0.5,0.4-0.9,0.8-1.2
	C135.6,24.6,136.4,25.4,137,26.5z"/>
<path fill="#ECC901" d="M46.3,16.2c0.6-0.6,1.2-1.1,1.7-1.7c7-5.7,14.8-6.2,23.1-3.3c-0.7,2.7-3,1.8-4.7,2.1
	c-3.8,0.8-7.7,1.4-9.9,5.3c-5.4,3.8-8.9,9.2-12.2,14.8c-4.4,4-3.2,9.6-3.5,14.5c-0.2,3,0.4,6.3,1.1,9.3c0.8,3.9,0.4,7.5-1.6,11.1
	c-1.8,3.2-2.6,6.8-2.4,10.5c0.2,0.8,0.3,1.5,0.3,2.3c-0.1,1.9,0.5,4.3-1.7,5.2c-2.1,0.8-3-1.5-4.4-2.5c-3.6-2.8-7.3-5.5-9.9-9.4
	c-0.9-1.4-1.2-2.9-1.2-4.6c0.1-2.4-0.3-4.8,0.5-7.1c1.9-7.6,5.8-14.3,10.1-20.7c1.3-2,2-4.1,2.4-6.4c1.9-2.9,2.6-6.5,5-9.2
	C41.9,23.2,43.6,19.3,46.3,16.2z"/>
<path fill="#0A0A05" d="M28.8,254.1c-7.3-1-13.5-4.1-18.6-9.4c-5.6-5.8-5.2-9.5-0.3-16.1c7.4-9.9,16.1-19,19.1-31.6
	c2.7,0.5,2,2.7,2.2,4.5c-2.5,11-8.9,19.8-15.9,28.3c-4.9,6-4.9,8,0.8,13.6c4.1,4,9.7,4,14.3,6.6c5.4,1.5,10.9,0.4,16.3,0.8
	c2.2,0.2,4.6-0.4,6.6,2.3C45,255.5,36.9,254.5,28.8,254.1z"/>
<path fill="#AEB5B4" d="M132,147c-3.4,2.1-6.3,5.1-10.7,5c-2.5,1.5-5.3,1.4-8.1,1.5c-2.1,0.4-4.2,1.2-6.4,0.5
	c-8.2-1.6-13.7-7.5-20-12.2c-5.1-1.3-10.4,0.7-15.4-1.3c-0.5-0.4-0.6-0.9-0.5-1.5c7.3-2,14.4-3.1,21.2,1.6c0.7,0.5,1.5,0.8,2.3,0.9
	c5.9,4.6,12.3,7.4,20,7.2c9.7-0.2,17.9-6.3,20.4-15.7c0.3-1,0.3-2,0.9-2.8c0.4-0.4,0.8-0.5,1.4-0.4c1.3,1,1.3,2.6,1.7,4
	C138.4,139.2,134.8,142.9,132,147z"/>
<path fill="#24210B" d="M23,74c4.4,3.9,8.7,7.8,13.6,12.2c0.2-2.1,0.4-3.6,0.6-5.1c3.6,1.4,1.2,5.5,3.4,7.6c0.3,0.8,0.3,1.5,0.2,2.3
	c-0.2,0.8-0.7,1.4-1.5,1.7c-0.5,0.2-1,0.3-1.5,0.4c-3.3-0.2-6.4,0.8-9.6,1.5c-0.5-0.1-1-0.3-1.3-0.7c2.8-7.4-2.4-12.8-4.9-18.8
	C21.6,74.1,22.1,73.9,23,74z"/>
<path fill="#1E1B07" d="M28.8,254.1c7.7-0.7,15.5,1.1,23.1-2.1c-5.8,0-11.7,0-17.5,0c-2,0-4.1,0.3-5.4-1.8c0.5-0.8,1.3-1,2.1-1.1
	c12.5,1.1,25,1.6,36.1-6c1.4,0,3.2-1.8,3.9,0.9c-3,4.8-7.9,7.1-12.9,8.6C48.5,255.5,38.7,256.6,28.8,254.1z"/>
<path fill="#221F0C" d="M71,244c-1-1.3-2,0.3-3-0.1c-0.5-2.5,1.5-3.6,2.9-4.8c7.8-7.3,12.5-16.5,16.8-26.1c0.8-1.8,0.9-4.5,3.9-4.3
	c2.2,2.4-0.5,4.4-0.5,6.6C85.4,225.6,81.8,237.3,71,244z"/>
<path fill="#131104" d="M30.8,185.7c-0.5-8.1,3.1-15.7,3.3-23.7c0.8-2.7,0.1-5.5,0.4-8.3c0.1-1.1-0.7-2.9,1.6-2.8
	c4.1,11,2.5,21.8-1.6,32.4c-0.8,1-1.2,2.4-2.1,3.2C31.5,187.3,30.5,187.5,30.8,185.7z"/>
<path fill="#2B2811" d="M126,96.9c0.2,1.1,0.1,2.6,2,1.6c1.2-0.6,2.4-1,3.6-1.6c0.9-0.4,1.8-0.6,2.5,0.5c0.1,1.6-1.4,2-2.1,2.9
	c-1.1,1.4-1.2,2.5,0.5,3.5c0.6,0.3,1,0.8,1.5,1.3c0,1,0.1,1.9,0.1,2.9c0.4,0.8-0.1,1.3-0.8,1.7c-2.7,0.7-4.2-1.3-5.8-2.9
	c-1.5-1.6-3.1-2.4-5.1-0.9c-2.6,1.5-4.2,3.8-5.5,6.4c-0.5,0.1-0.9,0.1-1.3-0.1c-0.9-1.2-1.1-2.7-1.2-4.1
	C117.9,103.8,120.8,99.1,126,96.9z"/>
<path fill="#25220F" d="M91.1,215.3c-1-2.1,2.1-4.3-0.1-6.4c-1.3-1.4-0.6-2.8-0.1-4.2c3-7.8,6.3-15.5,8.5-23.6
	c0.4-1.4,1-2.8,2.5-3.5c0.9,0.1,1.6,0.3,1.1,1.5c0,5.6-2.5,10.5-4.1,15.6C96.7,201.7,93.8,208.5,91.1,215.3z"/>
<path fill="#1C1A0B" d="M103.1,179.2c-0.4-0.4-0.7-0.8-1.1-1.2c-1.7-1.9-0.4-3.7,0.3-5.5c1.6-4.1,3.3-8.2,5-12.3
	c1-2.3,1.2-4.4-1.4-6c-0.3-0.4-0.3-0.9,0-1.3c2.3,0.1,4.6,0.1,7,0.2c0.4,0.2,0.5,0.4,0.4,0.6c-0.1,0.2-0.2,0.3-0.3,0.3
	c-1.6,5-2.3,10.2-4.7,14.9C106.5,172.3,104.8,175.8,103.1,179.2z"/>
<path fill="#6C6F6F" d="M132,147c-1.2-1-0.5-1.5,0.3-2.3c3.1-2.9,4.9-6.6,5.6-10.8c-0.6-3.8,0-7.8-0.9-11.6c-0.4-1.6,0-3.2,1.4-4.4
	c0.2-0.1,0.5-0.2,0.7-0.3C143.8,127.4,139.8,141.7,132,147z"/>
<path fill="#35300E" d="M134,105c-0.7,0-1.5-0.1-2.2-0.1c-1-2.7,0.9-4.3,2.4-5.8c1-1,0.2-1-0.3-1.4c-0.8-0.3-1.5-0.6-2.3-0.9
	c4.5-2.4,9.4-4.2,13.2-7.9c1.2-0.6,2.2-0.7,2.2,1.1C141.2,93.8,137.1,98.9,134,105z"/>
<path fill="#434441" d="M32.9,145.2c-8.7-2.5-15.7-7.1-18.7-16.2c0.6-0.7,0-2,1.4-2.2c0.2,0.1,0.4,0.1,0.4,0.2
	c3.9,7.9,10.3,12.8,18.5,15.5c0.5,0.1,0.6,0.7,0.7,1.2C34.8,144.8,33.9,145.1,32.9,145.2z"/>
<path fill="#685E23" d="M34,35.4c0.3,1.9,0,3.7-1,5.3c-4.4,6.9-8,14.1-10.9,21.7c-1-1.3-0.7-2.6-0.3-3.9c-0.7-3.5,1.9-5.9,3.4-8.4
	C28.3,45.2,31.2,40.4,34,35.4z"/>
<path fill="#1E1D13" d="M32.9,145.2c0.5-1,1.5-1,2.3-1.4c2-1.6,4.3-1.2,6.6-1c1.8,0.4,3.1,1.3,2.6,3.5c-0.6,1.1-1.6,1.1-2.6,1.1
	c-3.2-0.8-4.5,1.4-5.9,3.6c-2.5,3.4,0.6,7.6-1.8,11C34.1,156.3,33.8,150.7,32.9,145.2z"/>
<path fill="#4A4314" d="M71,11.9c-8.1-3.1-15.7-1.5-22.9,2.6c0.9-4.1,4.6-4.1,7.6-4.8c6.2-1.5,12.5-2.3,18.3,1.5
	c0.1,0.9-0.4,1.3-1.1,1.5C72.1,12.7,71.5,12.6,71,11.9z"/>
<path fill="#71692E" d="M149.1,81c0.3-6.4-1.2-12.7-2-19c0.3-0.4,0.6-0.4,1,0c2.5,7.2,4.2,14.5,2.2,22.1
	C148.8,83.4,150,81.9,149.1,81z"/>
<path fill="#302C16" d="M30.8,185.7c2.2,0.4,0.4-2.7,2.3-2.6c1.7,6.4,0.5,12.5-1.8,18.5c-0.2,0.5-0.8,0.4-1.3,0.4
	c-0.3-1.7,0.7-3.5-0.9-4.9C29.3,193.2,29.7,189.4,30.8,185.7z"/>
<path fill="#626461" d="M26.8,93.9c0.4,0,0.9,0.1,1.3,0.1c0.1,0.3,0.2,0.8,0,0.9c-4,3.9-7.2,8.5-11.5,12.2c-1.2-0.5-1.4-1.3-0.7-2.3
	C18.1,99.9,21.6,96.1,26.8,93.9z"/>
<path fill="#4B4625" d="M84.2,18.9c5.3,2.9,11.1,2.4,16.8,1.9c0.3,0.5,0.4,1,0.1,1.6c-2.5,2.8-5.8,1.6-8.8,1.9
	c-3.7-0.3-7.3-0.7-9.6-4.2C82.7,19.3,83,18.6,84.2,18.9z"/>
<path fill="#424340" d="M15.2,126.6c-0.3,0.8-0.7,1.5-1,2.3c-2.4-5.8-3.5-11.8-1-17.9c1.1-0.1,1.5,0.7,1.8,1.5
	C15.1,117.2,16.3,121.9,15.2,126.6z"/>
<path fill="#7C7027" d="M125,19c-1,0-1.9-0.1-2.9-0.1c-4.3-1.6-8.3,1.1-12.5,1c-1.3-0.3-2.6-0.7-3.4-1.9c2.1-1.1,4.4-1.4,6.7-1.8
	c3.1-0.4,6.1,0.2,9.2,0.1c1.7,0.5,3.4,1,5.1,1.5C126.9,18.9,125.7,18.4,125,19z"/>
<path fill="#5A521F" d="M125,19c0.4-0.9,1.4-1,2.2-1.2c4.1,2,9.1,3.1,9.9,8.8c-1-0.5-2-1.1-3-1.6c0,0,0.1,0.1,0.1,0.1
	C132.2,21.2,128.3,20.5,125,19z"/>
<path fill="#665C25" d="M46.3,16.2c-1.5,4.1-3.6,7.7-7.3,10.1C40.5,22.2,42.5,18.6,46.3,16.2z"/>
<path fill="#3D3818" d="M149.1,81c1.1,0.8,0.7,2.1,1.1,3.1c0.2,2.7-1.3,4.4-3.1,6c-0.4-0.9-1.3-1.1-2.2-1.1
	C148,87.2,147.8,83.7,149.1,81z"/>
<path fill="#7C8082" d="M139,117.5L139,117.5c-0.6,1.1-1.7,1.2-2.3,0.3c-1.6-2.7-4.1-5.1-3.9-8.6c0.4-0.4,0.8-0.9,1.2-1.3
	C136.4,110.8,137.7,114.2,139,117.5z"/>
<path fill="#3A3310" d="M23,74c-0.3,0.4-0.7,0.7-1,1.1c-3.6-3.2-1.5-7.4-1.8-11.1c3,1.3,0.3,4.2,1.7,6C22.2,71.3,22.6,72.6,23,74z"
	/>
<path fill="#534F34" d="M84.2,18.9c-0.4,0.3-0.8,0.6-1.2,0.9c-3.1,0.3-4.6-1.6-5.7-4.1c0-0.8,0.1-1.5,0.8-2.1
	C81,14.4,82.1,17.2,84.2,18.9z"/>
<path fill="#56502B" d="M143.8,53.1c-3.1-3.5-1.5-7.9-2-11.8c-0.5-1,0-1.2,0.9-1.2c0.5,4.4,0.2,8.8,2,13
	C144.5,53.5,144.2,53.5,143.8,53.1z"/>
<path fill="#544D1F" d="M143.8,53.1c0.3,0,0.6,0,0.9,0c1.4,2.9,3.6,5.5,3.3,9c-0.3,0-0.6,0-1,0C145.5,59.2,143.7,56.5,143.8,53.1z"
	/>
<path fill="#403D2F" d="M122.1,16.2c-3.1,1.3-6.1,1.2-9.2-0.1C116,13.1,119,15.6,122.1,16.2z"/>
<path fill="#544E24" d="M106.2,17.9c1,0.1,2.2-0.2,2.8,1c-2,2.8-4.5,4.2-8,3c0-0.4,0-0.8-0.1-1.1C102.7,19.9,104.4,18.9,106.2,17.9z
	"/>
<path fill="#676764" d="M14.1,112.2c-0.3-0.4-0.7-0.7-1-1.1c0.8-2.1,0.5-4.7,2.8-6.1c0.3,0.7,0.5,1.4,0.8,2.1
	c1.2,2.1,0.1,3.6-1.2,5.1C15.1,112.3,14.6,112.3,14.1,112.2z"/>
<path fill="#696234" d="M142.7,40c-0.3,0.4-0.6,0.8-0.9,1.2c-1.2-2.3-2.6-4.6-1.9-7.4C142.9,35,141.9,37.9,142.7,40z"/>
<path fill="#685F26" d="M21.8,69.9c-1.8-1.6,0.3-4.4-1.7-6c0.6-1.8,1.2-3.7,1.8-5.5c0.1,1.3,0.2,2.6,0.3,3.9
	C22.1,64.9,21.9,67.4,21.8,69.9z"/>
<path fill="#625A25" d="M78.1,13.7c0,0.8-0.1,1.6-0.1,2.4c-2.7,0-4.6-1.1-5.2-3.9c0.4-0.3,0.8-0.7,1.2-1
	C75.4,11.9,77.3,11.8,78.1,13.7z"/>
<path fill="#363736" d="M113,154c0-0.3,0-0.6,0-0.9c2.8-0.4,5.5-0.8,8.3-1.1C119.4,156.2,115.7,153.3,113,154z"/>
<path fill="#FDE22D" d="M126,96.9c-3.6,4-7,8.1-11.6,11c-1.2,1.7-3.2,2.1-4.8,3.1c-3.6,1.5-7.3,2.2-11,3.2
	c-15.7,3-30.3-0.7-44.2-7.9c-1.2-0.6-2.3-1.4-3.1-2.5c-2.2-4.6-5.8-8.5-6.6-13.9c-1.4-9.5,2.7-16.3,10.3-21.6
	c4-2.8,8.9-3.6,12.8-6.7c7-1.9,14-1.5,20.9-0.1c2.1,0.4,4.1,1,6.2,1.2c7.3,2,14.3,4.3,20.1,9.4c0.7,0.7,1.2,1.5,1.3,2.6
	c0.1,4.8,1.5,6.5,5.2,5.7c4.4,1.2,4.1,5.1,4.7,8.4c0.5,2.5-0.2,4.9-0.3,7.4C126,96.5,126,96.7,126,96.9z"/>
<path fill="#EBCA04" d="M101,22c2.7-1,5.3-2,8-3c4.4-0.5,8.7-2.2,13.1,0c-3.4-0.1-6.7,0.4-9.6,2.4c-0.7,0.5-1.3,1-0.3,1.8
	c0,1.6-1.2,2.3-2.4,2.9C101,30.1,98,38,96.5,46.7c-0.7,3.9-0.6,7.9,0.4,11.8c0.4,3.7-1.5,4.7-4.7,3.9c-1.6-0.4-3.2-0.8-4.4-1.9
	c-2.1-2.2-1.8-4.9-1.2-7.5c2.1-8.4,2.2-17.2,5.1-25.4c0.5-1.5-0.2-3,0.3-4.4C95,22.5,98.2,24.1,101,22z"/>
<path fill="#454121" d="M114.6,73.1c-5.4-4.6-12.1-6.7-18.6-9.1c-0.4-1.6,0.6-2.8,0.9-4.2c0.5-0.2,1-0.1,1.4,0.1
	c5.2,4.4,11.8,5.9,17.7,9c2.9,1.6,5.8-1,7.6-3.5c3.6-4.9,6.1-10.3,6.1-16.6c0-3-0.2-6,0.2-9c0.2-0.8,0.5-1.5,1.2-2
	c3.2,2.3,3.1,5.7,2.9,9c-0.6,9.5-3.4,18.2-11.5,24.3C119.9,72.2,117.9,75.2,114.6,73.1z"/>
<path fill="#4F4A2A" d="M98,60c-0.3,0-0.6,0-1,0c-0.7-0.5-0.4-1.6-1.2-2c-3.5-14.7,2.4-27.3,16.3-34.9c3.5-0.2,7-0.5,10,1.8
	c-0.5,1-1.4,1.5-2.5,1.8c-13.7,0.1-23,11.9-21.1,26.7C98.8,55.6,99.9,57.9,98,60z"/>
<path fill="#49410D" d="M114.6,73.1c3,0.7,5-2,7.8-2c-2,1.9-3,3.4-0.2,5.9c2.6,2.2,4.4,5.3,4.7,9c-1,0.9,0.1,2.4-1.1,3.2
	c-1.5-2.8-0.5-7.1-4.7-8.4c-2.9-0.9-5-2.6-5.3-5.8C115.4,74.3,115,73.7,114.6,73.1z"/>
<path fill="#474430" d="M120,25.9c0.5-0.8,1.4-0.9,2.2-1c5.5,2.6,8,7.3,8.8,13c-0.1,0.8-0.1,1.6-0.2,2.4c-0.7-0.1-1.4-0.3-1.6-0.9
	C127.3,34.1,123.7,29.9,120,25.9z"/>
<path fill="#FEFBBD" d="M147.3,76.2c1.2,5.6-1.5,8.4-3.7,11.3c-0.3,0.4-1.3,0.6-1.7,0.3c-0.9-0.5-0.6-1.4-0.2-2.1
	C143.3,82.9,144.9,80.1,147.3,76.2z"/>
<path fill="#FDF795" d="M134,24.9c-0.2,1.5,1.5,2.6,0.5,4.5c-2.6-1.3-3.7-3.7-5.5-5.7C131.4,22.4,132.2,25.4,134,24.9
	C134.1,25,134,24.9,134,24.9z"/>
<path fill="#2B2811" d="M125.9,89.2c0.3-1.1-0.1-2.4,1.1-3.2c0,3.5,1.2,7-1,10.3C124.2,94,126.6,91.6,125.9,89.2z"/>
<path fill="#FBE12C" d="M92,23.1c1.3,1.1,2.7,2.3,1.7,4.2c-4.5,8.9-3.2,19.1-6.5,28.3c-0.6,1.6,0.8,2.8,0.7,4.3
	c-3.4,2.2-7,0.9-10.4,0.1c-1.8-0.4-2-1.9-1.8-3.5c0.3-2,1.5-3.7,1.9-5.6c1.9-3.6,2.2-7.5,2-11.5c0.3-6.1-2.4-11.2-5.8-16
	c-2.6-3.7-6.6-5.4-11.2-5.1c-2.1,0.1-4.3,0.6-6.4-0.1c0.7-3.3,4.5-5.7,9.4-6.1c1.8-0.1,3.6-0.1,5.4-0.1c0.6,0.1,1.2,0.2,1.8,0.2
	c1.7,1.3,3.5,2.6,5.2,3.9c1.7,1.3,3.3,2.5,5,3.8C85.7,21.8,88.7,22.9,92,23.1z"/>
<path fill="#F9E02B" d="M37,79c-1.6-3.3-0.5-6.9,1.1-9.3c4.8-6.8,1.5-13.7,1.5-20.6c0-6-1.9-12.7,4.5-17.1c1.2,1.5,0.9,3.1,0.4,4.7
	c-1.8,5.2-1.5,10.3,0.1,15.5c0.8,4.7,4.1,8.3,5.8,12.6C45.5,69,42.4,75.1,37,79z"/>
<path fill="#504B29" d="M43.9,53.2c-3.4-7.1-1.3-14.1,0.3-21.2c2.5-5.9,6.1-10.9,12-13.9c7.6-2.9,14-1.6,18.7,4.5
	c3.7,4.7,6.3,10.1,6,16.4c-2.4-0.6-1.2-2.2-1.2-3.4c-0.9,0.5,0.3,2-0.7,2.6c-1.8-0.1-1.9-1.6-2.3-2.8c-0.5-1.8-0.9-3.5-1.6-5.2
	c-2-5.1-5-9.2-10.9-9.7c-5.9-0.5-10.3,2.5-13.5,7.1c-2.9,4.1-4.5,8.8-4.4,14c0.1,2.5,0.1,5-0.4,7.5C45.3,50.5,45.3,52.2,43.9,53.2z"
	/>
<path fill="#48400B" d="M37,79c3.5-5.5,6.9-11.1,13.1-14.1c0.7-0.5,1.4-0.4,2,0.1c0.7,1.3,0.1,2.3-0.9,3
	c-6.6,5.1-11.7,11.1-10.8,20.2c0,0.3-0.3,0.5-0.6,0.7c-3.5-1.8-0.7-5.7-2.7-8C37.1,80.4,37.1,79.7,37,79z"/>
<path fill="#AB9200" d="M30,201.9c2.7-6,1.8-12.6,3.1-18.8c3.1-8.5,5.3-17,3-26.2c-0.5-1.9-0.2-3.9-0.2-5.9
	c-0.6-4.6,1.8-5.7,5.8-4.9c2,1.6,1.2,4.1,2,6.1c0.9,3.5,3.3,5.9,6,8.1c2.5,1.9,5.6,2.6,8.4,4c7.5,2.7,15.2,3,23.1,1.7
	c2.4-0.4,4.6-1.3,6.6-2.7c1.3-0.9,2.5-2.1,4.4-1.3c0,4.8-2.7,8.7-4.2,12.9c-6,16.7-13.5,32.8-22,48.4c-7.8,14.4-19,23.5-35,26.7
	c-0.7,0.1-1.3,0.1-2,0.2c-6.8-1.4-12.9-3.9-17.1-10c-2.3-3.5-2.6-5.9,0.7-9.4C20.4,222.5,26.7,213.1,30,201.9z"/>
<path fill="#C8CDCB" d="M14.1,112.2c0.3-0.1,0.5-0.2,0.8-0.3c1.2,0.9,1.2,2.3,1.3,3.6c0.2,1.4,0.4,2.7,2.2,2.9
	c1.6,0.1,2.9-0.6,3.7-2c0.4-0.7,0.6-1.6,0.9-2.3c2.9-6.5,6.9-8.3,14.1-6.3c0.9,3.7,0.7,6.5-4.1,7c-2.6,0.2-3.4,3-1.8,5.3
	c0.9,1.3,2.5,1.5,3.6,2.5c1.8,1.7-1.2,5.3,2.6,6.1c2.4,0.5,4.3-0.1,5.6-2.3c1.5-2.7,4.6-3,6.8-4.7c0.8-1.3,0-3.1,1.4-4.2
	c3-1.8,5.3-1.3,6.8,1.9c0.7,1.6,2.3,2.2,3.7,3.1c0.1,0.1,0.3,0.2,0.3,0.4c1.1,1.6-2.2,3.8,0.1,4.8c2.4,1,4.1-1.5,5.8-3
	c0.9-0.8,1.1-2,2.1-2.8c2.4,0.3,4.1,1.8,6.1,2.9c1.2,1.5-2.8,3.4,0.1,4.4c2.2,0.7,4-0.8,5.2-2.7c0.7-1.1,0.6-2.6,1.5-3.6
	c2.2,0.8,4.3,1.9,6.7,1.6c1,6,1.4,12.2,4.3,17.8c-0.1,1.1-0.8,1.6-1.5,0.6c-2.9-4.3-7.1-4.1-11.4-3.9c-3.4,0.1-6.9,0.1-10.3,0.2
	c-4.2,1.2-8-0.3-11.9-1.4c-2.5-0.7-4.9-2.1-7.6-0.9c-2.2,0.7-4.1,1.8-5.4,3.7c-0.8,1.7-2,3-4,3.2c-2.2,0-4.4,0-6.6,0
	c-9.1-2.9-16.9-7.4-20.1-17.2C13.9,121.9,13.9,117,14.1,112.2z"/>
<path fill="#42595A" d="M93.9,142.2c-5.6-5-4.6-11.8-5-18.2c-1.2-1.4-0.2-3.1-0.7-4.6c-1.2-1.6-3-0.8-4.5-1.4
	c-1-0.5-2.8-0.7-1.3-2.5c2.7-0.7,5.4-0.5,8.1-0.1c2.4,2.8,6.1,2,9.1,3.1c0.8,0.5,0.7,1.2,0.3,1.9c-1,1.3-2.4,2.3-3.4,3.5
	c-1.7,2-0.6,3.8,0.4,5.4c1.2,2.1,3.1,2.7,5.5,2c1.9-0.5,3.5-2.8,5.9-1.3c0.4,0.7,0.4,1.3,0.1,2c-3.2,3.5-3.6,6.9-0.9,9.4
	c1.8,1.6,3.8,2,5.7,0c0.8-0.9,1.7-1.6,2.8-2.1c3.6-1.2,6.9-3.3,10.4-4.7c4.2-1.3,2.3-6.3,5-8.5c5-1.4,5.8-0.7,4.7,4.2
	c-0.3,12.6-13.4,22-26.6,19.7C103.3,148.9,98.3,146.5,93.9,142.2z"/>
<path fill="#465F66" d="M136.1,130.2c0.5-4.4-1.9-4.5-5-3.2c-3.2-1.6-6.3-4.4-10.1-1.3c-2.5,0.4-4.3,3.5-7.3,2.1
	c-1-1.7-1-3.3,0.3-4.9c1.4-0.7,3.2-0.5,4.3-1.9c1.5-1.8,1.6-3.5-0.9-4.6c-1.5-1.3-2.8-2.7-0.4-4.4c-0.6-4,2.5-5.3,5-7
	c8.8,2.8,15.5,11.2,16,21.8c0,1.2,0,2.3-1,3.2C136.6,130,136.4,130.1,136.1,130.2z"/>
<path fill="#353212" d="M106,152.9c0,0.4,0,0.7,0,1.1c-0.2,0.2-0.6,0.6-0.8,0.5c-5.5-1.2-8.9,1.4-11.5,5.9c-1.7,0.2-2.4-0.9-2.8-2.3
	c-0.3-1.3-0.2-2.6,0-4c1-7.4-1-9.5-8.5-9.8c-4.4-0.2-9,0.7-13.3-0.8c-0.8-0.5-1.3-1.1-1.3-2.1c1.1-1.9,2.6-0.6,4-0.6
	c5.4,0.1,10.9,0.1,16.3,0C93.5,145.8,99,150.5,106,152.9z"/>
<path fill="#C6CFD2" d="M136.9,129.9c0.2-10.6-4-18.6-13.6-23.5c-0.6-0.3-0.9-0.9-1.4-1.4c2.5-2.3,4.5-2.7,6.3,0.8
	c0.9,1.7,2.6,2.8,4.6,3.4c2.7,2.3,2.2,7,6.1,8.3c-2.1,5.4,1.2,11.1-1.1,16.4C136.5,132.8,137.3,131.2,136.9,129.9z"/>
<path fill="#4D4A31" d="M50,136.1c1.9-1.3,3.8-1.3,6-0.6c4.8,1.4,9.8,2.5,14.7,3.6c0.1,0.2,0.3,0.5,0.4,0.7
	c-1.1,1.3-3.2,0.1-4.1,1.7c-5.4,0.8-10-2.3-15-3.3C51,137.8,49.9,137.5,50,136.1z"/>
<path fill="#121107" d="M67,140.9c1.1-1.4,2.8-0.5,4.1-1.1c5.7,0.4,11.3,0.7,17,1.1c-6,2.1-12.1,1-18.2,0.5c-0.6-0.1-1.2,0-1.9,0.1
	c-0.1,0.3-0.3,0.6-0.5,0.6C66.9,141.9,66.9,141.4,67,140.9z"/>
<path fill="#CFD6D5" d="M36.8,108c-4.2,0.2-8.6-0.5-11.3,4c-0.6,1-1.5,1.8-1.5,3c0,4.3-2.6,5.2-6.2,5c-4.3-0.2-2.3-3.5-2.7-5.6
	c-0.2-0.8-0.1-1.6-0.1-2.5c0.6-1.6,1.2-3.3,1.8-4.9c2.5-5.4,7.1-9,11.4-12.9c3.1-1.8,6.3-3.2,10-2.2c1.2,4.6,4,8.6,4.5,13.5
	c0.1,0.8-0.1,1.5-0.7,2C40.3,108.4,38.6,108.3,36.8,108z"/>
<path fill="#EDCB04" d="M39.9,89c-2.4-9.5,2.5-15.6,9.4-20.9c1.1-0.8,3-1,2.4-3.1c0.3-0.4,0.7-0.7,1.2-0.9c1-0.3,2-0.4,3-0.5
	c4.1-0.3,7.9-3.4,12.2-0.8c-0.5,1.7-2,1.8-3.5,2.3c-6.9,2.6-13.3,6-16.8,13.1c-3.5,6.9-2.2,13.4,1.7,19.7c1.1,1.7,2.4,3.2,2.5,5.3
	c-0.6,0.5-1.3,0.5-2,0.3c-1.9-1-3.2-2.7-4.7-4.1c-2.1-2.7-4.6-5.2-5.1-8.8C40.1,90.1,40,89.5,39.9,89z"/>
<path fill="#555442" d="M46.2,99c1.3,1.2,2.6,2.5,3.8,3.7c1.1,1.6,0.5,3-0.7,4.3c-0.4,0.3-0.9,0.3-1.4,0.2c-0.6-0.5-0.9-1.3-1.3-2.1
	c-1.3,2.3,1.1,5.9-2.6,7.1c-2.6-1.8,0.5-5.3-2.1-7c-1.7-2.4-4.3-11.4-3.7-13.2c0.3-0.1,0.6-0.1,1,0C42.1,93.6,42.2,98.2,46.2,99z"/>
<path fill="#A38B00" d="M29.3,83.5c2,1.4,4.8,2.3,4.2,5.2c-0.2,1.2-2.4,2.3-3.2,1.7C27.9,88.8,29.3,86,29.3,83.5z"/>
<path fill="#292B16" d="M46.2,99c-5.5,0.8-5.2-4.3-7.1-7c0.4-0.4,0.7-0.9,1.1-1.3C42.2,93.4,44.2,96.2,46.2,99z"/>
<path fill="#DBBB00" d="M93.7,159.9c3.7-7.4,3.7-7.4,12.3-5.8c2.9,0.1,4.6,0.6,3.3,4.4c-1.8,5.1-3.9,10-6.1,14.9
	c-0.7,1.5-1.6,2.9-1.1,4.7c-3.6,10.3-7.3,20.7-10.9,31c-1.6,3.3-3.4,6.5-4.7,9.8c-4,10-11,17.6-18.3,25.2
	c-9.3,7.1-20.2,7.7-31.2,7.1c-2-0.1-4,0-5.8-1c3-3.2,7.4-3.3,11.1-4.7c9.4-3.6,15.6-10.5,20.5-18.8c10.8-18.2,19.7-37.3,25.8-57.5
	c0.8-2.7,3.2-4.3,3.7-6.9C92,160.9,93.4,160.8,93.7,159.9z"/>
<path fill="#3F363A" d="M115,123.1c-1.6,1.5-0.8,3.4-0.8,5.1c-0.3,1.7-1.1,2.5-2.9,1.7c-3.5-3.8-3-8.2-1.8-12.6
	c0.4-0.5,0.8-0.6,1.4-0.5c2.2,2,0.6,4.7,1.1,7c0,0.7,1-0.1,0.4,0.1c-0.2,0.1-0.3-0.1-0.3-0.4c0-4,0.8-7.9,2.6-11.5
	c0.5-0.4,0.9-0.4,1.4,0c0.3,0,0.6,0,0.9,0c-0.8,1.6-0.5,2.9,0.8,4.1c0.4,0.3,0.6,0.7,0.4,1.1c-1.2,1.7-1.6,3.7-2.7,5.5
	C115.3,122.8,115.1,123,115,123.1z"/>
<path fill="#A88E00" d="M134,97.7c1,0,2.6-0.7,1.4,1.4c-1.2,1.9-2.3,3.8-3.5,5.7C127.9,101.8,128.1,101,134,97.7z"/>
<path fill="#465F66" d="M116.1,112l-0.4,0l-0.4,0c-4.1-0.7-2.2,3.9-4.3,5c-0.3,0-0.5,0-0.8-0.1c-2-2.3-1.9-4.5-0.1-6.8
	c1.1-1.4,2.7-1.8,4.4-2.1C116.6,108.6,116,110.4,116.1,112z"/>
<path fill="#3C3402" d="M42.9,153.1c-1.6-2.1-0.8-4.6-1.2-7c0.7,0.2,1.4,0.5,2.1,0.7c0.2,0.2,0.4,0.3,0.6,0.5
	c0.7,1.2,0.8,2.5,0.6,3.9C44.7,152.2,44.4,153.4,42.9,153.1z"/>
<path fill="#413D1E" d="M41.8,143.8c1.7-0.7,1.8-2.9,3.2-3.9c1-0.2,1.4,0.4,1.7,1.2c-0.1,2.3,0.2,4.8-2.5,5.9c0,0-0.4-0.2-0.4-0.2
	C44.2,145.1,43.6,144.1,41.8,143.8z"/>
<path fill="#161612" d="M110.1,110c0,2.3,0.1,4.6,0.1,6.8c-0.1,4.5-1,9.2,2,13.3c0.8,0.8,1,1.8,1,2.9c-0.1,1.3-0.3,2.8-1.7,3.2
	c-1.6,0.4-2.2-1-2.8-2.2c-0.4-0.7-0.6-1.4-0.5-2.2c-0.1-0.7-0.2-1.4-0.3-2c-1.8-2.5-0.9-5.4-1.1-8.1c-0.2-1.9-0.2-3.8-3-2.8
	c-1.1,0.4-2.3,1-3.5,0.2c-2.1,0-4.3-0.2-6.4-0.1c-2.4,0.1-2.7-1.3-2.8-3.1c0.1-2.5,2.1-1.1,3.2-1.5c1.6-0.6,3.4-0.6,4.9-1.6
	C102.7,112,106.4,111,110.1,110z"/>
<path fill="#2B2B17" d="M99,112.9c-1.8,3.2-5.8,0.9-8,3.1c-3,0-6,0-9,0c-3.8,2.2-7.8,0.5-11.4-0.3c-3.4-0.7-6.9-1.9-10.3-3.1
	c-3.2-2-6-4.9-10.4-4.3c-0.8-0.1-1.3-0.5-1-1.4c0.4-1.4,0.8-2.8,1.1-4.2c0.6,0.1,1.3,0.3,1.9,0.4C66.4,112.2,82.1,115.4,99,112.9z"
	/>
<path fill="#554E1F" d="M68,62.8c-4.7-0.7-8.8,2.2-13.4,2.1c0.1-1.5,1.1-2.3,2.4-2.8c4.5-1.3,9.2-1.3,13.6-2.9
	c1.6-1.3,2.6-3,3.4-4.9c1.1-1.9,1-4.6,3.6-5.6c1.2,0.2,0.7,1.6,1.3,2.2c-0.9,2.6-1.7,5.2-2.8,8.2c4.1,0.2,8,0.5,11.9,0.7
	c1.5,0.4,3.1,0.7,4.6,1.3c3.4,1.3,3.9-0.3,3.3-3.1c0.9,0.4,1.1,1.1,1.2,2c0.2,1.4-0.4,2.7-1,3.9c-7.5-1.1-15-2.8-22.6-2
	C71.5,62.1,69.7,61.8,68,62.8z"/>
<path fill="#D3B505" d="M56.6,82.5c5-2.8,11.7-2.3,14.6,0.4c1.6,1.5,2.6,3.1,0.7,5.1c-1.8,1.9-3.3,2.2-5-0.5
	C64.8,84.2,61.1,83.3,56.6,82.5z"/>
<path fill="#CBAE04" d="M91.7,87.5c5.7-3.3,11-2.9,14.8,0.3c1.9,1.6,2.1,3.3,0.4,5c-1.5,1.4-3.1,1.6-4.4-0.6
	C100.3,88.5,96.3,88.3,91.7,87.5z"/>
<path fill="#FEFAAD" d="M115.9,75c1.8,1.9,3.5,3.9,5.3,5.8c-0.3,0.9-0.3,2.2-0.9,2.6c-1,0.6-2.1-0.4-2.1-1.2
	C118.1,79.5,111.8,78.8,115.9,75z"/>
<path fill="#FEFEFE" d="M120,25.9c6.5,2.7,8,9.1,10.9,14.4c0.5,7.7,0.5,15.2-3.6,22.2c-1.6,2.6-3.3,5-5.7,6.8
	c-2.5,1.8-5.1,2.7-8,0.1c-3.3-2.9-7.6-3.9-11.6-5.6c-1.9-0.8-3.7-1.5-3.9-3.9c-1-7.1-1.4-14.1,1.3-21.1
	C103.1,29.1,110.6,24.3,120,25.9z"/>
<path fill="#333020" d="M78.9,50.9c-0.4-0.7-0.7-1.4-1.1-2.1c-1.5-3.7-0.4-7.1,1-10.6c0.1-1.1,0.3-2.2,0.4-3.4
	c1.6,1.1,0.1,3.2,1.7,4.1C81.4,43.1,81.1,47.2,78.9,50.9z"/>
<path fill="#FEEE86" d="M81,25.1c2.6,0.6,4.5,1,4.7,3.5c0.1,0.9-0.8,1.5-1.7,1.3C81.3,29.6,81.8,27.3,81,25.1z"/>
<path fill="#4D482B" d="M51.6,65c-0.5,0-1,0-1.6,0c-2.9-3.4-5.7-7-6.2-11.7c0.3-1.4-0.3-3,0.8-4.2c3,5.1,5.8,10.4,7.8,16
	C52.2,65,51.9,65,51.6,65z"/>
<path fill="#FEFEFE" d="M52.5,65c-3.3-5-7-9.8-7.8-16c-0.3-6.5,0-12.8,3.1-18.9C51.4,23.2,57.4,18.7,64,19c6.2,0.3,10.4,4.3,13,12.5
	c0.7,2.2,1.2,4.5,1.8,6.7c-0.3,3.5-0.7,7-1,10.6c-1,2-2,4-3,6c-2.6-0.1-1.7-3.3-3.7-4c-2-1.1-4.1-1.7-5.8,0.1
	c-2.2,2.3-0.3,4.5,0.6,6.7c0.3,0.9,0.7,1.9-0.1,2.8c-3.1,1-6.2,1.9-9.3,2.5c-1,0.4-1.8,0.9-2,2C53.9,64.9,53.2,65,52.5,65z"/>
<path fill="#362F04" d="M81.9,166.9c-8.5,2.2-16.9,1.8-25-1.9c-0.2-1.6,1-1.8,2.1-2.1c1.9-0.3,3.9-0.2,5.8,0.2
	c3.5,0.6,6.9,1.4,10.5,1.6C77.7,165.1,80.7,163.4,81.9,166.9z"/>
<path fill="#5A4E06" d="M81.9,166.9c-2.1-1.8-4.7-0.4-7-1c-0.1-1,0.5-1.7,1.3-1.8c5.8-0.6,11-2.8,15.7-6.3c0.1,1,0.4,1.9,1.7,2
	c-0.5,0.7-1.1,1.5-1.6,2.2C88.7,163.7,86.2,167.1,81.9,166.9z"/>
<path fill="#5E5105" d="M42.9,153.1c0.9-0.4,1-1.3,1.1-2.2c3.3,2,4.6,5.5,6.3,8.7c-0.2,0.8-0.6,1.3-1.4,1.5
	C46,159.1,43.8,156.5,42.9,153.1z"/>
<path fill="#403805" d="M48.9,161.1c0.5-0.4,0.9-0.9,1.4-1.3c3.6-0.1,7,0.3,8.8,4.2c-0.8,0.1-1.6,0.2-2.1,1.1
	C54.2,163.8,51.2,163.2,48.9,161.1z"/>
<path fill="#C9D2D5" d="M89.9,119.1c0.4,1.8-0.5,3.3-0.9,4.9c-1.6,0.7-0.2,3.4-2.1,3.5c-2,0.1-1.5-2.3-2.4-3.3
	c-0.4-0.5-1.1-0.7-1.6-1.1c-2.1,1.3-4.1,3.3-6.9,1.9c-2.7,0.4-4.3-1.5-6.1-2.9c-2.5,0-4.8,1.9-7.5,1.1c-2.8,0-5.1-0.4-5.8-3.9
	c-0.7-3.5-3.5-0.9-5.3-1.3c-0.5-0.1-1-0.3-1.4-0.6c-3.7-3.9-3.6-5.1,0.3-8.8c2.8-0.5,5.2,0.5,7.5,1.9c4.9,3.1,10.2,4.8,16,5.5
	C79.1,116.7,84.6,117.3,89.9,119.1z"/>
<path fill="#313734" d="M36.8,108c1.5-1.2,3.3-1.1,5.1-1.3c-0.1,6-1.1,11.9,0.9,17.9c1.1,3.4-1.4,4.8-5.4,3.4
	c-1.7-1.2-1-3.6-2.5-4.9c-6-1.3-7.1-2.8-5.8-7.4c0.4-1.4,1.3-2.8,2.6-2.5C36.8,114.6,36.4,111,36.8,108z"/>
<path fill="#1A1B19" d="M37,127c1.5-0.7,2.6,2.7,4.2,0.5c1.1-1.6,0.1-3.1-0.3-4.9c-1.4-5.3-2.2-10.8,1-15.9c0-0.5,0-1,0-1.6
	c0.3-0.8,0.1-2.3,1.3-2.2c1.1,0,0.7,1.3,0.7,2c0.1,2.4,0.2,4.9,0.2,7.3c1.8,1.6,0.2,3.7,0.9,5.7c-0.1,0.5,0.5-0.5-0.1-0.4
	c-0.2,0-0.2-0.1-0.1-0.5c0.2-0.8,0.4-1.6,1.1-2.2c2,0,3.2,1.8,5,2.2c0.1,0.3,0.2,0.6,0.3,1c-1.3,1.4,1.9,2.8,0,4.1
	c-1,0.8-2,1.6-3.4,1.4c-2.6-0.4-3,1.7-3.9,3.4c-1,4-3.9,3.6-6.9,3C36.2,128.9,36.1,127.9,37,127z"/>
<path fill="#2D3534" d="M62.4,123.2c2.5-0.5,4.6-3.3,7.5-1.1c-0.2,2.8-5.3,7.8-7.9,7.7c-1.3-0.1-2-0.9-2.5-2
	C58.5,125,61.4,124.7,62.4,123.2z"/>
<path fill="#282F2E" d="M75.9,125c2.3-0.5,4.3-2.6,6.9-1.9c1,4.2-3.2,8.9-7.4,8.3c-1.3-0.2-2-1-2.3-2.2
	C72.6,126.8,74.8,126.2,75.9,125z"/>
<path fill="#1D1D12" d="M37,127c0,1,0,2,0,2.9c-5.5-0.8-3-4.1-2.1-6.9C39.1,122.4,36,125.8,37,127z"/>
<path fill="#6A6643" d="M46.2,141.1c-0.4-0.4-0.8-0.8-1.2-1.2c1-2.2,2.8-3.2,5-3.9c0.7,0.3,1.3,0.7,2,1
	C51,139.8,48.7,140.7,46.2,141.1z"/>
<path fill="#414848" d="M43.9,126.9c-0.1-5.5,4.9-3.1,7.3-4.7c-0.3,1.5-1.4,2.4-2.8,2.1C45.9,123.6,45.2,125.6,43.9,126.9z"/>
<path fill="#C5C6C1" d="M112.2,132.6c0-0.8,0-1.7-0.1-2.5c0.7-0.6,1.4-1.3,2.1-1.9c2.2-1.2,3.9-3.5,6.8-3.5c0.3,0.4,0.4,0.8,0.4,1.2
	c-0.9,2.3-1.4,4.5,0.5,6.6c1.1,2,4.6,0.3,5,3.3c-3.7,1-6.6,4.3-10.8,4.2C114.3,137.8,114.3,134.7,112.2,132.6z"/>
<path fill="#98958E" d="M103,118c3.2-2.1,5.1-1.8,5,2.6c0,3.1,0.5,6.2-0.3,9.2c-0.7,0.3-1.5,0.6-2.2,1.1c-4.8,3-7.9,2.6-10.2-1.3
	c-2.4-4.1-1.5-6.1,3.8-9.4c1.8,0.3,4.1-1.3,5,1.6c-0.8,1.3-2.3,1.2-3.5,1.6c-1.4,0.5-2.3,1.3-2,2.9c0.2,1.3,1.1,2,2.4,2.1
	c1.5,0,2.5-0.8,2.9-2.3c0.3-1,0.1-2,0.3-3C105.7,121.1,104.1,119.6,103,118z"/>
<path fill="#7A8A83" d="M89.9,119.1c-11.2-1.9-23.1-0.5-32.9-8.1c1-0.8,1.9-0.6,2.9,0c7.2,2.4,14.5,4.5,22.1,5c1.4,1.5,3.3,0.8,5,1
	C88.4,117.1,90,116.9,89.9,119.1z"/>
<path fill="#BF1406" d="M112.2,132.6c4.9,0.6,3.9,4.2,3.9,7.4c-0.7,0.6-1.5,1.1-2.2,1.7c-4,1.8-6,1.1-7.7-2.5
	c-1.6-3.4-0.3-5.3,3-6.2c1,0.6,0.4,2.7,1.8,2.5C112.4,135.4,111.9,133.7,112.2,132.6z"/>
<path fill="#A08C87" d="M126.9,135.8c-1.6-1.9-5.2,0.8-6.1-2.8c1-0.9,2.2-0.4,3.3-0.5c2.1-0.2,3.4-1.3,3.4-3.4
	c0.1-2.5-1.7-2.9-3.7-2.8c-1,0-2,0.2-2.8-0.4c0-0.4,0-0.8,0-1.2c4.4-3.1,6-2.7,10.1,2.3C131.1,130.6,131.2,134.3,126.9,135.8z"/>
<path fill="#9B8F87" d="M109.2,133c-0.6,1.9-4.1,2.4-2.6,5.2c1.5,2.7,3.7,4.7,7.2,3.5c-0.1,1.1-0.3,2-1.6,2.1
	c-3.5,0.4-6.2-0.5-7.4-4.2c-1.1-3.5-1.5-6.6,3.1-7.8C108.4,132.3,108.8,132.6,109.2,133z"/>
<path fill="#C6CDD3" d="M103,118c4.4,0.2,3.2,2.7,2,5.1c-0.9,0.2-1.2-0.2-1.2-1c-0.9-2.1-3.4-0.4-4.6-1.9c0.3-0.3,0.7-0.7,1-1
	C101.1,118.8,102.1,118.4,103,118z"/>
<path fill="#6F8085" d="M103.9,142.2c0,1.4-0.9,1.7-2,1.7c-1.1,0-1.8-0.6-1.7-1.8c0.1-1.1,0.8-1.8,1.9-1.7
	C103.2,140.5,103.8,141.2,103.9,142.2z"/>
<path fill="#A89F9E" d="M117.9,117c0.1-0.3,0-0.6-0.2-0.9c3-0.7,3.4,1.7,2.9,3.2c-0.8,2.4-1.9,5.4-5.7,3.8c0,0,0.1-0.3,0.1-0.3
	C116.5,121.1,116.7,118.8,117.9,117z"/>
<path fill="#76898F" d="M134.6,123.7c-0.1,1.1-0.8,1.3-1.7,1.2c-0.6,0-1.4-0.1-1.5-0.9c-0.1-1,0.5-1.5,1.4-1.6
	C133.8,122.2,134.3,122.9,134.6,123.7z"/>
<path fill="#FCE12D" d="M92,157.9c-2.5,4.7-7.1,6-11.8,7c-1.7,0.4-3.7-0.2-5.2,1.1c-3.4-0.4-6.8-0.4-10-1.7
	c-1.2-1.6-3.1-0.9-4.6-1.5c-4.1-1.8-7.2-4.6-8.8-8.9c-2.2-6.1,1.9-12.1,8.4-12c3.1,0,6.3,0.3,9.3,1c5.1,0.1,10.3,0.3,15.4,0.4
	c5.5,0,8.9,4.4,7.7,9.9C92,154.6,92.1,156.3,92,157.9z"/>
<path fill="#EAC802" d="M69.2,142.8c-2.9,0.3-5.8,0.7-8.8,0.3c-6-0.7-9.9,4.9-7.7,10.5c1.7,4.3,4.8,7.1,9.2,8.4
	c1.4,0.4,2.5,0.7,2.9,2.2c-1.9-0.1-3.9-0.2-5.8-0.3c-2.9-1.4-5.9-2.8-8.8-4.2c-2.8-2.4-4.7-5.5-6.3-8.8c0-1.3,0.1-2.6,0.1-3.9
	c0.7-2,1.3-4,2-5.9c1.9-1.3,3.9-2.7,5.8-4c5.1,0.7,9.8,3.5,15,3.8c0.3,0.2,0.6,0.3,1,0.5C68.4,141.9,68.8,142.3,69.2,142.8z"/>
<path fill="#E4E4E4" d="M46.1,115c-0.4,1-0.3,2.2-1.9,3c0-2.2,0-4,0-5.9c1-3.3,0.7-6.8,1-10.3c3.7,0.3,3.3,2.8,3,5.2
	C49.1,110.1,47.1,112.4,46.1,115z"/>
<path fill="#414848" d="M46.1,115c-0.2-2.9,1.3-5.4,2.1-8c0.3,0,0.5,0,0.8,0c0.3,0.3,0.7,0.7,1,1c0.3,0.2,0.4,0.5,0.3,0.7
	c-0.1,0.3-0.1,0.4-0.2,0.4c-2.3,2.9-2.3,5.6,0.9,8C48.8,117.5,47.6,115.9,46.1,115z"/>
<path fill="#DFDFDF" d="M110.9,117c0.1-1.6,0.2-3.2,0.4-4.8c0.2-1.2,1.2-1.9,2.4-2.1c1.5-0.2,1.3,1,1.5,1.9c-1.1,4.4-1.5,8.9-4.3,13
	C110.9,122.3,110.9,119.6,110.9,117z"/>
<path fill="#B51417" d="M117.9,117c0.6,2.7-0.2,4.7-2.9,5.9C115.6,120.6,114.8,117.9,117.9,117z"/>
<path fill="#738680" d="M50,109c0-0.4-0.1-0.7-0.1-1.1c0.4-1.8,1.4-2,2.8-1.1c2.4,1.4,4.8,2.8,7.1,4.2c-1,0-1.9,0-2.9,0
	C54.7,110.3,52.3,109.7,50,109z"/>
<path fill="#C6C6C6" d="M66,60c-0.3-0.6-0.7-1.3-1-1.9c4-1.2,6.7-3.6,7-8c2.6,0.6,1.3,3.6,2.8,4.9c-0.5,1.9-1.2,3.8-2.9,5
	C70,60.9,68,60.8,66,60z"/>
<path fill="#524E34" d="M66,60c2,0,4-0.1,6-0.1c-4.9,2.3-10.1,2.6-15.4,3C59.5,61.2,62.8,60.9,66,60z"/>
<path fill="#252525" d="M99.7,58.3c0-3.6,1.7-5.3,4.8-5.4c3.2-0.1,5.4,1.4,5.5,4.9c0.1,3.4-1.8,5.2-5.1,5.4
	C101.5,63.3,100,61.1,99.7,58.3z"/>
<path fill="#0D0D0D" d="M72,50c1.6,6.4-0.2,8.4-7,8c-1.9-2.5-3.7-5.2-1-8C66.4,47.5,69.3,47.9,72,50z"/>
<path fill="#BF0807" d="M121,125.9c2.6-1,5.4-2.3,7.5,0.6c1.4,2,0.7,4.2-0.6,5.9c-2.1,2.7-4.7,1.4-7.1,0.6
	C119.3,130.6,117.7,128.2,121,125.9z"/>
<path fill="#BF0B09" d="M103.8,122.1c0.4,0.3,0.8,0.7,1.2,1c0.3,1.6,0.9,3.1,0.1,4.8c-1.1,2.3-3,2.3-5,2.2c-2.4-0.1-2.8-2-3.2-3.8
	c-0.4-2.1,0.7-3.5,2.5-4.3C100.9,121.4,102.4,121.8,103.8,122.1z"/>
<path fill="#FEF3AD" d="M89.6,153c-0.7-0.4-1.4-0.6-1.5-0.9c-0.6-1.8-3.4-2.6-2.4-5c0.4-1,1.6-1.2,2.5-0.4
	C90.2,148.3,90.4,150.4,89.6,153z"/>
</svg>
