<?xml version="1.0" encoding="utf-8"?>
  
<!DOCTYPE svg PUBLIC "-//W3C//DTD SVG 1.1//EN" "http://www.w3.org/Graphics/SVG/1.1/DTD/svg11.dtd">
<svg version="1.1" id="Layer_1" xmlns="http://www.w3.org/2000/svg" xmlns:xlink="http://www.w3.org/1999/xlink" x="0px" y="0px"
	 viewBox="0 0 714.1 623.7" enable-background="new 0 0 714.1 623.7" xml:space="preserve">
<path fill="#00D8FF" d="M697.7,295.9c-0.8-8-3.2-15.6-6.9-22.7c-4.8-9.2-11.2-17.2-18.5-24.4c-6.2-6.1-12.9-11.6-20.1-16.7
	c-15.7-11.1-32.6-19.9-50.3-27.5c-14.1-6-28.5-11-43.2-15.3c-0.7-0.2-1.4-0.4-2.1-0.6c-0.5-0.2-0.7-0.5-0.7-1c0-0.5,0.1-0.9,0.2-1.4
	c4-16.8,7.1-33.9,8.8-51.1c0.6-5.9,1.1-11.9,1.3-17.8c0.4-11.4,0.3-22.7-0.8-34c-0.9-8.9-2.3-17.8-4.6-26.5
	c-2.5-9.5-6-18.6-11.1-27.1c-4-6.6-8.9-12.6-15-17.4C525.1,4.6,514,0.9,501.8,0.2c-9.8-0.6-19.4,0.6-28.8,3
	c-12.3,3.1-24,7.9-35.3,13.6c-14.2,7.3-27.6,16-40.3,25.5c-12.5,9.4-24.2,19.5-35.6,30.3c-0.7,0.7-1.3,1.5-2.3,1.9
	c-0.2-0.1-0.4-0.2-0.5-0.3c-0.5-0.5-1.1-1-1.6-1.5c-14.6-13.8-30.1-26.5-46.7-37.8c-13.5-9.2-27.6-17.3-42.7-23.6
	c-11-4.6-22.3-8.1-34.2-9.8c-8.4-1.2-16.8-1.3-25.2,0.1c-14.7,2.4-26.6,9.5-35.7,21.2c-6.6,8.5-11.1,18.1-14.2,28.3
	c-3.9,12.3-5.7,25-6.5,37.8c-0.4,6.9-0.6,13.9-0.3,20.9c0.3,8.4,0.8,16.8,1.7,25.2c0.7,6.1,1.5,12.2,2.5,18.2
	c1.8,10.9,4,21.8,6.7,32.5c0.1,0.4,0.2,0.9,0.3,1.3c0.1,0.5-0.1,0.9-0.6,1c-0.6,0.2-1.2,0.4-1.8,0.6c-19.5,5.7-38.6,12.5-57,21.3
	c-13.9,6.6-27.3,14.2-39.7,23.4c-9.3,6.9-17.9,14.5-25.3,23.5c-6,7.3-10.9,15.1-14.1,24c-3.3,9-4.5,18.3-3,27.8
	c1.1,7.4,3.6,14.4,7.1,21c4.2,7.9,9.5,15,15.6,21.5c9.2,9.9,19.7,18.3,31,25.8c12.2,8.1,25.2,15,38.5,21
	c15.1,6.8,30.7,12.5,46.6,17.1c2.7,0.8,2.7,0.8,2.1,3.5c-2.2,9.4-4.3,18.9-5.9,28.5c-0.9,5.5-1.7,11-2.5,16.6
	c-0.5,3.8-0.9,7.6-1.2,11.5c-0.3,4.3-0.5,8.6-0.8,12.9c-0.7,9.3-0.3,18.7,0.3,28c0.5,7.7,1.6,15.3,3.2,22.8
	c2.3,10.6,5.6,20.8,10.8,30.4c3.8,7,8.5,13.2,14.5,18.5c10.1,8.9,22,13.2,35.3,14.1c12,0.8,23.7-0.9,35.3-4.1
	c15-4.2,29-10.6,42.6-18.2c14.2-8,27.6-17.4,40.3-27.6c8.7-6.9,17-14.3,25-21.9c0.5-0.4,0.8-1,1.6-1.1c0.4,0.3,0.8,0.7,1.2,1
	c6.6,6.2,13.3,12.3,20.2,18.2c16.4,13.8,33.7,26.2,52.7,36.2c11.7,6.2,23.8,11.3,36.6,14.6c6.9,1.8,14,2.9,21.1,3.4
	c6.3,0.4,12.6-0.1,18.8-1.4c8.3-1.7,15.9-5,22.6-10.1c6.4-4.9,11.6-10.9,15.8-17.7c5.3-8.5,8.9-17.6,11.6-27.2
	c3.5-12.3,5.2-24.9,5.9-37.6c0.6-11.8,0.5-23.6-0.5-35.4c-0.6-7.4-1.5-14.8-2.5-22.1c-1.7-11.1-3.8-22.2-6.4-33.1
	c-0.9-3.7-1.4-3,2.4-4.2c20.6-6.3,40.7-14,59.9-23.8c14.5-7.4,28.3-15.9,40.8-26.2c8.5-7,16.3-14.7,22.8-23.7
	c5.4-7.5,9.6-15.5,12.1-24.5C697.6,308.8,698.3,302.4,697.7,295.9z M380.3,95.3c0.1-1,1.4-1.6,2.2-2.4C395.4,80.6,409,69.2,423.6,59
	c10-7,20.4-13.3,31.4-18.6c7.9-3.8,16.1-7,24.7-9.2c5.4-1.4,10.9-2.3,16.5-2.4c4.2-0.1,8.4,0.4,12.5,1.7c5.1,1.7,9.2,4.8,12.6,8.9
	c3.5,4.3,6.1,9.1,8.1,14.3c2.7,6.6,4.4,13.6,5.7,20.6c1.5,8.8,2.3,17.6,2.4,26.5c0,1.8,0,3.7,0,5.5c0,0,0.1,0,0.1,0
	c-0.1,3.2-0.2,6.4-0.3,9.6c-0.2,6.5-0.8,13-1.5,19.4c-0.9,8-2.1,16-3.5,23.9c-1.2,6.8-2.6,13.5-4.2,20.1c-0.4,1.6-0.9,1.6-2.1,1.3
	c-5.4-1.2-10.7-2.4-16.1-3.4c-7.6-1.5-15.3-3-23-4.1c-6.9-1.1-13.7-2.1-20.6-3.1c-5.2-0.7-10.4-1.3-15.5-1.9
	c-3.9-0.4-7.8-0.9-11.7-1.2c-1.6-0.1-2.4-0.9-3.3-2.1c-8.8-12.5-18-24.7-27.6-36.7c-8.3-10.4-16.9-20.5-25.9-30.3
	C381.5,97.2,380.2,96.5,380.3,95.3z M337.4,410.1c-7.1-0.1-14.3-0.4-21.4-0.7c-5.3-0.2-10.6-0.7-15.9-0.9c-1.5-0.1-2.5-0.6-3.3-1.8
	c-4-6.2-8.2-12.3-12.2-18.6c-17.1-26.6-32.6-54.1-46.5-82.5c-0.6-1.2-1.1-2.3-1.7-3.5c-0.3-0.5-0.3-1,0-1.6c0.3-0.6,0.5-1.2,0.8-1.7
	c17.2-35.5,36.9-69.5,59-102.2c0.3-0.5,0.6-0.9,0.9-1.4c0.3-0.5,0.8-0.8,1.3-0.8c0.6-0.1,1.3-0.2,1.9-0.2c4.1-0.2,8.2-0.4,12.3-0.7
	c13.3-0.9,26.7-1,40.1-1.4c7.4-0.2,14.8,0.2,22.3,0.2c8.4,0.1,16.8,0.5,25.3,0.8c6,0.2,12.1,0.7,18.1,1.1c0.3,0,0.5,0.1,0.8,0.1
	c1.4,0,2.3,0.7,3.1,1.9c7.5,11.2,14.7,22.5,21.7,34c13.5,22.2,26,44.8,37.6,68c1.6,3.3,1.6,2,0,5.2c-17.4,35.5-37.2,69.6-58.9,102.6
	c-0.3,0.4-0.5,0.7-0.8,1.1c-0.4,0.7-1,1-1.8,1.1c-0.3,0-0.5,0.1-0.8,0.1c-3.4,0.2-6.8,0.5-10.1,0.6c-7.4,0.4-14.8,0.8-22.2,1
	c-7.4,0.2-14.8,0.2-22.3,0.3c-2.2,0-4.4,0-6.6,0c0,0,0-0.1,0-0.1C351.2,410.1,344.3,410.2,337.4,410.1z M220.3,336
	c1,0.3,1.2,1.1,1.5,1.7c4.2,8,8.5,16,13,23.9c7.8,13.8,15.9,27.4,24.4,40.7c0.5,0.8,1.3,1.6,1.4,2.6c-8.2,0-55-7.6-61.9-10.1
	C204.9,374.9,212.2,355.3,220.3,336z M219.3,264.3c-7.2-17.2-13.7-34.7-19.3-52.5c-0.2-0.7-0.5-1.4-0.7-2.1c-0.2-0.7,0.1-1,0.8-1.2
	c4.4-0.9,8.8-1.9,13.2-2.8c8-1.5,16-3,24-4.3c6.5-1.1,13-1.9,19.6-2.8c1-0.1,1.9-0.4,2.9-0.1c0,0.9-0.5,1.4-0.9,2
	c-9.2,14.5-18.1,29.3-26.4,44.4c-3.6,6.5-7,13.1-10.6,19.6c-0.3,0.5-0.5,1-0.8,1.4c-0.1,0.2-0.4,0.4-0.6,0.5
	c-0.3,0.1-0.4-0.2-0.5-0.4C219.8,265.5,219.6,264.9,219.3,264.3z M458.8,403.5c14.1-22.3,27-45.2,39.5-68.4c0-0.1,0.2-0.1,0.3-0.1
	c0.6,0.5,0.7,1.2,1,1.9c7.7,17.7,14.7,35.7,20.7,54c1.2,3.7,0.9,3-2.1,3.7c-9.8,2.2-19.7,4.1-29.6,5.7c-6.7,1.1-13.4,2.1-20.1,3.1
	c-3.2,0.5-6.5,0.8-10.1,1.2C458.6,404,458.6,403.7,458.8,403.5z M499.4,264.5c-0.1,0.2-0.1,0.4-0.2,0.5c-0.3,0.5-0.3,1.4-1,1.5
	c-0.8,0.1-0.8-0.8-1.1-1.3c-1.1-2-2.2-4-3.2-6c-10.6-19.7-21.9-39.1-33.9-58.1c-0.5-0.7-1.2-1.4-1.1-2.4c0.8-0.4,1.7-0.2,2.5-0.1
	c9.1,1.3,18.1,2.6,27.1,4.1c9.6,1.7,19.2,3.6,28.8,5.6c3.3,0.7,2.6,0.8,1.9,3.1C513.4,229.5,506.7,247.1,499.4,264.5z M359.7,116.2
	c0.9,1,1.6,1.7,2.4,2.6c12.4,13.7,24.2,28,35.3,42.7c0.4,0.6,0.9,1.2,1.3,1.8c0.2,0.3,0,0.8-0.4,0.8c-0.7,0-1.5,0-2.2,0
	c-9.1-0.2-18.3-0.7-27.4-0.7c-10.2,0.1-20.3,0-30.5,0.2c-5.4,0.1-10.8,0.4-16.2,0.5c-0.6,0-1.3,0.3-1.8-0.2
	C322.5,158.9,352.4,123,359.7,116.2z M180.7,97.5c0.4-11.9,1.6-23.7,4.8-35.3c1.7-6.1,4-12,7.3-17.4c2.1-3.4,4.5-6.5,7.6-9
	c3.6-2.9,7.7-4.6,12.1-5.5c3-0.6,6-0.7,9.6-0.7c5.8,0,12,1.1,18.2,2.7c10.6,2.8,20.6,7.1,30.3,12.1c14.3,7.4,27.5,16.4,40.2,26.2
	c9.1,7,17.7,14.5,26.1,22.3c2.9,2.8,2.9,2,0.2,5c-12,13.1-23.5,26.7-34.4,40.7c-6.6,8.5-13.1,17.2-19.4,26c-0.2,0.2-0.3,0.4-0.5,0.7
	c-0.6,1.2-1.7,1.6-2.9,1.7c-2.1,0.2-4.2,0.4-6.3,0.6c-5.5,0.6-11.1,1.2-16.6,1.8c-4.4,0.5-8.7,1.1-13.1,1.7c-6.4,1-12.8,2-19.2,3.1
	c-10,1.6-20,3.7-29.9,5.8c-0.2,0-0.3,0.1-0.5,0.1c-3.4,0.6-2.8,1-3.6-2.2c-2.8-11.5-5.1-23-6.8-34.7c-1.3-9.2-2.3-18.5-2.8-27.9
	C180.6,109.4,180.5,103.5,180.7,97.5z M173.2,379.8c-0.6,2-1.3,4-1.9,6c-0.8,2.9-0.9,2.3-2.9,1.7c-5-1.5-10-3.1-14.9-4.8
	c-15.1-5.1-29.8-11.3-43.9-18.8c-11.8-6.3-23.1-13.4-33.4-22c-5.9-4.9-11.3-10.2-16-16.2c-3.8-4.9-7-10.1-9-16c-1-3-1.6-6-1.5-9
	c-0.1-4.7,1.2-9,3.1-13.1c2.2-4.9,5.3-9.2,8.7-13.3c6.6-7.7,14.3-14.2,22.6-20c11-7.7,22.7-14.1,34.9-19.7
	c16.1-7.4,32.7-13.3,49.7-18.2c2.8-0.8,2.4-0.3,3,1.6c4.9,15.7,10.5,31.2,16.6,46.5c4.6,11.5,9.4,22.8,14.5,34.1
	c0.2,0.3,0.3,0.7,0.5,1c0.6,1,0.6,2,0.1,3.1c-1.1,2.3-2.1,4.7-3.2,7C189.9,332.7,180.9,356,173.2,379.8z M339.3,509
	c-4.5,4.4-9.2,8.6-14,12.8c-10.1,8.7-20.7,16.9-31.9,24.2c-12.4,8.2-25.4,15.3-39.4,20.5c-7.6,2.8-15.3,5-23.3,6.1
	c-5.9,0.8-11.8,0.9-17.8-0.2c-7.2-1.4-12.9-5-17.3-10.8c-2.8-3.6-5-7.6-6.8-11.9c-2.9-6.9-4.8-14-6-21.3
	c-1.9-11.2-2.3-19.4-2.3-30.3c-0.1-8.7,0.6-17.9,1.6-27.1c1.7-15.5,4.6-30.8,8.3-45.9c0-0.1,0-0.2,0.1-0.3c0.4-1.6,0.6-1.7,2.3-1.4
	c1.6,0.3,3.2,0.7,4.8,1c10.8,2.3,21.7,4.2,32.7,5.9c7.5,1.1,15,2,22.6,3c5.9,0.7,11.8,1.4,17.7,2c2.9,0.3,5.8,0.6,8.8,0.7
	c1.9,0.1,3.2,0.7,4.3,2.3c4.5,6.3,9.1,12.6,13.8,18.8c12.9,17,26.6,33.4,41,49.1c0.3,0.3,0.6,0.7,0.9,1
	C340.1,508,340.1,508.2,339.3,509z M360.3,487.1c-2-2.2-3.9-4.2-5.7-6.2c-11.5-12.9-22.6-26.2-33.1-40c-0.4-0.5-0.8-1-1.1-1.6
	c-0.1-0.2-0.1-0.6,0.2-0.6c0.3-0.1,0.7-0.1,1.1-0.1c4.9,0.1,9.9,0.3,14.8,0.4c4.9,0.1,9.7,0.2,14.6,0.2c8.6,0,17.2,0,25.8-0.1
	c7.3-0.1,14.6-0.5,22-0.7c0.3,0,0.5,0,0.7,0.2C397,443.9,366.6,481.4,360.3,487.1z M537.2,520.3c-1.4,10-3.5,19.8-7.6,29.1
	c-1.9,4.4-4.2,8.5-7.1,12.3c-5.6,7.4-13.2,11.1-22.4,11.6c-8.2,0.5-16.2-0.9-24.1-3.1c-10.5-3-20.4-7.5-30-12.7
	c-12.8-7-24.8-15.2-36.3-24.2c-9.3-7.3-18.2-15.1-26.7-23.2c-0.4-0.4-0.8-0.8-1.2-1.1c-1-1-1-1.1,0-2.3c3.9-4.5,7.9-8.9,11.8-13.4
	c15-17.6,28.9-36,42.1-54.9c1.8-2.5,1.8-2.6,4.8-2.9c4.5-0.4,8.9-0.8,13.4-1.3c5.3-0.6,10.5-1.3,15.8-2c5.6-0.8,11.2-1.5,16.8-2.4
	c10.6-1.6,21.1-3.5,31.6-5.7c3.2-0.7,6.4-1.4,9.7-2.1c1.2-0.3,1.5-0.1,1.7,1c0.8,3.4,1.6,6.8,2.3,10.2c1.7,7.9,3.1,15.8,4.2,23.8
	c0.8,5.8,1.5,11.6,1.9,17.5c0.5,6.6,0.8,13.2,0.9,19.2C538.8,503,538.4,511.7,537.2,520.3z M665.9,313.4c-2.2,4.8-5.1,9.1-8.4,13.1
	c-5.2,6.3-11.1,11.7-17.4,16.7c-10.1,7.9-20.9,14.5-32.3,20.3c-18.1,9.3-37.1,16.6-56.5,22.5c-0.4,0.1-0.9,0.3-1.3,0.4
	c-0.4,0.1-0.7-0.1-0.9-0.5c-0.3-0.7-0.5-1.4-0.7-2.1c-7.8-24.2-17.3-47.8-27.8-71c-1.5-3.2-2.9-6.5-4.5-9.7c-0.8-1.6-0.8-3,0-4.6
	c3.7-7.9,7.2-15.8,10.5-23.8c7.7-18.3,14.6-36.9,20.6-55.8c0.2-0.5,0.3-1,0.5-1.6c0.2-0.5,0.5-0.7,1.1-0.6c0.5,0.1,1.1,0.2,1.6,0.4
	c19.2,5.7,38,12.6,56,21.5c12,6,23.5,12.7,34.1,20.9c7.3,5.7,14.1,11.9,19.7,19.4c3.3,4.4,6.1,9.2,7.6,14.5c0.7,2.4,1.1,4.8,1,7.6
	C669,305.1,667.7,309.3,665.9,313.4z"/>
<path fill="#00D8FF" d="M419.7,300.8c0.1-33.5-27.2-60.7-60.3-60.6c-32.5-0.3-60.5,26-60.6,60.3c-0.1,33.3,26.6,60.5,60.3,60.6
	C393.5,361.2,419.6,333.3,419.7,300.8z"/>
</svg>
