<?xml version="1.0" encoding="utf-8"?>
  
<!DOCTYPE svg PUBLIC "-//W3C//DTD SVG 1.1//EN" "http://www.w3.org/Graphics/SVG/1.1/DTD/svg11.dtd">
<svg version="1.1" id="Layer_1" xmlns="http://www.w3.org/2000/svg" xmlns:xlink="http://www.w3.org/1999/xlink" x="0px" y="0px"
	 viewBox="-881 681 607 373" enable-background="new -881 681 607 373" xml:space="preserve">
<title>file_type_tailwind</title>
<path fill="#38BDF8" d="M-724.5,806.8c19.8-79.2,69.4-118.8,148.6-118.8c118.8,0,133.8,89.2,193.1,104c39.6,10,74.3-4.9,104-44.6
	c-19.8,79.2-69.4,118.8-148.6,118.8c-118.8,0-133.8-89.2-193.1-104C-660.1,752.2-694.8,767-724.5,806.8z M-873.1,985.1
	c19.8-79.2,69.4-118.8,148.6-118.8c118.8,0,133.8,89.2,193.1,104c39.6,10,74.3-4.9,104-44.6c-19.8,79.2-69.4,118.8-148.6,118.8
	c-118.8,0-133.8-89.2-193.1-104C-808.7,930.5-843.4,945.4-873.1,985.1z"/>
</svg>
