<?xml version="1.0" encoding="utf-8"?>
  
<!DOCTYPE svg PUBLIC "-//W3C//DTD SVG 1.1//EN" "http://www.w3.org/Graphics/SVG/1.1/DTD/svg11.dtd">
<svg version="1.1" id="Layer_1" xmlns="http://www.w3.org/2000/svg" xmlns:xlink="http://www.w3.org/1999/xlink" x="0px" y="0px"
	 viewBox="0 0 672 713.1" enable-background="new 0 0 672 713.1" xml:space="preserve">
<path fill="#F7BE3C" d="M383.8,16.4c23.4,13.7,46.8,27.4,70.3,41c65.6,38,131.1,75.9,196.8,113.8c4.1,2.4,5.6,5,5.6,9.8
	c-0.2,30.8-0.1,61.7-0.1,92.5c0,2,0.5,4-0.6,5.9c-2.7-2.1-2.1-5.1-2.1-7.8c-0.1-28.1,0-56.3,0-84.4c0-1.2,0-2.3,0-3.5
	c-0.1-4.8-0.4-5.1-4.7-2.6c-25.6,14.5-51,29.5-76.6,44.1c-2.2,1.2-4.2,2.7-6.8,2.9c-4.6-0.6-8.3-3.5-12.1-5.7
	c-33.8-19.5-67.4-39.1-101.2-58.6c-21.5-12.4-43-24.8-64.5-37.3c-1.6-0.9-3.2-1.9-5-2.1c-10.3,4.8-19.8,11-29.6,16.6
	c-66.2,38.2-132.3,76.6-198.5,114.8c-12.8,7.4-25.5,15.1-38.5,22.2c-1.7,1-3.4,2.1-5.4,2.5c-0.8,0.1-1.5,0.1-2.3,0
	c-8.2-3.4-15.4-8.4-23-12.7c-20.1-11.6-40.2-23.3-60.3-35c-2.4-1.4-5.3-2.3-6.1-5.5c0.4-3.8,3.8-4.8,6.5-6.4
	c21.3-12.3,42.7-24.7,64-37c50.3-29.2,100.6-58.3,151-87.4c44.3-25.6,88.4-51.4,132.8-76.9c2.8-1.6,5.8-2.4,8.8-3.3
	C382.8,16.4,383.3,16.4,383.8,16.4z"/>
<path fill="#E45B2D" d="M18.7,227c0.2,0,0.4,0,0.6,0.1c12.4,7.4,24.7,14.8,37.2,22.1c17.3,10.1,34.7,20.1,52.1,30.1
	c2.4,1.2,2.5,3.3,2.5,5.5c0,31.4,0,62.8,0,94.2c0,2,0.5,4.5-2.4,5.3c-27.9-16.1-55.8-32.2-83.7-48.2c-2-1.2-4.1-2.2-6.2-3.2
	C18.8,297.6,18.7,262.3,18.7,227z"/>
<path fill="#E45B2D" d="M290.7,700.4c-21.6-12.4-43.3-24.8-64.9-37.2c-6.9-4-13.7-8.2-20.8-11.9c-3.5-1.8-4.4-4.1-4.4-7.8
	c0.1-101.3,0.1-202.5,0.1-303.8c0-2.2-0.1-4.3-0.1-6.5c-0.3-2.8,1.8-3.7,3.6-4.8c23.8-13.8,47.4-27.7,71.3-41.2
	c3.6-2.1,7-4.5,10.8-6.3c4.6-2.1,6.5-1.1,7,3.9c0.2,2,0.1,4,0.1,6c0,30,0,59.9,0,89.9c0,1-0.2,2,0.3,2.9c3.6,3.5,8.2,5.6,12.5,8.1
	c24.3,13.9,48.4,28.1,72.6,42c2.2,1.2,4.4,2.4,5,5.3c0.3,32.8,0.1,65.5,0.1,98.3c0,1.5,0.1,3-0.8,4.3c-2.9,3.2-5.6,0.8-8-0.6
	c-11-6.3-21.9-12.7-32.9-19c-14.4-8.3-28.8-16.7-43.3-24.9c-5.3-3-5.5-2.9-5.6,3.3c0,63.1,0,126.2,0,189.4c0,2,0.1,4-0.1,6
	C293.3,697.6,293.3,699.8,290.7,700.4z"/>
<path fill="#EC8D24" d="M292.5,385.3c-1.4-1.7-0.9-3.8-0.9-5.8c0-31.3,0-62.6,0-93.9c0-5.4-0.2-5.6-5-2.8
	c-21.6,12.5-43.1,25-64.6,37.5c-7.2,4.2-14.6,7.9-21.3,12.8c-8.7,3.8-16.6,9.1-24.8,13.8c-19.7,11.3-39.4,22.8-59.1,34.2
	c-2,1.2-4.1,2.1-6.2,3.2c-0.8-1.2-0.5-2.6-0.5-3.9c0-32.4,0-64.8,0-97.1c0-1.3-0.4-2.7,0.5-3.9c42-24.3,83.9-48.7,125.9-73
	c47.3-27.4,94.7-54.7,142-82c1.3-0.7,2.7-1.2,4.1-1.9c1.9,1.8,2,4.1,2,6.4c0,31,0,62.1,0,93.1c0,1.8,0.1,3.7-1.2,5.2
	c-1.4,1.8-0.7,3.8-0.7,5.8c-0.1,33.1,0,66.1-0.1,99.2c0.2,3.1-2.6,3.6-4.4,4.7c-23.1,13.5-46.3,26.9-69.5,40.2
	C303.6,380,298.8,384.3,292.5,385.3z"/>
<path fill="#E45B2D" d="M383.5,227.2c-0.9-1.9-0.9-3.9-0.9-5.9c0-33,0-65.9,0-98.9c8.7,3.1,16.1,8.5,24,13
	c45.6,26.2,91.1,52.7,136.6,79c7.2,4.2,14.3,8.4,21.5,12.6c1.9,1.6,1.9,3.8,1.9,5.9c0.1,30.7,0.1,61.4,0,92.1c0,2.4,0.3,5.2-2.9,6.1
	c-19.6-11.2-39.2-22.4-58.7-33.7c-39.4-22.7-78.8-45.5-118.1-68.3C385.7,228.7,384.6,227.9,383.5,227.2z"/>
<path fill="#EC8D24" d="M290.7,700.4c1.5-1.9,0.9-4.2,0.9-6.3c0-65.7,0-131.5,0-197.2c0-1.8,0-3.6,0-6.2c5.9,3.2,11.3,6,16.6,9.1
	c23.3,13.5,46.5,27.1,69.8,40.7c1.4,0.8,3,1.3,4.6,1.9c0.3,0.2,0.5,0.5,0.4,0.8c-0.1,0.3-0.1,0.4-0.2,0.4c0,33.7,0,67.3,0.1,101
	c0,3.3-1.2,5-3.9,6.6c-27.9,16-55.6,32.1-83.5,48.1C294.1,700,292.8,702.2,290.7,700.4z"/>
<path fill="#F7BE3C" d="M292.5,385.3c7.2-5.6,15.5-9.5,23.3-14.1c22.3-13.1,44.6-26,66.9-39c29.1,16.9,58.3,33.9,87.4,50.9
	c1.4,0.8,3.2,1.1,3.6,3.1c-5.1,5.8-12.3,8.4-18.7,12.1c-21.8,12.5-43.3,25.5-65.3,37.7c-1.9,1-3.6,2.6-5.9,2.2
	c-0.5-0.2-0.9-0.4-1.3-0.7C352.3,420.3,322.2,403.1,292.5,385.3z"/>
<path fill="#EC8D24" d="M563.7,331.3c1.5-1.9,0.9-4.2,0.9-6.3c0.1-32.6,0.1-65.3,0.1-97.9c16.7-9.6,33.5-19.2,50.2-28.8
	c12-6.9,23.9-13.9,35.9-20.7c4.6-2.6,4.8-2.4,4.8,2.7c0,30.8,0,61.6,0,92.4c0,2.2,0.1,4.3,0.2,6.5c-6.3,5.2-13.8,8.5-20.8,12.6
	c-21.9,12.9-44,25.5-66,38.2C567.4,331,566,333.2,563.7,331.3z"/>
<path fill="#EC8D24" d="M383.6,437.3c15.1-8.7,30.3-17.3,45.4-26c14-8,27.9-16.1,41.9-24.2c0.8-0.5,1.9-0.7,2.8-1
	c0.1,30.3-0.4,60.7,0.5,90.9c0.3,10.5-3.1,15.8-12.1,20.7c-24.9,13.5-49.1,28.1-73.6,42.3c-1.6,0.9-3.2,1.6-4.9,2.5
	c-0.9-1.2-0.5-2.6-0.5-3.9c0-32.5,0-64.9,0-97.4C383.1,439.9,382.8,438.5,383.6,437.3z"/>
<path fill="#EB8D31" d="M110.6,279.4c0,35,0,69.9,0,104.9c-0.6,0.8-1.3,1.1-2,0.1c1.4-1.6,0.9-3.5,0.9-5.3c0-31.3,0-62.7,0-94
	c0-2,0.1-4-1-5.8C109.3,279.3,110,279.3,110.6,279.4z"/>
<path fill="#EB933D" d="M383.6,437.3c0,35,0,70.1,0,105.1c-0.3,0.3-0.6,0.7-0.9,1c-0.1-0.4-0.1-0.8-0.2-1.2c0-35-0.1-69.9-0.1-104.9
	C382.9,437.4,383.3,437.4,383.6,437.3z"/>
</svg>
