<?xml version="1.0" encoding="utf-8"?>
<!-- Generator: Adobe Illustrator 26.3.1, SVG Export Plug-In . SVG Version: 6.00 Build 0)  -->
<svg version="1.1" id="Layer_1" xmlns="http://www.w3.org/2000/svg" xmlns:xlink="http://www.w3.org/1999/xlink" x="0px" y="0px"
	 viewBox="0 0 2222 2721.5" style="enable-background:new 0 0 2222 2721.5;" xml:space="preserve">
<style type="text/css">
	.st0{fill:#5C8DBC;}
	.st1{fill:#1A4674;}
	.st2{fill:#1B598E;}
	.st3{fill:#FFFFFF;}
</style>
<path class="st0" d="M2218.3,956.9c0-41.9-9-79-27.1-110.8c-17.8-31.3-44.5-57.5-80.3-78.2c-295.3-170.3-590.9-340.1-886.2-510.5
	c-79.6-46-156.8-44.3-235.8,2.3C871.4,329,282.8,666.2,107.5,767.8C35.3,809.7,0.1,873.6,0.1,956.8C0,1299.3,0.1,1641.7,0,1984.2
	c0,41,8.6,77.3,25.9,108.6c17.8,32.2,44.9,59.1,81.5,80.3c175.4,101.6,764,438.7,881.5,508.1c79,46.6,156.2,48.3,235.8,2.3
	c295.2-170.5,590.9-340.2,886.2-510.5c36.6-21.2,63.6-48.1,81.5-80.3c17.3-31.3,25.9-67.6,25.9-108.7
	C2218.4,1984.1,2218.4,1299.3,2218.3,956.9"/>
<path class="st1" d="M1112.6,1467.2L25.9,2092.8c17.8,32.2,44.9,59.1,81.5,80.3c175.4,101.6,764,438.7,881.5,508.1
	c79,46.6,156.2,48.3,235.8,2.3c295.2-170.5,590.9-340.2,886.2-510.5c36.6-21.2,63.6-48.1,81.5-80.3L1112.6,1467.2"/>
<path class="st1" d="M790.7,1652.5c63.2,110.4,182.1,184.8,318.5,184.8c137.2,0,256.7-75.4,319.7-187l-316.3-183.2L790.7,1652.5"/>
<path class="st2" d="M2218.3,956.9c0-41.9-9-79-27.1-110.8l-1078.6,621l1079.8,625.6c17.3-31.3,25.9-67.6,25.9-108.7
	C2218.4,1984.1,2218.4,1299.3,2218.3,956.9"/>
<path class="st3" d="M2158.9,1511.9h-84.4v84.4h-84.4v-84.4h-84.4v-84.4h84.4v-84.4h84.4v84.4h84.4V1511.9 M1851,1511.9h-84.4v84.4
	h-84.4v-84.4h-84.4v-84.4h84.4v-84.4h84.4v84.4h84.4V1511.9"/>
<path class="st3" d="M1428.8,1650.4c-62.9,111.6-182.5,187-319.7,187c-136.4,0-255.2-74.5-318.5-184.8
	c-31.8-55.4-48.4-118.1-48.4-182c0-202.6,164.2-366.8,366.8-366.8c135.5,0,253.7,73.5,317.3,182.8l320.6-184.6
	c-127.4-220-365.4-368-637.9-368c-406.9,0-736.7,329.8-736.7,736.7c0,133.5,35.5,258.6,97.6,366.6
	c127.1,221.2,365.7,370.1,639.1,370.1c273.9,0,512.9-149.5,639.8-371.3L1428.8,1650.4"/>
</svg>
