<?xml version="1.0" encoding="utf-8"?>
<!-- Generator: Adobe Illustrator 26.3.1, SVG Export Plug-In . SVG Version: 6.00 Build 0)  -->
<svg version="1.1" id="Layer_1" xmlns="http://www.w3.org/2000/svg" xmlns:xlink="http://www.w3.org/1999/xlink" x="0px" y="0px"
	 viewBox="0 0 379 512" style="enable-background:new 0 0 379 512;" xml:space="preserve">
<style type="text/css">
	.st0{fill:#E66F00;}
	.st1{fill:#5382A0;}
	.st2{fill:#8CAAC0;}
</style>
<path class="st0" d="M189.1,268.2c-16.6-14.8-33-29.8-46.3-47.7c-7.5-10.1-13.8-20.8-15.6-33.6c-1.6-11.2,1.6-21,8.1-30
	c9.7-13.5,22.2-24.1,35-34.5c14.4-11.6,29.4-22.4,42.4-35.6C223.3,76,232.3,64.2,237,49.4c4.3-13.5,4.2-27.1,1-40.7
	c-0.1-0.4-0.4-0.8,0.3-1.3c2.1,1.2,3.3,3.5,4.4,5.6c10.7,18.8,9.6,38,1.2,57.2c-8.6,19.6-22.6,35.1-38.1,49.5
	c-10.5,9.7-22.3,17.8-32.2,28.1c-4.4,4.5-8.4,9.3-12,14.4c-12.2,17.7-13.4,36.2-3.7,55.4c4.9,9.7,11.2,18.4,17.3,27.3
	C180.4,252.3,185.7,259.6,189.1,268.2z"/>
<path class="st1" d="M337.6,418.3c7.9,2.3,9.9,8.2,4.9,13.4c-6.1,6.3-14.1,9.2-22,12.1c-20,7.2-40.7,11-61.6,13.9
	c-37.9,5.3-76,6.7-114.2,5.6c-37.7-1.1-75.2-4.6-112.4-11.1c-5.1-0.9-10.1-2.2-14.6-4.8c-6-3.5-6.7-7.9-2-13
	c1.6-1.7,3.4-3.4,5.3-4.6c17.9-10.9,37.1-17,58.2-17.2c3,0,5.9,0.3,9.4,2.5c-9.7,0.5-18.2,2.2-26.5,5.1c-5,1.7-10,3.5-14.5,6.5
	c-2.2,1.5-5,2.9-4.6,6c0.3,2.8,3.1,3.7,5.4,4.7c10.8,4.5,22.1,6.6,33.6,8.2c44.8,6.2,89.8,6.1,134.9,4.1c28.6-1.3,57.1-3.6,85.3-8.7
	c8.9-1.6,17.8-3.5,26.2-7.1c2.9-1.2,5.7-2.7,7.9-4.9C339.4,425.9,340.7,422.7,337.6,418.3z"/>
<path class="st0" d="M294.3,105.7c-1.1,1.7-3,2.3-4.5,3.2c-18.3,11.1-36.5,22.4-52.6,36.8c-4.9,4.4-9.4,9.2-13.1,14.7
	c-7.4,10.7-8.4,21.9-2.3,33.6c3.8,7.3,8.5,13.8,13.3,20.4c13.7,18.9,12.9,34.1-2.7,51.5c-6.5,7.2-13.9,13.3-23.7,18.6
	c2.8-3.9,5-6.5,6.8-9.5c7.9-12.8,7.3-25.7-2.1-37.5c-6.5-8.2-13.1-16.4-17.4-26.1c-9.5-21.5-5.7-40.9,9.7-58.3
	c9-10.2,20-18,31.7-24.7c17.3-9.9,35.7-17.2,54.8-22.8C292.8,105.6,293.5,105.1,294.3,105.7z"/>
<path class="st1" d="M265.1,400.7c-13.8,5.9-27.2,9.9-40.9,12.4c-32,6-64,6.3-95.6-2.4c-7.1-2-14-4.6-19.8-9.2
	c-6.9-5.4-6.8-11.2,0.4-16.3c4.5-3.2,9.4-5.2,15.3-6.5c-4.3,6.2-3.5,8.7,3.3,10.9c9.6,3,19.7,3.2,29.6,4.2
	c26.1,2.6,51.8-0.2,77.3-5.2c2.9-0.6,5.4-0.4,8,1.2C249.5,393.9,257,397.1,265.1,400.7z"/>
<path class="st1" d="M287,290.4c-18.5,12.9-40.1,14.9-61.4,17.7c-29.7,3.8-59.5,5.4-89.4,4.6c-23.6-0.6-47.2-1.4-70.3-7.2
	c-4.1-1-8.1-2.3-11.7-4.7c-3.7-2.6-3.9-5.4-0.5-8.4c1.3-1.1,2.8-2.1,4.3-2.9c21.9-11.1,45-17.7,69.6-18.9c1.5-0.1,3,0,4.5,0.3
	c-9.5,3-19.1,5.6-28.4,9.1c-4.2,1.6-8.5,3.2-12.4,5.6c-2.4,1.4-5.5,2.7-5.3,6c0.3,3.4,3.7,3.9,6.3,4.7c6.3,2.1,12.8,2.8,19.4,3.3
	c28.1,2.1,56.3,1.2,84.4-0.4c23.1-1.3,46.1-3.6,69-6.9c7-1,13.9-2,20.9-3C286.9,289.1,287.2,289.5,287,290.4z"/>
<path class="st1" d="M273.5,349.5c-12.4,3.9-24.2,6.4-36,8.5c-27,4.9-54.3,6.8-81.7,5.7c-16.6-0.7-33-2.5-49-7.5
	c-4.9-1.6-9.7-3.5-13.8-6.8c-4.6-3.7-4.9-8.4-0.7-12.5c5.3-5.3,12-8.1,19.3-10.2c0,1,0.1,1.3,0,1.5c-5.8,6.8-3.3,11.7,5.2,13.8
	c12.3,3,25.1,3.3,37.7,3.9c32.3,1.7,64.3-1.6,96-7.8c2.6-0.5,4.4-0.1,6.3,1.6C261.5,343.8,266.9,346.5,273.5,349.5z"/>
<path class="st1" d="M366.4,442.3c-1.5,7.4-5.3,11.8-10,15.5c-9.7,7.6-21,11.6-32.6,14.9c-23.1,6.5-46.8,9.5-70.7,11.4
	c-30.1,2.4-60.3,3-90.5,1.8c-24.4-1-48.7-2.4-72.5-8.4c-4.1-1-8-2.3-11.7-4.8c5.6,0.7,11.3,1.4,16.9,2c39.1,4.6,78.3,5.5,117.6,3.4
	c39.5-2.1,78.9-6.3,117-17.6C342.6,456.8,355.2,452.4,366.4,442.3z"/>
<path class="st1" d="M290.8,360.1c1.5-2.9,4-3.5,6-4.6c14.3-8,27.8-16.8,38.6-29.4c6-7,10.6-14.7,11.1-24.3
	c1-17.7-15.9-32.8-33.4-29.8c-3.8,0.7-7.6,1.6-11.9,2.6c5.2-6,11.8-7.1,18.4-8.1c10.9-1.7,21.2,0,30.7,5.8
	c16,9.7,20.7,28.8,11.3,45.3c-6.3,10.9-15.7,18.6-26.3,24.9C321.6,350.6,306.9,356.1,290.8,360.1z"/>
<path class="st2" d="M287,290.4c-0.4-0.4-0.7-0.7-1.1-1.1c1-0.9,2.2-1,3.5-0.5C289.1,290.1,288.1,290.3,287,290.4z"/>
</svg>
