<?xml version="1.0" encoding="utf-8"?>
<!-- Generator: Adobe Illustrator 26.3.1, SVG Export Plug-In . SVG Version: 6.00 Build 0)  -->
<svg version="1.1" id="Layer_1" height="2500" width="2200" xmlns="http://www.w3.org/2000/svg" xmlns:xlink="http://www.w3.org/1999/xlink" x="0px" y="0px"
	 viewBox="0 0 2500 2932" style="enable-background:new 0 0 2500 2932;" xml:space="preserve">
<style type="text/css">
	.st0{fill:url(#SVGID_1_);}
	.st1{fill:url(#SVGID_00000039814726131017139770000012380634765520672912_);}
</style>
<linearGradient id="SVGID_1_" gradientUnits="userSpaceOnUse" x1="579.8127" y1="13.6099" x2="580.4796" y2="14.2716" gradientTransform="matrix(1849.2675 0 0 1853.3917 -1071993.625 -24552.7695)">
	<stop  offset="0" style="stop-color:#387EB8"/>
	<stop  offset="1" style="stop-color:#366994"/>
</linearGradient>
<path class="st0" d="M1239.3,442.7c-633.1,0-593.5,274.5-593.5,274.5l0.7,284.4h604.1v85.4H406.5c0,0-405.1-45.9-405.1,592.8
	c0,638.8,353.6,616.1,353.6,616.1h211v-296.4c0,0-11.4-353.6,347.9-353.6h599.2c0,0,336.6,5.4,336.6-325.4V773.7
	C1849.8,773.7,1900.9,442.7,1239.3,442.7z M906.2,634c60-0.1,108.6,48.5,108.7,108.5c0,0.1,0,0.1,0,0.2
	c0.1,60-48.5,108.6-108.5,108.7c-0.1,0-0.1,0-0.2,0c-60,0.1-108.6-48.5-108.7-108.5c0-0.1,0-0.1,0-0.2
	C797.4,682.7,846,634.1,906,634C906.1,634,906.1,634,906.2,634z"/>
<linearGradient id="SVGID_00000099628624151117864740000016053588440079873468_" gradientUnits="userSpaceOnUse" x1="579.8743" y1="13.6954" x2="580.5906" y2="14.3739" gradientTransform="matrix(1849.2671 0 0 1853.3918 -1071349 -23925.2754)">
	<stop  offset="0" style="stop-color:#FFE052"/>
	<stop  offset="1" style="stop-color:#FFC331"/>
</linearGradient>
<path style="fill:url(#SVGID_00000099628624151117864740000016053588440079873468_);" d="M1257.3,2923.5
	c633.1,0,593.5-274.5,593.5-274.5l-0.7-284.4H1246v-85.4h844c0,0,405.1,45.9,405.1-592.8c0-638.8-353.6-616.1-353.6-616.1h-211
	v296.4c0,0,11.4,353.6-347.9,353.6H983.4c0,0-336.6-5.4-336.6,325.4v547C646.8,2592.5,595.7,2923.5,1257.3,2923.5L1257.3,2923.5z
	 M1590.4,2732.2c-60,0.1-108.6-48.5-108.7-108.5c0-0.1,0-0.1,0-0.2c-0.1-60,48.5-108.6,108.5-108.7c0.1,0,0.1,0,0.2,0
	c60-0.1,108.6,48.5,108.7,108.5c0,0.1,0,0.1,0,0.2c0.1,60-48.5,108.6-108.5,108.7C1590.5,2732.2,1590.5,2732.2,1590.4,2732.2
	L1590.4,2732.2z"/>
</svg>
